<?xml version="1.0" encoding="utf-8" standalone="no"?>
<!DOCTYPE svg PUBLIC "-//W3C//DTD SVG 1.1//EN"
  "http://www.w3.org/Graphics/SVG/1.1/DTD/svg11.dtd">
<!-- Created with matplotlib (https://matplotlib.org/) -->
<svg height="432pt" version="1.1" viewBox="0 0 576 432" width="576pt" xmlns="http://www.w3.org/2000/svg" xmlns:xlink="http://www.w3.org/1999/xlink">
 <metadata>
  <rdf:RDF xmlns:cc="http://creativecommons.org/ns#" xmlns:dc="http://purl.org/dc/elements/1.1/" xmlns:rdf="http://www.w3.org/1999/02/22-rdf-syntax-ns#">
   <cc:Work>
    <dc:type rdf:resource="http://purl.org/dc/dcmitype/StillImage"/>
    <dc:date>2021-04-13T16:45:59.271623</dc:date>
    <dc:format>image/svg+xml</dc:format>
    <dc:creator>
     <cc:Agent>
      <dc:title>Matplotlib v3.3.2, https://matplotlib.org/</dc:title>
     </cc:Agent>
    </dc:creator>
   </cc:Work>
  </rdf:RDF>
 </metadata>
 <defs>
  <style type="text/css">*{stroke-linecap:butt;stroke-linejoin:round;}</style>
 </defs>
 <g id="figure_1">
  <g id="patch_1">
   <path d="M 0 432 
L 576 432 
L 576 0 
L 0 0 
z
" style="fill:#ffffff;"/>
  </g>
  <g id="axes_1">
   <g id="patch_2">
    <path d="M 102.482794 117.818809 
L 179.056072 117.818809 
L 179.056072 44.3733 
L 102.482794 44.3733 
z
" style="fill:#ffffff;"/>
   </g>
   <g id="matplotlib.axis_1">
    <g id="xtick_1">
     <g id="line2d_1">
      <defs>
       <path d="M 0 0 
L 0 12 
" id="mc1281702e9" style="stroke:#262626;stroke-width:2.5;"/>
      </defs>
      <g>
       <use style="fill:#262626;stroke:#262626;stroke-width:2.5;" x="175.575468" xlink:href="#mc1281702e9" y="117.818809"/>
      </g>
     </g>
    </g>
   </g>
   <g id="matplotlib.axis_2">
    <g id="ytick_1">
     <g id="line2d_2">
      <defs>
       <path d="M 0 0 
L -12 0 
" id="m4167a98b67" style="stroke:#262626;stroke-width:2.5;"/>
      </defs>
      <g>
       <use style="fill:#262626;stroke:#262626;stroke-width:2.5;" x="102.482794" xlink:href="#m4167a98b67" y="110.879809"/>
      </g>
     </g>
     <g id="text_1">
      <!-- $\mathdefault{2.5}$ -->
      <g style="fill:#262626;" transform="translate(65.65673 117.106459)scale(0.18 -0.18)">
       <defs>
        <path d="M 41.703125 15.46875 
L 39.90625 15.46875 
C 38.90625 8.390625 38.09375 7.1875 37.703125 6.59375 
C 37.203125 5.796875 30 5.796875 28.59375 5.796875 
L 9.40625 5.796875 
C 13 9.6875 20 16.765625 28.5 24.9375 
C 34.59375 30.71875 41.703125 37.5 41.703125 47.390625 
C 41.703125 59.1875 32.296875 66 21.796875 66 
C 10.796875 66 4.09375 56.296875 4.09375 47.296875 
C 4.09375 43.390625 7 42.890625 8.203125 42.890625 
C 9.203125 42.890625 12.203125 43.484375 12.203125 46.984375 
C 12.203125 50.09375 9.59375 51 8.203125 51 
C 7.59375 51 7 50.890625 6.59375 50.6875 
C 8.5 59.1875 14.296875 63.390625 20.40625 63.390625 
C 29.09375 63.390625 34.796875 56.5 34.796875 47.390625 
C 34.796875 38.703125 29.703125 31.21875 24 24.734375 
L 4.09375 2.296875 
L 4.09375 0 
L 39.296875 0 
z
" id="CMR17-50"/>
        <path d="M 18.40625 4.796875 
C 18.40625 7.6875 16 9.6875 13.59375 9.6875 
C 10.703125 9.6875 8.703125 7.296875 8.703125 4.890625 
C 8.703125 2 11.09375 0 13.5 0 
C 16.40625 0 18.40625 2.390625 18.40625 4.796875 
z
" id="CMMI12-58"/>
        <path d="M 11.40625 58.59375 
C 12.40625 58.1875 16.5 56.890625 20.703125 56.890625 
C 30 56.890625 35.09375 61.890625 38 64.6875 
C 38 65.484375 38 66 37.40625 66 
C 37.296875 66 37.09375 66 36.296875 65.59375 
C 32.796875 64.09375 28.703125 63 23.703125 63 
C 20.703125 63 16.203125 63.359375 11.296875 65.484375 
C 10.203125 66 10 66 9.90625 66 
C 9.40625 66 9.296875 65.890625 9.296875 63.90625 
L 9.296875 34.859375 
C 9.296875 33.015625 9.296875 32.5 10.296875 32.5 
C 10.796875 32.5 11 32.703125 11.5 33.421875 
C 14.703125 38.046875 19.09375 40 24.09375 40 
C 27.59375 40 35.09375 37.734375 35.09375 20.203125 
C 35.09375 16.984375 35.09375 11.1875 32.09375 6.59375 
C 29.59375 2.484375 25.703125 0.390625 21.40625 0.390625 
C 14.796875 0.390625 8.09375 4.984375 6.296875 12.6875 
C 6.703125 12.59375 7.5 12.390625 7.90625 12.390625 
C 9.203125 12.390625 11.703125 13.09375 11.703125 16.1875 
C 11.703125 18.890625 9.796875 20 7.90625 20 
C 5.59375 20 4.09375 18.59375 4.09375 15.796875 
C 4.09375 7.09375 11 -2 21.59375 -2 
C 31.90625 -2 41.703125 6.890625 41.703125 19.796875 
C 41.703125 32.09375 33.90625 41.59375 24.203125 41.59375 
C 19.09375 41.59375 14.796875 39.6875 11.40625 36 
z
" id="CMR17-53"/>
       </defs>
       <use transform="scale(0.996264)" xlink:href="#CMR17-50"/>
       <use transform="translate(45.690477 0)scale(0.996264)" xlink:href="#CMMI12-58"/>
       <use transform="translate(72.787654 0)scale(0.996264)" xlink:href="#CMR17-53"/>
      </g>
     </g>
    </g>
    <g id="ytick_2">
     <g id="line2d_3">
      <g>
       <use style="fill:#262626;stroke:#262626;stroke-width:2.5;" x="102.482794" xlink:href="#m4167a98b67" y="87.711082"/>
      </g>
     </g>
     <g id="text_2">
      <!-- $\mathdefault{5.0}$ -->
      <g style="fill:#262626;" transform="translate(65.65673 93.937733)scale(0.18 -0.18)">
       <defs>
        <path d="M 42 31.84375 
C 42 37.96875 41.90625 48.421875 37.703125 56.453125 
C 34 63.484375 28.09375 66 22.90625 66 
C 18.09375 66 12 63.78125 8.203125 56.5625 
C 4.203125 49.015625 3.796875 39.671875 3.796875 31.84375 
C 3.796875 26.109375 3.90625 17.375 7 9.734375 
C 11.296875 -0.609375 19 -2 22.90625 -2 
C 27.5 -2 34.5 -0.109375 38.59375 9.4375 
C 41.59375 16.375 42 24.5 42 31.84375 
z
M 22.90625 -0.40625 
C 16.5 -0.40625 12.703125 5.125 11.296875 12.75 
C 10.203125 18.6875 10.203125 27.328125 10.203125 32.953125 
C 10.203125 40.6875 10.203125 47.109375 11.5 53.234375 
C 13.40625 61.78125 19 64.390625 22.90625 64.390625 
C 27 64.390625 32.296875 61.671875 34.203125 53.4375 
C 35.5 47.71875 35.59375 40.984375 35.59375 32.953125 
C 35.59375 26.421875 35.59375 18.375 34.40625 12.453125 
C 32.296875 1.5 26.40625 -0.40625 22.90625 -0.40625 
z
" id="CMR17-48"/>
       </defs>
       <use transform="scale(0.996264)" xlink:href="#CMR17-53"/>
       <use transform="translate(45.690477 0)scale(0.996264)" xlink:href="#CMMI12-58"/>
       <use transform="translate(72.787654 0)scale(0.996264)" xlink:href="#CMR17-48"/>
      </g>
     </g>
    </g>
    <g id="ytick_3">
     <g id="line2d_4">
      <g>
       <use style="fill:#262626;stroke:#262626;stroke-width:2.5;" x="102.482794" xlink:href="#m4167a98b67" y="64.542356"/>
      </g>
     </g>
     <g id="text_3">
      <!-- $\mathdefault{7.5}$ -->
      <g style="fill:#262626;" transform="translate(65.65673 70.769006)scale(0.18 -0.18)">
       <defs>
        <path d="M 45.09375 61.796875 
L 45.09375 64 
L 21.59375 64 
C 9.90625 64 9.703125 65.09375 9.296875 67 
L 7.5 67 
L 4.59375 48.5 
L 6.40625 48.5 
C 6.703125 50.40625 7.40625 55.5 8.59375 57.390625 
C 9.203125 58.1875 16.59375 58.1875 18.296875 58.1875 
L 40.296875 58.1875 
L 29.203125 41.71875 
C 21.796875 30.640625 16.703125 15.671875 16.703125 2.59375 
C 16.703125 1.390625 16.703125 -2 20.296875 -2 
C 23.90625 -2 23.90625 1.390625 23.90625 2.6875 
L 23.90625 7.28125 
C 23.90625 23.65625 26.703125 34.4375 31.296875 41.3125 
z
" id="CMR17-55"/>
       </defs>
       <use transform="scale(0.996264)" xlink:href="#CMR17-55"/>
       <use transform="translate(45.690477 0)scale(0.996264)" xlink:href="#CMMI12-58"/>
       <use transform="translate(72.787654 0)scale(0.996264)" xlink:href="#CMR17-53"/>
      </g>
     </g>
    </g>
    <g id="text_4">
     <!-- MSE -->
     <g style="fill:#262626;" transform="translate(58.168666 98.16153)rotate(-90)scale(0.18 -0.18)">
      <defs>
       <path d="M 49.90625 37.078125 
L 45.09375 23.0625 
C 44.296875 20.484375 41.59375 12.421875 41 9.25 
L 40.90625 9.25 
C 40.59375 11.234375 40 13.328125 38.40625 18.390625 
C 37.5 21.375 36.5 24.453125 35.5 27.234375 
L 20.703125 69 
L 9 69 
L 9 0 
L 16.796875 0 
L 16.796875 60.921875 
L 16.90625 60.921875 
C 16.90625 60.828125 17.796875 56.453125 23.90625 39.0625 
L 37.09375 1.59375 
L 44.5 1.59375 
L 56.40625 34.890625 
C 57.203125 37.171875 59.703125 44.421875 60.796875 47.90625 
C 61.796875 50.890625 64.296875 58.25 64.90625 61.125 
L 65 61.125 
L 65 0 
L 72.90625 0 
L 72.90625 69 
L 61.296875 69 
z
" id="CMSS17-77"/>
       <path d="M 43.703125 66.09375 
C 39.296875 68.6875 34.5 71 26.40625 71 
C 13.5 71 5.203125 61.46875 5.203125 51.703125 
C 5.203125 47.875 6.296875 43.546875 10.203125 39.125 
C 14.09375 34.6875 18.5 33.484375 24.09375 32.078125 
C 26.40625 31.46875 30.296875 30.359375 31 30.0625 
C 36.59375 27.84375 39.296875 22.71875 39.296875 17.875 
C 39.296875 11.53125 34.40625 4.796875 25.703125 4.796875 
C 22.703125 4.796875 13.90625 5.296875 5.59375 12.953125 
L 4.203125 5 
C 12.40625 -1 21.296875 -2 25.796875 -2 
C 38.09375 -2 46.90625 7.71875 46.90625 18.78125 
C 46.90625 22.8125 45.703125 27.953125 41.5 32.6875 
C 37.40625 37.203125 33.796875 38.21875 25.59375 40.4375 
C 20.90625 41.640625 17.90625 42.453125 15.40625 45.5625 
C 13.703125 47.78125 12.796875 49.890625 12.796875 52.609375 
C 12.796875 58.25 17.59375 64.390625 26.40625 64.390625 
C 30.796875 64.390625 36.5 63.484375 42.296875 58.046875 
z
" id="CMSS17-83"/>
       <path d="M 30.59375 6.796875 
C 22.59375 6.796875 19 6.796875 17.203125 6.6875 
L 17.203125 32.890625 
L 48.203125 32.890625 
L 48.203125 39 
L 17.203125 39 
L 17.203125 62.390625 
L 30.09375 62.390625 
C 31.296875 62.390625 32.5 62.296875 33.703125 62.296875 
L 50.796875 62.296875 
L 50.796875 68.796875 
L 8.796875 68.796875 
L 8.796875 0 
L 52.09375 0 
L 52.09375 6.890625 
z
" id="CMSS17-69"/>
      </defs>
      <use transform="scale(0.996264)" xlink:href="#CMSS17-77"/>
      <use transform="translate(81.67603 0)scale(0.996264)" xlink:href="#CMSS17-83"/>
      <use transform="translate(133.724546 0)scale(0.996264)" xlink:href="#CMSS17-69"/>
     </g>
    </g>
   </g>
   <g id="line2d_5">
    <path clip-path="url(#pd135cd8380)" d="M 175.575468 73.121789 
L 174.154814 74.020651 
L 172.734159 75.314934 
L 171.313505 76.848497 
L 169.89285 78.231076 
L 168.472196 80.275414 
L 167.051541 82.472188 
L 165.630887 84.569823 
L 164.210232 86.82349 
L 162.789578 89.400344 
L 161.368923 91.601903 
L 159.948269 93.489362 
L 158.527614 95.083973 
L 157.10696 96.395973 
L 155.686305 97.507181 
L 154.265651 98.444581 
L 152.844996 99.278113 
L 151.424342 99.96992 
L 150.003687 100.503089 
L 148.583033 100.88333 
L 147.162378 101.14974 
L 145.741724 101.312977 
L 144.321069 101.380389 
L 142.900415 101.366446 
L 141.47976 101.290874 
L 140.059106 101.133937 
L 138.638451 100.918579 
L 137.217797 100.671085 
L 135.797142 100.398487 
L 134.376487 100.111042 
L 132.955833 99.802428 
L 131.535178 99.471305 
L 130.114524 99.131937 
L 128.693869 98.784792 
L 127.273215 98.420063 
L 125.85256 98.054579 
L 124.431906 97.69414 
L 123.011251 97.340595 
L 121.590597 96.999913 
L 120.169942 96.674633 
L 118.749288 96.367893 
L 117.328633 96.075217 
L 115.907979 95.794786 
L 114.487324 95.524684 
L 113.06667 95.268531 
L 111.646015 95.024559 
L 110.225361 94.792144 
L 108.804706 94.573674 
L 107.384052 94.371518 
L 105.963397 94.184644 
" style="fill:none;stroke:#0173b2;stroke-linecap:round;"/>
   </g>
   <g id="line2d_6">
    <path clip-path="url(#pd135cd8380)" d="M 144.321069 117.818809 
L 144.321069 44.3733 
" style="fill:none;stroke:#0173b2;stroke-dasharray:7.4,3.2;stroke-dashoffset:0;stroke-width:2;"/>
   </g>
   <g id="line2d_7">
    <path clip-path="url(#pd135cd8380)" d="M 175.575468 73.159544 
L 174.154814 81.810007 
L 172.734159 85.053466 
L 171.313505 91.315055 
L 169.89285 83.906881 
L 168.472196 95.815165 
L 167.051541 98.562096 
L 165.630887 100.924544 
L 164.210232 102.898 
L 162.789578 102.625302 
L 161.368923 105.389493 
L 159.948269 105.086155 
L 158.527614 105.823819 
L 157.10696 106.222053 
L 155.686305 106.253595 
L 154.265651 107.457439 
L 152.844996 107.408514 
L 151.424342 107.398474 
L 150.003687 109.170358 
L 148.583033 107.337834 
L 147.162378 108.054112 
L 145.741724 104.883239 
L 144.321069 103.13682 
L 142.900415 105.159455 
L 141.47976 101.013793 
L 140.059106 100.890757 
L 138.638451 99.789524 
L 137.217797 96.556576 
L 135.797142 98.374686 
L 134.376487 94.524882 
L 132.955833 97.364582 
L 131.535178 96.797247 
L 130.114524 91.922756 
L 128.693869 94.691774 
L 127.273215 97.123693 
L 125.85256 95.000298 
L 124.431906 90.806781 
L 123.011251 92.001185 
L 121.590597 91.691816 
L 120.169942 91.103246 
L 118.749288 88.72468 
L 117.328633 89.775598 
L 115.907979 93.438209 
L 114.487324 89.193411 
L 113.06667 92.674263 
L 111.646015 86.405747 
L 110.225361 88.783365 
L 108.804706 88.219571 
L 107.384052 86.040784 
L 105.963397 90.265763 
" style="fill:none;stroke:#de8f05;stroke-linecap:round;"/>
   </g>
   <g id="line2d_8">
    <path clip-path="url(#pd135cd8380)" d="M 150.003687 117.818809 
L 150.003687 44.3733 
" style="fill:none;stroke:#de8f05;stroke-dasharray:7.4,3.2;stroke-dashoffset:0;stroke-width:2;"/>
   </g>
   <g id="patch_3">
    <path d="M 102.482794 117.818809 
L 102.482794 44.3733 
" style="fill:none;stroke:#262626;stroke-linecap:square;stroke-linejoin:miter;stroke-width:2.5;"/>
   </g>
   <g id="patch_4">
    <path d="M 179.056072 117.818809 
L 179.056072 44.3733 
" style="fill:none;stroke:#262626;stroke-linecap:square;stroke-linejoin:miter;stroke-width:2.5;"/>
   </g>
   <g id="patch_5">
    <path d="M 102.482794 117.818809 
L 179.056072 117.818809 
" style="fill:none;stroke:#262626;stroke-linecap:square;stroke-linejoin:miter;stroke-width:2.5;"/>
   </g>
   <g id="patch_6">
    <path d="M 102.482794 44.3733 
L 179.056072 44.3733 
" style="fill:none;stroke:#262626;stroke-linecap:square;stroke-linejoin:miter;stroke-width:2.5;"/>
   </g>
   <g id="text_5">
    <!-- Corr = 0.5 -->
    <g style="fill:#262626;" transform="translate(102.703584 38.3733)scale(0.18 -0.18)">
     <defs>
      <path d="M 54.703125 11.015625 
C 48 6.5 44.90625 5.1875 36.796875 5.1875 
C 22.796875 5.1875 14.59375 20.375 14.59375 34.234375 
C 14.59375 49.015625 23 63.59375 37.203125 63.59375 
C 43.59375 63.59375 47.796875 61.78125 52.90625 58.5625 
L 54.296875 66.484375 
C 49.5 68.890625 43.40625 70 37.296875 70 
C 18.09375 70 6.203125 52.234375 6.203125 34.234375 
C 6.203125 14.4375 20.296875 -1.203125 36.296875 -1.203125 
C 44.90625 -1.203125 47.90625 -0.5 55.296875 4.1875 
z
" id="CMSS17-67"/>
      <path d="M 44.203125 21.1875 
C 44.203125 33.984375 34.703125 44 23.5 44 
C 12 44 2.703125 33.6875 2.703125 21.1875 
C 2.703125 8.5 12.296875 -1 23.40625 -1 
C 34.796875 -1 44.203125 8.796875 44.203125 21.1875 
z
M 23.5 5.296875 
C 16.40625 5.296875 10.296875 11.09375 10.296875 21.984375 
C 10.296875 33.59375 17.40625 37.890625 23.40625 37.890625 
C 29.90625 37.890625 36.59375 33.1875 36.59375 21.984375 
C 36.59375 10.6875 30.09375 5.296875 23.5 5.296875 
z
" id="CMSS17-111"/>
      <path d="M 14.90625 21.390625 
C 14.90625 30.84375 21.796875 37.171875 30.59375 37.375 
L 30.59375 44 
C 24.203125 43.890625 18.203125 40.6875 14.59375 35.46875 
L 14.59375 43.484375 
L 7.5 43.484375 
L 7.5 0 
L 14.90625 0 
z
" id="CMSS17-114"/>
      <path d="M 64.796875 32 
C 66.296875 32 67.796875 32 67.796875 33.6875 
C 67.796875 35.5 66.09375 35.5 64.40625 35.5 
L 8.59375 35.5 
C 6.90625 35.5 5.203125 35.5 5.203125 33.6875 
C 5.203125 32 6.703125 32 8.203125 32 
z
M 64.40625 14.484375 
C 66.09375 14.484375 67.796875 14.484375 67.796875 16.296875 
C 67.796875 18 66.296875 18 64.796875 18 
L 8.203125 18 
C 6.703125 18 5.203125 18 5.203125 16.296875 
C 5.203125 14.484375 6.90625 14.484375 8.59375 14.484375 
z
" id="CMSS17-61"/>
      <path d="M 43.09375 32.390625 
C 43.09375 38.109375 43 48.75 38.90625 56.984375 
C 34.796875 64.890625 28.203125 67 23.5 67 
C 16.703125 67 10.90625 62.984375 7.90625 56.578125 
C 4.703125 49.859375 3.796875 42.9375 3.796875 32.390625 
C 3.796875 25.171875 4.09375 16.34375 7.703125 8.609375 
C 11.796875 0.09375 18.703125 -2 23.40625 -2 
C 29.59375 -2 35.59375 1.296875 39 8.203125 
C 42.5 15.4375 43.09375 23.359375 43.09375 32.390625 
z
M 23.40625 4.09375 
C 15.796875 4.09375 13.5 12.828125 12.796875 15.734375 
C 11.59375 20.75 11.40625 25.5625 11.40625 33.5 
C 11.40625 39.71875 11.40625 46.75 13.296875 52.265625 
C 15.59375 58.6875 19.59375 60.890625 23.40625 60.890625 
C 30.796875 60.890625 33.203125 53.46875 34 50.859375 
C 35.5 45.546875 35.5 39.3125 35.5 33.5 
C 35.5 24.15625 35.5 4.09375 23.40625 4.09375 
z
" id="CMSS17-48"/>
      <path d="M 17 8 
L 9 8 
L 9 0 
L 17 0 
z
" id="CMSS17-46"/>
      <path d="M 14.59375 59.59375 
L 39.09375 59.59375 
L 39.09375 66 
L 7.296875 66 
L 7.296875 28.59375 
L 14 28.59375 
C 15.796875 32.859375 19.5 36 24.296875 36 
C 28.796875 36 33.796875 31.9375 33.796875 20.296875 
C 33.796875 7.84375 26.703125 4.1875 21.5 4.1875 
C 15.09375 4.1875 9.203125 8.140625 6.59375 13.609375 
L 3.40625 7.9375 
C 8 0.796875 15.5 -2 21.5 -2 
C 33.09375 -2 42.203125 7.9375 42.203125 20.09375 
C 42.203125 32.546875 34.09375 42.09375 24.40625 42.09375 
C 20.90625 42.09375 17.5 40.890625 14.59375 38.5 
z
" id="CMSS17-53"/>
     </defs>
     <use transform="scale(0.996264)" xlink:href="#CMSS17-67"/>
     <use transform="translate(59.855772 0)scale(0.996264)" xlink:href="#CMSS17-111"/>
     <use transform="translate(104.096941 0)scale(0.996264)" xlink:href="#CMSS17-114"/>
     <use transform="translate(136.006714 0)scale(0.996264)" xlink:href="#CMSS17-114"/>
     <use transform="translate(199.145599 0)scale(0.996264)" xlink:href="#CMSS17-61"/>
     <use transform="translate(303.242647 0)scale(0.996264)" xlink:href="#CMSS17-48"/>
     <use transform="translate(350.08627 0)scale(0.996264)" xlink:href="#CMSS17-46"/>
     <use transform="translate(376.110475 0)scale(0.996264)" xlink:href="#CMSS17-53"/>
    </g>
   </g>
  </g>
  <g id="axes_2">
   <g id="patch_7">
    <path d="M 223.862095 117.818809 
L 300.435373 117.818809 
L 300.435373 44.3733 
L 223.862095 44.3733 
z
" style="fill:#ffffff;"/>
   </g>
   <g id="matplotlib.axis_3">
    <g id="xtick_2">
     <g id="line2d_9">
      <g>
       <use style="fill:#262626;stroke:#262626;stroke-width:2.5;" x="296.95477" xlink:href="#mc1281702e9" y="117.818809"/>
      </g>
     </g>
    </g>
   </g>
   <g id="matplotlib.axis_4">
    <g id="ytick_4">
     <g id="line2d_10">
      <g>
       <use style="fill:#262626;stroke:#262626;stroke-width:2.5;" x="223.862095" xlink:href="#m4167a98b67" y="110.879809"/>
      </g>
     </g>
    </g>
    <g id="ytick_5">
     <g id="line2d_11">
      <g>
       <use style="fill:#262626;stroke:#262626;stroke-width:2.5;" x="223.862095" xlink:href="#m4167a98b67" y="87.711082"/>
      </g>
     </g>
    </g>
    <g id="ytick_6">
     <g id="line2d_12">
      <g>
       <use style="fill:#262626;stroke:#262626;stroke-width:2.5;" x="223.862095" xlink:href="#m4167a98b67" y="64.542356"/>
      </g>
     </g>
    </g>
   </g>
   <g id="line2d_13">
    <path clip-path="url(#p0f5e07ba37)" d="M 296.95477 47.711732 
L 295.534115 48.913832 
L 294.113461 50.608186 
L 292.692806 53.600745 
L 291.272152 57.443326 
L 289.851497 60.922602 
L 288.430843 64.309303 
L 287.010188 68.320523 
L 285.589534 71.972121 
L 284.168879 75.372775 
L 282.748225 78.530616 
L 281.32757 81.476692 
L 279.906916 84.030962 
L 278.486261 86.211067 
L 277.065607 88.221047 
L 275.644952 90.053618 
L 274.224298 91.679033 
L 272.803643 92.9484 
L 271.382989 93.929116 
L 269.962334 94.674474 
L 268.54168 95.242136 
L 267.121025 95.68194 
L 265.700371 95.966389 
L 264.279716 96.106432 
L 262.859062 96.115011 
L 261.438407 95.996868 
L 260.017753 95.789857 
L 258.597098 95.512615 
L 257.176444 95.168957 
L 255.755789 94.785281 
L 254.335135 94.365654 
L 252.91448 93.888755 
L 251.493826 93.377496 
L 250.073171 92.85252 
L 248.652517 92.310386 
L 247.231862 91.752919 
L 245.811207 91.210826 
L 244.390553 90.677487 
L 242.969898 90.154474 
L 241.549244 89.640257 
L 240.128589 89.14494 
L 238.707935 88.665435 
L 237.28728 88.199539 
L 235.866626 87.745759 
L 234.445971 87.309102 
L 233.025317 86.890701 
L 231.604662 86.491314 
L 230.184008 86.111971 
L 228.763353 85.752598 
L 227.342699 85.412464 
" style="fill:none;stroke:#0173b2;stroke-linecap:round;"/>
   </g>
   <g id="line2d_14">
    <path clip-path="url(#p0f5e07ba37)" d="M 262.859062 117.818809 
L 262.859062 44.3733 
" style="fill:none;stroke:#0173b2;stroke-dasharray:7.4,3.2;stroke-dashoffset:0;stroke-width:2;"/>
   </g>
   <g id="line2d_15">
    <path clip-path="url(#p0f5e07ba37)" d="M 296.95477 54.481218 
L 295.534115 62.400508 
L 294.113461 70.667156 
L 292.692806 77.235826 
L 291.272152 72.563626 
L 289.851497 81.310589 
L 288.430843 87.0939 
L 287.010188 89.894393 
L 285.589534 93.673673 
L 284.168879 97.707418 
L 282.748225 97.801083 
L 281.32757 98.609296 
L 279.906916 99.963243 
L 278.486261 100.252376 
L 277.065607 99.74857 
L 275.644952 101.502427 
L 274.224298 100.819901 
L 272.803643 104.241355 
L 271.382989 103.555213 
L 269.962334 101.554195 
L 268.54168 101.065021 
L 267.121025 99.767784 
L 265.700371 98.498311 
L 264.279716 96.925609 
L 262.859062 92.817725 
L 261.438407 92.305582 
L 260.017753 91.621231 
L 258.597098 89.903547 
L 257.176444 86.107376 
L 255.755789 87.220691 
L 254.335135 83.381482 
L 252.91448 81.690973 
L 251.493826 81.394431 
L 250.073171 80.175791 
L 248.652517 79.87619 
L 247.231862 76.95276 
L 245.811207 79.075842 
L 244.390553 76.04759 
L 242.969898 72.821766 
L 241.549244 78.129825 
L 240.128589 75.325861 
L 238.707935 74.029914 
L 237.28728 70.972386 
L 235.866626 71.533025 
L 234.445971 69.230346 
L 233.025317 73.886109 
L 231.604662 75.212803 
L 230.184008 71.345654 
L 228.763353 67.261789 
L 227.342699 74.518275 
" style="fill:none;stroke:#de8f05;stroke-linecap:round;"/>
   </g>
   <g id="line2d_16">
    <path clip-path="url(#p0f5e07ba37)" d="M 272.803643 117.818809 
L 272.803643 44.3733 
" style="fill:none;stroke:#de8f05;stroke-dasharray:7.4,3.2;stroke-dashoffset:0;stroke-width:2;"/>
   </g>
   <g id="patch_8">
    <path d="M 223.862095 117.818809 
L 223.862095 44.3733 
" style="fill:none;stroke:#262626;stroke-linecap:square;stroke-linejoin:miter;stroke-width:2.5;"/>
   </g>
   <g id="patch_9">
    <path d="M 300.435373 117.818809 
L 300.435373 44.3733 
" style="fill:none;stroke:#262626;stroke-linecap:square;stroke-linejoin:miter;stroke-width:2.5;"/>
   </g>
   <g id="patch_10">
    <path d="M 223.862095 117.818809 
L 300.435373 117.818809 
" style="fill:none;stroke:#262626;stroke-linecap:square;stroke-linejoin:miter;stroke-width:2.5;"/>
   </g>
   <g id="patch_11">
    <path d="M 223.862095 44.3733 
L 300.435373 44.3733 
" style="fill:none;stroke:#262626;stroke-linecap:square;stroke-linejoin:miter;stroke-width:2.5;"/>
   </g>
   <g id="text_6">
    <!-- Corr = 0.7 -->
    <g style="fill:#262626;" transform="translate(224.082886 38.3733)scale(0.18 -0.18)">
     <defs>
      <path d="M 21.703125 59.1875 
C 22.90625 59.1875 24.09375 59.296875 25.296875 59.296875 
L 36.796875 59.296875 
C 22.5 42.421875 14.296875 21.09375 14.296875 -1 
L 22.296875 -1 
C 22.296875 20.390625 29.296875 42.109375 43 59.484375 
L 43 66 
L 3.90625 66 
L 3.90625 59.1875 
z
" id="CMSS17-55"/>
     </defs>
     <use transform="scale(0.996264)" xlink:href="#CMSS17-67"/>
     <use transform="translate(59.855772 0)scale(0.996264)" xlink:href="#CMSS17-111"/>
     <use transform="translate(104.096941 0)scale(0.996264)" xlink:href="#CMSS17-114"/>
     <use transform="translate(136.006714 0)scale(0.996264)" xlink:href="#CMSS17-114"/>
     <use transform="translate(199.145599 0)scale(0.996264)" xlink:href="#CMSS17-61"/>
     <use transform="translate(303.242647 0)scale(0.996264)" xlink:href="#CMSS17-48"/>
     <use transform="translate(350.08627 0)scale(0.996264)" xlink:href="#CMSS17-46"/>
     <use transform="translate(376.110475 0)scale(0.996264)" xlink:href="#CMSS17-55"/>
    </g>
   </g>
  </g>
  <g id="axes_3">
   <g id="patch_12">
    <path d="M 345.241397 117.818809 
L 421.814675 117.818809 
L 421.814675 44.3733 
L 345.241397 44.3733 
z
" style="fill:#ffffff;"/>
   </g>
   <g id="matplotlib.axis_5">
    <g id="xtick_3">
     <g id="line2d_17">
      <g>
       <use style="fill:#262626;stroke:#262626;stroke-width:2.5;" x="418.334072" xlink:href="#mc1281702e9" y="117.818809"/>
      </g>
     </g>
    </g>
   </g>
   <g id="matplotlib.axis_6">
    <g id="ytick_7">
     <g id="line2d_18">
      <g>
       <use style="fill:#262626;stroke:#262626;stroke-width:2.5;" x="345.241397" xlink:href="#m4167a98b67" y="110.879809"/>
      </g>
     </g>
    </g>
    <g id="ytick_8">
     <g id="line2d_19">
      <g>
       <use style="fill:#262626;stroke:#262626;stroke-width:2.5;" x="345.241397" xlink:href="#m4167a98b67" y="87.711082"/>
      </g>
     </g>
    </g>
    <g id="ytick_9">
     <g id="line2d_20">
      <g>
       <use style="fill:#262626;stroke:#262626;stroke-width:2.5;" x="345.241397" xlink:href="#m4167a98b67" y="64.542356"/>
      </g>
     </g>
    </g>
   </g>
   <g id="line2d_21">
    <path clip-path="url(#pbfb2b39e05)" d="M 418.334072 77.657666 
L 416.913417 78.426711 
L 415.492762 79.751764 
L 414.072108 81.51327 
L 412.651453 83.138317 
L 411.230799 84.778006 
L 409.810144 86.719816 
L 408.38949 88.484184 
L 406.968835 90.107493 
L 405.548181 92.004784 
L 404.127526 94.193556 
L 402.706872 96.319913 
L 401.286217 98.249065 
L 399.865563 100.122141 
L 398.444908 101.784559 
L 397.024254 103.223612 
L 395.603599 104.461296 
L 394.182945 105.540081 
L 392.76229 106.504886 
L 391.341636 107.340348 
L 389.920981 108.057382 
L 388.500327 108.653792 
L 387.079672 109.139962 
L 385.659018 109.529516 
L 384.238363 109.833694 
L 382.817709 110.048469 
L 381.397054 110.183486 
L 379.9764 110.22774 
L 378.555745 110.175045 
L 377.135091 110.044815 
L 375.714436 109.854583 
L 374.293782 109.590721 
L 372.873127 109.252226 
L 371.452473 108.869006 
L 370.031818 108.449106 
L 368.611164 107.972456 
L 367.190509 107.444533 
L 365.769855 106.871387 
L 364.3492 106.258545 
L 362.928546 105.617379 
L 361.507891 104.971626 
L 360.087237 104.315153 
L 358.666582 103.646121 
L 357.245927 102.965103 
L 355.825273 102.276289 
L 354.404618 101.586453 
L 352.983964 100.907835 
L 351.563309 100.240794 
L 350.142655 99.592713 
L 348.722 98.961142 
" style="fill:none;stroke:#0173b2;stroke-linecap:round;"/>
   </g>
   <g id="line2d_22">
    <path clip-path="url(#pbfb2b39e05)" d="M 379.9764 117.818809 
L 379.9764 44.3733 
" style="fill:none;stroke:#0173b2;stroke-dasharray:7.4,3.2;stroke-dashoffset:0;stroke-width:2;"/>
   </g>
   <g id="line2d_23">
    <path clip-path="url(#pbfb2b39e05)" d="M 418.334072 84.393501 
L 416.913417 90.221885 
L 415.492762 91.947082 
L 414.072108 92.661479 
L 412.651453 90.475297 
L 411.230799 95.236038 
L 409.810144 98.954633 
L 408.38949 97.597439 
L 406.968835 102.131298 
L 405.548181 103.997836 
L 404.127526 103.209662 
L 402.706872 107.787033 
L 401.286217 108.307172 
L 399.865563 108.04762 
L 398.444908 111.944985 
L 397.024254 113.4043 
L 395.603599 111.355098 
L 394.182945 113.573137 
L 392.76229 112.918195 
L 391.341636 113.450447 
L 389.920981 113.573184 
L 388.500327 112.99934 
L 387.079672 112.594529 
L 385.659018 112.161019 
L 384.238363 110.980424 
L 382.817709 110.515317 
L 381.397054 111.60055 
L 379.9764 108.327287 
L 378.555745 108.84627 
L 377.135091 108.535971 
L 375.714436 106.198526 
L 374.293782 104.623502 
L 372.873127 103.324836 
L 371.452473 103.578564 
L 370.031818 101.251456 
L 368.611164 99.656245 
L 367.190509 96.836283 
L 365.769855 96.828235 
L 364.3492 96.552465 
L 362.928546 96.146289 
L 361.507891 93.602769 
L 360.087237 96.853742 
L 358.666582 95.75958 
L 357.245927 93.037469 
L 355.825273 91.608016 
L 354.404618 90.15892 
L 352.983964 89.528824 
L 351.563309 89.693513 
L 350.142655 92.47817 
L 348.722 87.183519 
" style="fill:none;stroke:#de8f05;stroke-linecap:round;"/>
   </g>
   <g id="line2d_24">
    <path clip-path="url(#pbfb2b39e05)" d="M 389.920981 117.818809 
L 389.920981 44.3733 
" style="fill:none;stroke:#de8f05;stroke-dasharray:7.4,3.2;stroke-dashoffset:0;stroke-width:2;"/>
   </g>
   <g id="patch_13">
    <path d="M 345.241397 117.818809 
L 345.241397 44.3733 
" style="fill:none;stroke:#262626;stroke-linecap:square;stroke-linejoin:miter;stroke-width:2.5;"/>
   </g>
   <g id="patch_14">
    <path d="M 421.814675 117.818809 
L 421.814675 44.3733 
" style="fill:none;stroke:#262626;stroke-linecap:square;stroke-linejoin:miter;stroke-width:2.5;"/>
   </g>
   <g id="patch_15">
    <path d="M 345.241397 117.818809 
L 421.814675 117.818809 
" style="fill:none;stroke:#262626;stroke-linecap:square;stroke-linejoin:miter;stroke-width:2.5;"/>
   </g>
   <g id="patch_16">
    <path d="M 345.241397 44.3733 
L 421.814675 44.3733 
" style="fill:none;stroke:#262626;stroke-linecap:square;stroke-linejoin:miter;stroke-width:2.5;"/>
   </g>
   <g id="text_7">
    <!-- Corr = 0.9 -->
    <g style="fill:#262626;" transform="translate(345.462188 38.3733)scale(0.18 -0.18)">
     <defs>
      <path d="M 6.796875 2.6875 
C 9.59375 0.296875 13.203125 -2 19.296875 -2 
C 31.40625 -2 43 11.53125 43 33.375 
C 43 62.296875 30.5 67 23.796875 67 
C 17.09375 67 12.796875 63.984375 9.09375 59.203125 
C 4.703125 53.71875 3.90625 48.828125 3.90625 43.140625 
C 3.90625 36.359375 5.09375 32.171875 7.90625 27.390625 
C 11.703125 21.1875 15.203125 19.890625 19.09375 19.890625 
C 25 19.890625 30.90625 22.796875 34.90625 27.78125 
C 34.203125 14.1875 28.09375 4.1875 19.296875 4.1875 
C 15.703125 4.1875 12.796875 5.3125 9.90625 8.0625 
z
M 34.59375 43.34375 
C 34.703125 42.640625 34.703125 41.34375 34.703125 40.953125 
C 34.703125 32.578125 29.90625 26 22.90625 26 
C 18.296875 26 15.90625 28.390625 14.09375 31.484375 
C 11.90625 35.359375 11.796875 39.15625 11.796875 43.140625 
C 11.796875 47.03125 11.796875 51.3125 14.59375 55.609375 
C 16.703125 58.703125 19.296875 60.890625 23.796875 60.890625 
C 33 60.890625 34.5 47.4375 34.59375 43.34375 
z
" id="CMSS17-57"/>
     </defs>
     <use transform="scale(0.996264)" xlink:href="#CMSS17-67"/>
     <use transform="translate(59.855772 0)scale(0.996264)" xlink:href="#CMSS17-111"/>
     <use transform="translate(104.096941 0)scale(0.996264)" xlink:href="#CMSS17-114"/>
     <use transform="translate(136.006714 0)scale(0.996264)" xlink:href="#CMSS17-114"/>
     <use transform="translate(199.145599 0)scale(0.996264)" xlink:href="#CMSS17-61"/>
     <use transform="translate(303.242647 0)scale(0.996264)" xlink:href="#CMSS17-48"/>
     <use transform="translate(350.08627 0)scale(0.996264)" xlink:href="#CMSS17-46"/>
     <use transform="translate(376.110475 0)scale(0.996264)" xlink:href="#CMSS17-57"/>
    </g>
   </g>
  </g>
  <g id="axes_4">
   <g id="patch_17">
    <path d="M 466.620698 117.818809 
L 543.193977 117.818809 
L 543.193977 44.3733 
L 466.620698 44.3733 
z
" style="fill:#ffffff;"/>
   </g>
   <g id="matplotlib.axis_7">
    <g id="xtick_4">
     <g id="line2d_25">
      <g>
       <use style="fill:#262626;stroke:#262626;stroke-width:2.5;" x="539.713373" xlink:href="#mc1281702e9" y="117.818809"/>
      </g>
     </g>
    </g>
   </g>
   <g id="matplotlib.axis_8">
    <g id="ytick_10">
     <g id="line2d_26">
      <g>
       <use style="fill:#262626;stroke:#262626;stroke-width:2.5;" x="466.620698" xlink:href="#m4167a98b67" y="110.879809"/>
      </g>
     </g>
    </g>
    <g id="ytick_11">
     <g id="line2d_27">
      <g>
       <use style="fill:#262626;stroke:#262626;stroke-width:2.5;" x="466.620698" xlink:href="#m4167a98b67" y="87.711082"/>
      </g>
     </g>
    </g>
    <g id="ytick_12">
     <g id="line2d_28">
      <g>
       <use style="fill:#262626;stroke:#262626;stroke-width:2.5;" x="466.620698" xlink:href="#m4167a98b67" y="64.542356"/>
      </g>
     </g>
    </g>
   </g>
   <g id="line2d_29">
    <path clip-path="url(#p7a19185b63)" d="M 539.713373 81.130341 
L 538.292719 82.165468 
L 536.872064 84.122641 
L 535.45141 86.910349 
L 534.030755 89.39744 
L 532.610101 91.658136 
L 531.189446 93.957879 
L 529.768791 95.973185 
L 528.348137 97.86883 
L 526.927482 99.54254 
L 525.506828 101.02797 
L 524.086173 102.408698 
L 522.665519 103.675192 
L 521.244864 104.82028 
L 519.82421 105.814489 
L 518.403555 106.693033 
L 516.982901 107.487466 
L 515.562246 108.304532 
L 514.141592 109.038069 
L 512.720937 109.744861 
L 511.300283 110.393835 
L 509.879628 110.928218 
L 508.458974 111.39506 
L 507.038319 111.810474 
L 505.617665 112.214675 
L 504.19701 112.552496 
L 502.776356 112.842237 
L 501.355701 113.084923 
L 499.935047 113.289162 
L 498.514392 113.467204 
L 497.093738 113.602936 
L 495.673083 113.703499 
L 494.252429 113.78573 
L 492.831774 113.847048 
L 491.41112 113.884562 
L 489.990465 113.89386 
L 488.569811 113.877395 
L 487.149156 113.83168 
L 485.728502 113.744136 
L 484.307847 113.624832 
L 482.887193 113.48281 
L 481.466538 113.314296 
L 480.045884 113.118359 
L 478.625229 112.900781 
L 477.204575 112.666335 
L 475.78392 112.401892 
L 474.363266 112.106042 
L 472.942611 111.797407 
L 471.521956 111.477582 
L 470.101302 111.139179 
" style="fill:none;stroke:#0173b2;stroke-linecap:round;"/>
   </g>
   <g id="line2d_30">
    <path clip-path="url(#p7a19185b63)" d="M 489.990465 117.818809 
L 489.990465 44.3733 
" style="fill:none;stroke:#0173b2;stroke-dasharray:7.4,3.2;stroke-dashoffset:0;stroke-width:2;"/>
   </g>
   <g id="line2d_31">
    <path clip-path="url(#p7a19185b63)" d="M 539.713373 83.982064 
L 538.292719 87.920192 
L 536.872064 100.066994 
L 535.45141 104.275565 
L 534.030755 105.250686 
L 532.610101 105.500531 
L 531.189446 109.534869 
L 529.768791 108.744998 
L 528.348137 106.317039 
L 526.927482 107.540275 
L 525.506828 109.420493 
L 524.086173 109.778198 
L 522.665519 111.70628 
L 521.244864 109.359796 
L 519.82421 110.861229 
L 518.403555 111.860485 
L 516.982901 111.420013 
L 515.562246 112.117008 
L 514.141592 113.081755 
L 512.720937 111.893135 
L 511.300283 113.667111 
L 509.879628 114.480377 
L 508.458974 113.992585 
L 507.038319 114.392676 
L 505.617665 114.075668 
L 504.19701 113.977079 
L 502.776356 113.984971 
L 501.355701 114.138769 
L 499.935047 114.268046 
L 498.514392 114.137655 
L 497.093738 113.007582 
L 495.673083 113.353974 
L 494.252429 112.806163 
L 492.831774 112.294263 
L 491.41112 111.927745 
L 489.990465 111.84461 
L 488.569811 111.364107 
L 487.149156 109.979969 
L 485.728502 110.306553 
L 484.307847 109.794047 
L 482.887193 109.30589 
L 481.466538 106.920235 
L 480.045884 105.47731 
L 478.625229 105.572823 
L 477.204575 104.258413 
L 475.78392 101.927298 
L 474.363266 100.043503 
L 472.942611 102.068725 
L 471.521956 99.568065 
L 470.101302 97.76147 
" style="fill:none;stroke:#de8f05;stroke-linecap:round;"/>
   </g>
   <g id="line2d_32">
    <path clip-path="url(#p7a19185b63)" d="M 509.879628 117.818809 
L 509.879628 44.3733 
" style="fill:none;stroke:#de8f05;stroke-dasharray:7.4,3.2;stroke-dashoffset:0;stroke-width:2;"/>
   </g>
   <g id="patch_18">
    <path d="M 466.620698 117.818809 
L 466.620698 44.3733 
" style="fill:none;stroke:#262626;stroke-linecap:square;stroke-linejoin:miter;stroke-width:2.5;"/>
   </g>
   <g id="patch_19">
    <path d="M 543.193977 117.818809 
L 543.193977 44.3733 
" style="fill:none;stroke:#262626;stroke-linecap:square;stroke-linejoin:miter;stroke-width:2.5;"/>
   </g>
   <g id="patch_20">
    <path d="M 466.620698 117.818809 
L 543.193977 117.818809 
" style="fill:none;stroke:#262626;stroke-linecap:square;stroke-linejoin:miter;stroke-width:2.5;"/>
   </g>
   <g id="patch_21">
    <path d="M 466.620698 44.3733 
L 543.193977 44.3733 
" style="fill:none;stroke:#262626;stroke-linecap:square;stroke-linejoin:miter;stroke-width:2.5;"/>
   </g>
   <g id="text_8">
    <!-- Corr = 0.99 -->
    <g style="fill:#262626;" transform="translate(462.625564 38.3733)scale(0.18 -0.18)">
     <use transform="scale(0.996264)" xlink:href="#CMSS17-67"/>
     <use transform="translate(59.855772 0)scale(0.996264)" xlink:href="#CMSS17-111"/>
     <use transform="translate(104.096941 0)scale(0.996264)" xlink:href="#CMSS17-114"/>
     <use transform="translate(136.006714 0)scale(0.996264)" xlink:href="#CMSS17-114"/>
     <use transform="translate(199.145599 0)scale(0.996264)" xlink:href="#CMSS17-61"/>
     <use transform="translate(303.242647 0)scale(0.996264)" xlink:href="#CMSS17-48"/>
     <use transform="translate(350.08627 0)scale(0.996264)" xlink:href="#CMSS17-46"/>
     <use transform="translate(376.110475 0)scale(0.996264)" xlink:href="#CMSS17-57"/>
     <use transform="translate(422.954099 0)scale(0.996264)" xlink:href="#CMSS17-57"/>
    </g>
   </g>
  </g>
  <g id="axes_5">
   <g id="patch_22">
    <path d="M 102.482794 235.262346 
L 179.056072 235.262346 
L 179.056072 161.816837 
L 102.482794 161.816837 
z
" style="fill:#ffffff;"/>
   </g>
   <g id="matplotlib.axis_9">
    <g id="xtick_5">
     <g id="line2d_33">
      <g>
       <use style="fill:#262626;stroke:#262626;stroke-width:2.5;" x="175.575468" xlink:href="#mc1281702e9" y="235.262346"/>
      </g>
     </g>
    </g>
   </g>
   <g id="matplotlib.axis_10">
    <g id="ytick_13">
     <g id="line2d_34">
      <g>
       <use style="fill:#262626;stroke:#262626;stroke-width:2.5;" x="102.482794" xlink:href="#m4167a98b67" y="234.173794"/>
      </g>
     </g>
     <g id="text_9">
      <!-- $\mathdefault{0}$ -->
      <g style="fill:#262626;" transform="translate(78.758508 240.400444)scale(0.18 -0.18)">
       <use transform="scale(0.996264)" xlink:href="#CMR17-48"/>
      </g>
     </g>
    </g>
    <g id="ytick_14">
     <g id="line2d_35">
      <g>
       <use style="fill:#262626;stroke:#262626;stroke-width:2.5;" x="102.482794" xlink:href="#m4167a98b67" y="161.928409"/>
      </g>
     </g>
     <g id="text_10">
      <!-- $\mathdefault{10000}$ -->
      <g style="fill:#262626;" transform="translate(45.861364 168.155059)scale(0.18 -0.18)">
       <defs>
        <path d="M 26.59375 63.796875 
C 26.59375 65.890625 26.5 66 25.09375 66 
C 21.203125 61.359375 15.296875 59.890625 9.703125 59.6875 
C 9.40625 59.6875 8.90625 59.6875 8.796875 59.5 
C 8.703125 59.296875 8.703125 59.09375 8.703125 57 
C 11.796875 57 17 57.59375 21 59.984375 
L 21 7.296875 
C 21 3.796875 20.796875 2.59375 12.203125 2.59375 
L 9.203125 2.59375 
L 9.203125 0 
C 14 0.09375 19 0.1875 23.796875 0.1875 
C 28.59375 0.1875 33.59375 0.09375 38.40625 0 
L 38.40625 2.59375 
L 35.40625 2.59375 
C 26.796875 2.59375 26.59375 3.6875 26.59375 7.296875 
z
" id="CMR17-49"/>
       </defs>
       <use transform="scale(0.996264)" xlink:href="#CMR17-49"/>
       <use transform="translate(45.690477 0)scale(0.996264)" xlink:href="#CMR17-48"/>
       <use transform="translate(91.380954 0)scale(0.996264)" xlink:href="#CMR17-48"/>
       <use transform="translate(137.071431 0)scale(0.996264)" xlink:href="#CMR17-48"/>
       <use transform="translate(182.761908 0)scale(0.996264)" xlink:href="#CMR17-48"/>
      </g>
     </g>
    </g>
    <g id="text_11">
     <!-- SURE -->
     <g style="fill:#262626;" transform="translate(38.3733 219.464252)rotate(-90)scale(0.18 -0.18)">
      <defs>
       <path d="M 55.5 69 
L 47.90625 69 
L 47.90625 22.796875 
C 47.90625 9.5 39.796875 3.59375 32.40625 3.59375 
C 24.796875 3.59375 17.203125 9.796875 17.203125 22.6875 
L 17.203125 69 
L 8.796875 69 
L 8.796875 22.890625 
C 8.796875 8.5 19.90625 -2 32.296875 -2 
C 44.703125 -2 55.5 8.5 55.5 22.890625 
z
" id="CMSS17-85"/>
       <path d="M 39.40625 32.796875 
L 39.59375 32.890625 
C 55.203125 38.28125 55.296875 48.828125 55.296875 50.6875 
C 55.296875 59.96875 45.703125 69 31.296875 69 
L 8.90625 69 
L 8.90625 0 
L 17.09375 0 
L 17.09375 31.890625 
L 31.796875 31.890625 
L 49.5 0 
L 57.90625 0 
z
M 17.09375 38 
L 17.09375 63.390625 
L 30.203125 63.390625 
C 42.90625 63.390625 47.40625 56.359375 47.40625 50.6875 
C 47.40625 45.421875 43.40625 38 30.203125 38 
z
" id="CMSS17-82"/>
      </defs>
      <use transform="scale(0.996264)" xlink:href="#CMSS17-83"/>
      <use transform="translate(52.048516 0)scale(0.996264)" xlink:href="#CMSS17-85"/>
      <use transform="translate(116.188256 0)scale(0.996264)" xlink:href="#CMSS17-82"/>
      <use transform="translate(176.604411 0)scale(0.996264)" xlink:href="#CMSS17-69"/>
     </g>
    </g>
   </g>
   <g id="line2d_36">
    <path clip-path="url(#pd496a05623)" d="M 175.575468 184.658951 
L 174.154814 186.464198 
L 172.734159 189.213769 
L 171.313505 192.415978 
L 169.89285 195.132702 
L 168.472196 197.436282 
L 167.051541 199.352346 
L 165.630887 202.631038 
L 164.210232 206.318173 
L 162.789578 209.460867 
L 161.368923 212.131084 
L 159.948269 214.404963 
L 158.527614 216.376166 
L 157.10696 218.057926 
L 155.686305 219.324064 
L 154.265651 220.32552 
L 152.844996 221.503045 
L 151.424342 222.542305 
L 150.003687 223.253591 
L 148.583033 223.708566 
L 147.162378 224.011235 
L 145.741724 224.303085 
L 144.321069 224.494074 
L 142.900415 224.617925 
L 141.47976 224.621982 
L 140.059106 224.554839 
L 138.638451 224.434792 
L 137.217797 224.222937 
L 135.797142 223.95561 
L 134.376487 223.664064 
L 132.955833 223.351488 
L 131.535178 223.007838 
L 130.114524 222.63617 
L 128.693869 222.247565 
L 127.273215 221.860978 
L 125.85256 221.468375 
L 124.431906 221.070445 
L 123.011251 220.669319 
L 121.590597 220.270286 
L 120.169942 219.878404 
L 118.749288 219.496379 
L 117.328633 219.125978 
L 115.907979 218.769972 
L 114.487324 218.429337 
L 113.06667 218.09896 
L 111.646015 217.782223 
L 110.225361 217.479954 
L 108.804706 217.192636 
L 107.384052 216.921831 
L 105.963397 216.665806 
" style="fill:none;stroke:#0173b2;stroke-linecap:round;"/>
   </g>
   <g id="line2d_37">
    <path clip-path="url(#pd496a05623)" d="M 141.47976 235.262346 
L 141.47976 161.816837 
" style="fill:none;stroke:#0173b2;stroke-dasharray:7.4,3.2;stroke-dashoffset:0;stroke-width:2;"/>
   </g>
   <g id="line2d_38">
    <path clip-path="url(#pd496a05623)" d="M 175.575468 184.660245 
L 174.154814 195.826551 
L 172.734159 209.289202 
L 171.313505 209.408193 
L 169.89285 209.500166 
L 168.472196 217.864269 
L 167.051541 216.214091 
L 165.630887 226.350213 
L 164.210232 226.452114 
L 162.789578 226.528497 
L 161.368923 226.586202 
L 159.948269 226.629188 
L 158.527614 226.660463 
L 157.10696 226.682405 
L 155.686305 226.69692 
L 154.265651 225.354214 
L 152.844996 229.394991 
L 151.424342 229.214677 
L 150.003687 227.570986 
L 148.583033 225.657897 
L 147.162378 223.38636 
L 145.741724 221.864374 
L 144.321069 220.159631 
L 142.900415 218.889718 
L 141.47976 217.961949 
L 140.059106 218.910421 
L 138.638451 218.234177 
L 137.217797 218.037226 
L 135.797142 218.085371 
L 134.376487 218.038749 
L 132.955833 218.144701 
L 131.535178 218.103409 
L 130.114524 217.859901 
L 128.693869 217.535279 
L 127.273215 217.184683 
L 125.85256 217.021608 
L 124.431906 216.884067 
L 123.011251 216.718706 
L 121.590597 216.525926 
L 120.169942 216.323356 
L 118.749288 216.101143 
L 117.328633 215.889956 
L 115.907979 215.707165 
L 114.487324 215.532736 
L 113.06667 215.38693 
L 111.646015 215.236479 
L 110.225361 215.099435 
L 108.804706 214.969784 
L 107.384052 214.841214 
L 105.963397 214.737092 
" style="fill:none;stroke:#de8f05;stroke-linecap:round;"/>
   </g>
   <g id="line2d_39">
    <path clip-path="url(#pd496a05623)" d="M 152.844996 235.262346 
L 152.844996 161.816837 
" style="fill:none;stroke:#de8f05;stroke-dasharray:7.4,3.2;stroke-dashoffset:0;stroke-width:2;"/>
   </g>
   <g id="patch_23">
    <path d="M 102.482794 235.262346 
L 102.482794 161.816837 
" style="fill:none;stroke:#262626;stroke-linecap:square;stroke-linejoin:miter;stroke-width:2.5;"/>
   </g>
   <g id="patch_24">
    <path d="M 179.056072 235.262346 
L 179.056072 161.816837 
" style="fill:none;stroke:#262626;stroke-linecap:square;stroke-linejoin:miter;stroke-width:2.5;"/>
   </g>
   <g id="patch_25">
    <path d="M 102.482794 235.262346 
L 179.056072 235.262346 
" style="fill:none;stroke:#262626;stroke-linecap:square;stroke-linejoin:miter;stroke-width:2.5;"/>
   </g>
   <g id="patch_26">
    <path d="M 102.482794 161.816837 
L 179.056072 161.816837 
" style="fill:none;stroke:#262626;stroke-linecap:square;stroke-linejoin:miter;stroke-width:2.5;"/>
   </g>
  </g>
  <g id="axes_6">
   <g id="patch_27">
    <path d="M 223.862095 235.262346 
L 300.435373 235.262346 
L 300.435373 161.816837 
L 223.862095 161.816837 
z
" style="fill:#ffffff;"/>
   </g>
   <g id="matplotlib.axis_11">
    <g id="xtick_6">
     <g id="line2d_40">
      <g>
       <use style="fill:#262626;stroke:#262626;stroke-width:2.5;" x="296.95477" xlink:href="#mc1281702e9" y="235.262346"/>
      </g>
     </g>
    </g>
   </g>
   <g id="matplotlib.axis_12">
    <g id="ytick_15">
     <g id="line2d_41">
      <g>
       <use style="fill:#262626;stroke:#262626;stroke-width:2.5;" x="223.862095" xlink:href="#m4167a98b67" y="234.173794"/>
      </g>
     </g>
    </g>
    <g id="ytick_16">
     <g id="line2d_42">
      <g>
       <use style="fill:#262626;stroke:#262626;stroke-width:2.5;" x="223.862095" xlink:href="#m4167a98b67" y="161.928409"/>
      </g>
     </g>
    </g>
   </g>
   <g id="line2d_43">
    <path clip-path="url(#p4db03599a2)" d="M 296.95477 165.15527 
L 295.534115 166.369997 
L 294.113461 169.386618 
L 292.692806 173.655899 
L 291.272152 179.507144 
L 289.851497 184.657171 
L 288.430843 189.067111 
L 287.010188 192.842575 
L 285.589534 197.483564 
L 284.168879 201.643177 
L 282.748225 205.191217 
L 281.32757 208.214635 
L 279.906916 210.787918 
L 278.486261 212.915039 
L 277.065607 215.456042 
L 275.644952 217.628432 
L 274.224298 219.230681 
L 272.803643 220.365473 
L 271.382989 221.17832 
L 269.962334 221.595937 
L 268.54168 221.973043 
L 267.121025 222.322991 
L 265.700371 222.521201 
L 264.279716 222.540825 
L 262.859062 222.471544 
L 261.438407 222.44346 
L 260.017753 222.298321 
L 258.597098 222.081005 
L 257.176444 221.824157 
L 255.755789 221.526987 
L 254.335135 221.209734 
L 252.91448 220.850862 
L 251.493826 220.454999 
L 250.073171 220.021855 
L 248.652517 219.567319 
L 247.231862 219.102206 
L 245.811207 218.627749 
L 244.390553 218.14582 
L 242.969898 217.660287 
L 241.549244 217.178839 
L 240.128589 216.70172 
L 238.707935 216.230131 
L 237.28728 215.762567 
L 235.866626 215.302985 
L 234.445971 214.854789 
L 233.025317 214.418367 
L 231.604662 213.996294 
L 230.184008 213.589588 
L 228.763353 213.198988 
L 227.342699 212.825065 
" style="fill:none;stroke:#0173b2;stroke-linecap:round;"/>
   </g>
   <g id="line2d_44">
    <path clip-path="url(#p4db03599a2)" d="M 264.279716 235.262346 
L 264.279716 161.816837 
" style="fill:none;stroke:#0173b2;stroke-dasharray:7.4,3.2;stroke-dashoffset:0;stroke-width:2;"/>
   </g>
   <g id="line2d_45">
    <path clip-path="url(#p4db03599a2)" d="M 296.95477 165.15527 
L 295.534115 185.880816 
L 294.113461 185.972417 
L 292.692806 202.038345 
L 291.272152 213.53576 
L 289.851497 213.711162 
L 288.430843 213.846189 
L 287.010188 213.951697 
L 285.589534 224.349792 
L 284.168879 224.452632 
L 282.748225 224.531208 
L 281.32757 224.590819 
L 279.906916 224.635303 
L 278.486261 222.969014 
L 277.065607 229.538411 
L 275.644952 229.578573 
L 274.224298 229.603751 
L 272.803643 228.668946 
L 271.382989 227.339884 
L 269.962334 223.244009 
L 268.54168 221.508502 
L 267.121025 220.284057 
L 265.700371 217.64276 
L 264.279716 217.879679 
L 262.859062 217.315219 
L 261.438407 216.515942 
L 260.017753 214.419542 
L 258.597098 214.284178 
L 257.176444 213.682237 
L 255.755789 214.199944 
L 254.335135 214.031575 
L 252.91448 213.974248 
L 251.493826 214.565761 
L 250.073171 214.246068 
L 248.652517 213.782844 
L 247.231862 213.512964 
L 245.811207 213.320116 
L 244.390553 213.065179 
L 242.969898 212.758429 
L 241.549244 212.482282 
L 240.128589 212.215189 
L 238.707935 211.95448 
L 237.28728 211.696208 
L 235.866626 211.480267 
L 234.445971 211.261884 
L 233.025317 211.060088 
L 231.604662 210.855144 
L 230.184008 210.700981 
L 228.763353 210.548548 
L 227.342699 210.401357 
" style="fill:none;stroke:#de8f05;stroke-linecap:round;"/>
   </g>
   <g id="line2d_46">
    <path clip-path="url(#p4db03599a2)" d="M 274.224298 235.262346 
L 274.224298 161.816837 
" style="fill:none;stroke:#de8f05;stroke-dasharray:7.4,3.2;stroke-dashoffset:0;stroke-width:2;"/>
   </g>
   <g id="patch_28">
    <path d="M 223.862095 235.262346 
L 223.862095 161.816837 
" style="fill:none;stroke:#262626;stroke-linecap:square;stroke-linejoin:miter;stroke-width:2.5;"/>
   </g>
   <g id="patch_29">
    <path d="M 300.435373 235.262346 
L 300.435373 161.816837 
" style="fill:none;stroke:#262626;stroke-linecap:square;stroke-linejoin:miter;stroke-width:2.5;"/>
   </g>
   <g id="patch_30">
    <path d="M 223.862095 235.262346 
L 300.435373 235.262346 
" style="fill:none;stroke:#262626;stroke-linecap:square;stroke-linejoin:miter;stroke-width:2.5;"/>
   </g>
   <g id="patch_31">
    <path d="M 223.862095 161.816837 
L 300.435373 161.816837 
" style="fill:none;stroke:#262626;stroke-linecap:square;stroke-linejoin:miter;stroke-width:2.5;"/>
   </g>
  </g>
  <g id="axes_7">
   <g id="patch_32">
    <path d="M 345.241397 235.262346 
L 421.814675 235.262346 
L 421.814675 161.816837 
L 345.241397 161.816837 
z
" style="fill:#ffffff;"/>
   </g>
   <g id="matplotlib.axis_13">
    <g id="xtick_7">
     <g id="line2d_47">
      <g>
       <use style="fill:#262626;stroke:#262626;stroke-width:2.5;" x="418.334072" xlink:href="#mc1281702e9" y="235.262346"/>
      </g>
     </g>
    </g>
   </g>
   <g id="matplotlib.axis_14">
    <g id="ytick_17">
     <g id="line2d_48">
      <g>
       <use style="fill:#262626;stroke:#262626;stroke-width:2.5;" x="345.241397" xlink:href="#m4167a98b67" y="234.173794"/>
      </g>
     </g>
    </g>
    <g id="ytick_18">
     <g id="line2d_49">
      <g>
       <use style="fill:#262626;stroke:#262626;stroke-width:2.5;" x="345.241397" xlink:href="#m4167a98b67" y="161.928409"/>
      </g>
     </g>
    </g>
   </g>
   <g id="line2d_50">
    <path clip-path="url(#p701075f9c7)" d="M 418.334072 191.920161 
L 416.913417 194.965743 
L 415.492762 197.790483 
L 414.072108 200.207873 
L 412.651453 202.379409 
L 411.230799 204.593457 
L 409.810144 207.535358 
L 408.38949 210.072986 
L 406.968835 212.325298 
L 405.548181 214.926484 
L 404.127526 217.308758 
L 402.706872 219.35045 
L 401.286217 221.164501 
L 399.865563 222.707623 
L 398.444908 223.983233 
L 397.024254 225.048257 
L 395.603599 225.96585 
L 394.182945 226.736202 
L 392.76229 227.296346 
L 391.341636 227.723591 
L 389.920981 228.010032 
L 388.500327 228.190491 
L 387.079672 228.323964 
L 385.659018 228.449437 
L 384.238363 228.462293 
L 382.817709 228.426972 
L 381.397054 228.362846 
L 379.9764 228.221895 
L 378.555745 228.054687 
L 377.135091 227.881488 
L 375.714436 227.65644 
L 374.293782 227.410622 
L 372.873127 227.130091 
L 371.452473 226.82878 
L 370.031818 226.514799 
L 368.611164 226.191765 
L 367.190509 225.860599 
L 365.769855 225.530194 
L 364.3492 225.211129 
L 362.928546 224.875642 
L 361.507891 224.540354 
L 360.087237 224.209574 
L 358.666582 223.889478 
L 357.245927 223.558291 
L 355.825273 223.238426 
L 354.404618 222.921899 
L 352.983964 222.609175 
L 351.563309 222.305201 
L 350.142655 222.008468 
L 348.722 221.717514 
" style="fill:none;stroke:#0173b2;stroke-linecap:round;"/>
   </g>
   <g id="line2d_51">
    <path clip-path="url(#p701075f9c7)" d="M 384.238363 235.262346 
L 384.238363 161.816837 
" style="fill:none;stroke:#0173b2;stroke-dasharray:7.4,3.2;stroke-dashoffset:0;stroke-width:2;"/>
   </g>
   <g id="line2d_52">
    <path clip-path="url(#p701075f9c7)" d="M 418.334072 191.936551 
L 416.913417 211.898594 
L 415.492762 213.29288 
L 414.072108 213.424146 
L 412.651453 213.52561 
L 411.230799 213.046637 
L 409.810144 214.984399 
L 408.38949 223.105091 
L 406.968835 223.222117 
L 405.548181 230.519144 
L 404.127526 230.47335 
L 402.706872 230.553605 
L 401.286217 230.609812 
L 399.865563 231.338324 
L 398.444908 231.858807 
L 397.024254 231.888755 
L 395.603599 231.910543 
L 394.182945 231.923914 
L 392.76229 231.379988 
L 391.341636 230.762469 
L 389.920981 229.841699 
L 388.500327 228.764499 
L 387.079672 227.426476 
L 385.659018 226.651653 
L 384.238363 225.331788 
L 382.817709 224.343525 
L 381.397054 224.102053 
L 379.9764 223.340991 
L 378.555745 222.725382 
L 377.135091 222.042208 
L 375.714436 221.535325 
L 374.293782 220.820963 
L 372.873127 219.991301 
L 371.452473 219.623062 
L 370.031818 219.158212 
L 368.611164 219.069196 
L 367.190509 219.559653 
L 365.769855 219.506592 
L 364.3492 219.397513 
L 362.928546 219.118694 
L 361.507891 219.040854 
L 360.087237 218.914578 
L 358.666582 218.83784 
L 357.245927 218.906127 
L 355.825273 218.813126 
L 354.404618 218.649746 
L 352.983964 218.492157 
L 351.563309 218.370387 
L 350.142655 218.244246 
L 348.722 218.112503 
" style="fill:none;stroke:#de8f05;stroke-linecap:round;"/>
   </g>
   <g id="line2d_53">
    <path clip-path="url(#p701075f9c7)" d="M 394.182945 235.262346 
L 394.182945 161.816837 
" style="fill:none;stroke:#de8f05;stroke-dasharray:7.4,3.2;stroke-dashoffset:0;stroke-width:2;"/>
   </g>
   <g id="patch_33">
    <path d="M 345.241397 235.262346 
L 345.241397 161.816837 
" style="fill:none;stroke:#262626;stroke-linecap:square;stroke-linejoin:miter;stroke-width:2.5;"/>
   </g>
   <g id="patch_34">
    <path d="M 421.814675 235.262346 
L 421.814675 161.816837 
" style="fill:none;stroke:#262626;stroke-linecap:square;stroke-linejoin:miter;stroke-width:2.5;"/>
   </g>
   <g id="patch_35">
    <path d="M 345.241397 235.262346 
L 421.814675 235.262346 
" style="fill:none;stroke:#262626;stroke-linecap:square;stroke-linejoin:miter;stroke-width:2.5;"/>
   </g>
   <g id="patch_36">
    <path d="M 345.241397 161.816837 
L 421.814675 161.816837 
" style="fill:none;stroke:#262626;stroke-linecap:square;stroke-linejoin:miter;stroke-width:2.5;"/>
   </g>
  </g>
  <g id="axes_8">
   <g id="patch_37">
    <path d="M 466.620698 235.262346 
L 543.193977 235.262346 
L 543.193977 161.816837 
L 466.620698 161.816837 
z
" style="fill:#ffffff;"/>
   </g>
   <g id="matplotlib.axis_15">
    <g id="xtick_8">
     <g id="line2d_54">
      <g>
       <use style="fill:#262626;stroke:#262626;stroke-width:2.5;" x="539.713373" xlink:href="#mc1281702e9" y="235.262346"/>
      </g>
     </g>
    </g>
   </g>
   <g id="matplotlib.axis_16">
    <g id="ytick_19">
     <g id="line2d_55">
      <g>
       <use style="fill:#262626;stroke:#262626;stroke-width:2.5;" x="466.620698" xlink:href="#m4167a98b67" y="234.173794"/>
      </g>
     </g>
    </g>
    <g id="ytick_20">
     <g id="line2d_56">
      <g>
       <use style="fill:#262626;stroke:#262626;stroke-width:2.5;" x="466.620698" xlink:href="#m4167a98b67" y="161.928409"/>
      </g>
     </g>
    </g>
   </g>
   <g id="line2d_57">
    <path clip-path="url(#pee28d7cd94)" d="M 539.713373 191.866821 
L 538.292719 195.638747 
L 536.872064 198.84532 
L 535.45141 201.570703 
L 534.030755 204.422396 
L 532.610101 207.360337 
L 531.189446 209.883927 
L 529.768791 212.053346 
L 528.348137 213.863937 
L 526.927482 215.613766 
L 525.506828 217.260244 
L 524.086173 218.712729 
L 522.665519 220.136745 
L 521.244864 221.401992 
L 519.82421 222.501475 
L 518.403555 223.452097 
L 516.982901 224.278796 
L 515.562246 225.042879 
L 514.141592 225.833884 
L 512.720937 226.54098 
L 511.300283 227.157044 
L 509.879628 227.686154 
L 508.458974 228.150839 
L 507.038319 228.56637 
L 505.617665 228.928375 
L 504.19701 229.250093 
L 502.776356 229.526758 
L 501.355701 229.759696 
L 499.935047 229.967994 
L 498.514392 230.155196 
L 497.093738 230.31657 
L 495.673083 230.457297 
L 494.252429 230.575569 
L 492.831774 230.637617 
L 491.41112 230.666864 
L 489.990465 230.668923 
L 488.569811 230.638941 
L 487.149156 230.572467 
L 485.728502 230.495948 
L 484.307847 230.402315 
L 482.887193 230.25721 
L 481.466538 230.066755 
L 480.045884 229.868364 
L 478.625229 229.62192 
L 477.204575 229.381963 
L 475.78392 229.123314 
L 474.363266 228.868203 
L 472.942611 228.620129 
L 471.521956 228.367212 
L 470.101302 228.113003 
" style="fill:none;stroke:#0173b2;stroke-linecap:round;"/>
   </g>
   <g id="line2d_58">
    <path clip-path="url(#pee28d7cd94)" d="M 489.990465 235.262346 
L 489.990465 161.816837 
" style="fill:none;stroke:#0173b2;stroke-dasharray:7.4,3.2;stroke-dashoffset:0;stroke-width:2;"/>
   </g>
   <g id="line2d_59">
    <path clip-path="url(#pee28d7cd94)" d="M 539.713373 191.475356 
L 538.292719 216.23256 
L 536.872064 216.316299 
L 535.45141 215.191773 
L 534.030755 224.712588 
L 532.610101 224.841185 
L 531.189446 224.941086 
L 529.768791 224.927721 
L 528.348137 224.988597 
L 526.927482 224.045669 
L 525.506828 223.935815 
L 524.086173 223.381468 
L 522.665519 227.311809 
L 521.244864 228.247756 
L 519.82421 228.220144 
L 518.403555 228.298624 
L 516.982901 227.728891 
L 515.562246 229.136564 
L 514.141592 230.794286 
L 512.720937 231.015475 
L 511.300283 231.018287 
L 509.879628 230.838007 
L 508.458974 230.844608 
L 507.038319 230.627797 
L 505.617665 230.478919 
L 504.19701 230.36556 
L 502.776356 230.155544 
L 501.355701 230.115331 
L 499.935047 229.425656 
L 498.514392 229.492923 
L 497.093738 229.340989 
L 495.673083 228.804152 
L 494.252429 228.583973 
L 492.831774 228.987325 
L 491.41112 228.921418 
L 489.990465 227.86427 
L 488.569811 228.321001 
L 487.149156 227.40162 
L 485.728502 226.742582 
L 484.307847 225.685648 
L 482.887193 225.292877 
L 481.466538 224.426644 
L 480.045884 223.798934 
L 478.625229 222.324753 
L 477.204575 221.879696 
L 475.78392 221.329481 
L 474.363266 221.461342 
L 472.942611 220.658045 
L 471.521956 221.340306 
L 470.101302 221.571068 
" style="fill:none;stroke:#de8f05;stroke-linecap:round;"/>
   </g>
   <g id="line2d_60">
    <path clip-path="url(#pee28d7cd94)" d="M 511.300283 235.262346 
L 511.300283 161.816837 
" style="fill:none;stroke:#de8f05;stroke-dasharray:7.4,3.2;stroke-dashoffset:0;stroke-width:2;"/>
   </g>
   <g id="patch_38">
    <path d="M 466.620698 235.262346 
L 466.620698 161.816837 
" style="fill:none;stroke:#262626;stroke-linecap:square;stroke-linejoin:miter;stroke-width:2.5;"/>
   </g>
   <g id="patch_39">
    <path d="M 543.193977 235.262346 
L 543.193977 161.816837 
" style="fill:none;stroke:#262626;stroke-linecap:square;stroke-linejoin:miter;stroke-width:2.5;"/>
   </g>
   <g id="patch_40">
    <path d="M 466.620698 235.262346 
L 543.193977 235.262346 
" style="fill:none;stroke:#262626;stroke-linecap:square;stroke-linejoin:miter;stroke-width:2.5;"/>
   </g>
   <g id="patch_41">
    <path d="M 466.620698 161.816837 
L 543.193977 161.816837 
" style="fill:none;stroke:#262626;stroke-linecap:square;stroke-linejoin:miter;stroke-width:2.5;"/>
   </g>
  </g>
  <g id="axes_9">
   <g id="patch_42">
    <path d="M 102.482794 352.705884 
L 179.056072 352.705884 
L 179.056072 279.260375 
L 102.482794 279.260375 
z
" style="fill:#ffffff;"/>
   </g>
   <g id="matplotlib.axis_17">
    <g id="xtick_9">
     <g id="line2d_61">
      <g>
       <use style="fill:#262626;stroke:#262626;stroke-width:2.5;" x="175.575468" xlink:href="#mc1281702e9" y="352.705884"/>
      </g>
     </g>
     <g id="text_12">
      <!-- $\mathdefault{10^{0}}$ -->
      <g style="fill:#262626;" transform="translate(164.278378 380.659184)scale(0.18 -0.18)">
       <use transform="scale(0.996264)" xlink:href="#CMR17-49"/>
       <use transform="translate(45.690477 0)scale(0.996264)" xlink:href="#CMR17-48"/>
       <use transform="translate(91.380954 36.153639)scale(0.697382)" xlink:href="#CMR17-48"/>
      </g>
     </g>
    </g>
    <g id="text_13">
     <!-- $\lambda / \lambda_{\mathrm{max}}$ -->
     <g style="fill:#262626;" transform="translate(114.699296 401.596812)scale(0.18 -0.18)">
      <defs>
       <path d="M 30.90625 61.921875 
C 28.40625 69 20.5 69 19.203125 69 
C 18.59375 69 17.5 69 17.5 67.984375 
C 17.5 67.1875 18.09375 67.09375 18.59375 66.984375 
C 20.09375 66.796875 21.296875 66.59375 22.90625 63.71875 
C 23.90625 61.828125 34.203125 32.109375 34.203125 31.90625 
C 34.203125 31.8125 34.09375 31.703125 33.296875 30.90625 
L 7.296875 4.765625 
C 6.09375 3.578125 5.296875 2.78125 5.296875 1.484375 
C 5.296875 0.09375 6.5 -1.109375 8.09375 -1.109375 
C 8.5 -1.109375 9.59375 -0.90625 10.203125 -0.3125 
C 11.796875 1.1875 26.09375 18.59375 35.203125 29.328125 
C 37.796875 21.5625 41 12.421875 44.09375 4.078125 
C 44.59375 2.578125 45.09375 1.1875 46.5 -0.109375 
C 47.5 -1 47.703125 -1 50.5 -1 
L 52.40625 -1 
C 52.796875 -1 53.5 -1 53.5 -0.203125 
C 53.5 0.1875 53.40625 0.296875 53 0.6875 
C 52.09375 1.78125 51.40625 3.578125 51 4.765625 
z
" id="CMMI12-21"/>
       <path d="M 42.90625 71.296875 
C 42.90625 71.390625 43.5 72.890625 43.5 73.09375 
C 43.5 74.296875 42.5 75 41.703125 75 
C 41.203125 75 40.296875 75 39.5 72.796875 
L 6 -21.3125 
C 6 -21.40625 5.40625 -22.90625 5.40625 -23.109375 
C 5.40625 -24.3125 6.40625 -25 7.203125 -25 
C 7.796875 -25 8.703125 -24.90625 9.40625 -22.8125 
z
" id="CMMI12-61"/>
       <path d="M 67.59375 30.53125 
C 67.59375 35.5625 66.703125 44 54.796875 44 
C 48 44 43.296875 39.375 41.5 33.953125 
L 41.40625 33.953125 
C 40.203125 42.1875 34.296875 44 28.703125 44 
C 20.796875 44 16.703125 37.875 15.203125 33.84375 
L 15.09375 33.84375 
L 15.09375 44 
L 3.296875 42.890625 
L 3.296875 40.28125 
C 9.203125 40.28125 10.09375 39.6875 10.09375 34.859375 
L 10.09375 6.921875 
C 10.09375 3.09375 9.703125 2.59375 3.296875 2.59375 
L 3.296875 0 
C 5.703125 0.1875 10.09375 0.1875 12.703125 0.1875 
C 15.296875 0.1875 19.796875 0.1875 22.203125 0 
L 22.203125 2.59375 
C 15.796875 2.59375 15.40625 3 15.40625 6.921875 
L 15.40625 26.21875 
C 15.40625 35.453125 21 42.390625 28 42.390625 
C 35.40625 42.390625 36.203125 35.765625 36.203125 30.9375 
L 36.203125 6.921875 
C 36.203125 3.09375 35.796875 2.59375 29.40625 2.59375 
L 29.40625 0 
C 31.796875 0.1875 36.203125 0.1875 38.796875 0.1875 
C 41.40625 0.1875 45.90625 0.1875 48.296875 0 
L 48.296875 2.59375 
C 41.90625 2.59375 41.5 3 41.5 6.921875 
L 41.5 26.21875 
C 41.5 35.453125 47.09375 42.390625 54.09375 42.390625 
C 61.5 42.390625 62.296875 35.765625 62.296875 30.9375 
L 62.296875 6.921875 
C 62.296875 3.09375 61.90625 2.59375 55.5 2.59375 
L 55.5 0 
C 57.90625 0.1875 62.296875 0.1875 64.90625 0.1875 
C 67.5 0.1875 72 0.1875 74.40625 0 
L 74.40625 2.59375 
C 68 2.59375 67.59375 3 67.59375 6.921875 
z
" id="CMR17-109"/>
       <path d="M 36 25.875 
C 36 32 36 35.546875 31.796875 39.59375 
C 28.09375 42.984375 23.796875 44 20.40625 44 
C 12.5 44 6.796875 37.625 6.796875 30.890625 
C 6.796875 27.1875 9.796875 27 10.40625 27 
C 11.703125 27 14 27.796875 14 30.59375 
C 14 33.09375 12.09375 34.1875 10.40625 34.1875 
C 10 34.1875 9.5 34.09375 9.203125 34 
C 11.296875 40.53125 16.703125 42.390625 20.203125 42.390625 
C 25.203125 42.390625 30.703125 37.828125 30.703125 29.296875 
L 30.703125 25.5 
C 24.796875 25.296875 17.703125 24.5 12.09375 21.453125 
C 5.796875 17.921875 4 12.84375 4 9 
C 4 1.203125 13 -1 18.296875 -1 
C 23.796875 -1 28.90625 2.109375 31.09375 7.890625 
C 31.296875 3.421875 34.09375 -0.609375 38.5 -0.609375 
C 40.59375 -0.609375 45.90625 0.796875 45.90625 8.796875 
L 45.90625 14.46875 
L 44.09375 14.46875 
L 44.09375 8.703125 
C 44.09375 2.515625 41.40625 1.703125 40.09375 1.703125 
C 36 1.703125 36 6.96875 36 11.4375 
z
M 30.703125 13.859375 
C 30.703125 5.046875 24.5 0.59375 19 0.59375 
C 14 0.59375 10.09375 4.34375 10.09375 9 
C 10.09375 12.046875 11.40625 17.40625 17.203125 20.65625 
C 22 23.390625 27.5 23.796875 30.703125 24 
z
" id="CMR17-97"/>
       <path d="M 26 23.296875 
C 29 27.1875 32.40625 31.59375 35.203125 34.890625 
C 38.5 38.6875 42.296875 40.296875 46.703125 40.390625 
L 46.703125 43 
C 45 42.890625 41.5 42.796875 39.703125 42.796875 
C 37 42.796875 33.90625 42.796875 31.59375 43 
L 31.59375 40.390625 
C 33 40.1875 33.796875 39.1875 33.796875 37.796875 
C 33.796875 36 32.796875 34.890625 32.296875 34.1875 
L 24.90625 24.796875 
L 16.09375 36.296875 
C 15.203125 37.390625 15.203125 37.59375 15.203125 38.09375 
C 15.203125 39.296875 16.203125 40.296875 17.90625 40.390625 
L 17.90625 43 
C 15.5 42.796875 11.203125 42.796875 8.703125 42.796875 
C 6 42.796875 2.796875 42.796875 0.59375 43 
L 0.59375 40.390625 
C 6 40.390625 7.203125 40 9.59375 37 
L 21.09375 22.09375 
C 21.296875 21.890625 21.796875 21.296875 21.796875 21 
C 21.796875 20.59375 13.09375 9.890625 12 8.5 
C 7.5 3.09375 2.796875 2.6875 0.09375 2.59375 
L 0.09375 0 
C 1.796875 0.09375 5.296875 0.1875 7.09375 0.1875 
C 9.09375 0.1875 13.5 0.1875 15.296875 0 
L 15.296875 2.59375 
C 14.703125 2.6875 13.09375 2.890625 13.09375 5.1875 
C 13.09375 7 13.90625 8.09375 14.796875 9.296875 
L 23.09375 19.5 
L 31.796875 8.1875 
C 32.59375 7.09375 33.796875 5.59375 33.796875 4.890625 
C 33.796875 3.5 32.59375 2.6875 31 2.59375 
L 31 0 
C 33.40625 0.1875 37.703125 0.1875 40.203125 0.1875 
C 42.90625 0.1875 46.09375 0.1875 48.296875 0 
L 48.296875 2.59375 
C 43.296875 2.59375 41.796875 2.796875 39.40625 5.890625 
z
" id="CMR17-120"/>
      </defs>
      <use transform="scale(0.996264)" xlink:href="#CMMI12-21"/>
      <use transform="translate(56.904072 0)scale(0.996264)" xlink:href="#CMMI12-61"/>
      <use transform="translate(105.678991 0)scale(0.996264)" xlink:href="#CMMI12-21"/>
      <use transform="translate(162.583063 -14.943915)scale(0.697382)" xlink:href="#CMR17-109"/>
      <use transform="translate(216.426529 -14.943915)scale(0.697382)" xlink:href="#CMR17-97"/>
      <use transform="translate(248.409711 -14.943915)scale(0.697382)" xlink:href="#CMR17-120"/>
     </g>
    </g>
   </g>
   <g id="matplotlib.axis_18">
    <g id="ytick_21">
     <g id="line2d_62">
      <g>
       <use style="fill:#262626;stroke:#262626;stroke-width:2.5;" x="102.482794" xlink:href="#m4167a98b67" y="349.367451"/>
      </g>
     </g>
     <g id="text_14">
      <!-- $\mathdefault{0}$ -->
      <g style="fill:#262626;" transform="translate(78.758508 355.594101)scale(0.18 -0.18)">
       <use transform="scale(0.996264)" xlink:href="#CMR17-48"/>
      </g>
     </g>
    </g>
    <g id="ytick_22">
     <g id="line2d_63">
      <g>
       <use style="fill:#262626;stroke:#262626;stroke-width:2.5;" x="102.482794" xlink:href="#m4167a98b67" y="281.36235"/>
      </g>
     </g>
     <g id="text_15">
      <!-- $\mathdefault{1}$ -->
      <g style="fill:#262626;" transform="translate(78.758508 287.589)scale(0.18 -0.18)">
       <use transform="scale(0.996264)" xlink:href="#CMR17-49"/>
      </g>
     </g>
    </g>
    <g id="text_16">
     <!-- F1 -->
     <g style="fill:#262626;" transform="translate(71.270444 324.99511)rotate(-90)scale(0.18 -0.18)">
      <defs>
       <path d="M 45.59375 31 
L 45.59375 37.09375 
L 17.203125 37.09375 
L 17.203125 62.390625 
L 29.40625 62.390625 
C 30.59375 62.390625 31.796875 62.296875 33 62.296875 
L 49.5 62.296875 
L 49.5 68.796875 
L 8.796875 68.796875 
L 8.796875 0 
L 17.203125 0 
L 17.203125 31 
z
" id="CMSS17-70"/>
       <path d="M 28.40625 67 
L 26.5 67 
C 21.09375 61.703125 14.796875 60.96875 8.40625 60.796875 
L 8.40625 55 
C 11.296875 55.09375 16 55.296875 20.703125 57.390625 
L 20.703125 5.796875 
L 8.90625 5.796875 
L 8.90625 0 
L 40.203125 0 
L 40.203125 5.796875 
L 28.40625 5.796875 
z
" id="CMSS17-49"/>
      </defs>
      <use transform="scale(0.996264)" xlink:href="#CMSS17-70"/>
      <use transform="translate(53.289559 0)scale(0.996264)" xlink:href="#CMSS17-49"/>
     </g>
    </g>
   </g>
   <g id="line2d_64">
    <path clip-path="url(#p3264eab929)" d="M 175.575468 340.300105 
L 174.154814 325.403749 
L 172.734159 320.870076 
L 171.313505 317.631738 
L 169.89285 314.393399 
L 168.472196 306.783305 
L 167.051541 302.465521 
L 165.630887 295.794544 
L 164.210232 292.016483 
L 162.789578 291.336432 
L 161.368923 292.325597 
L 159.948269 295.952536 
L 158.527614 298.75517 
L 157.10696 301.442764 
L 155.686305 308.483432 
L 154.265651 313.253514 
L 152.844996 319.304019 
L 151.424342 323.823883 
L 150.003687 327.968664 
L 148.583033 330.89372 
L 147.162378 332.677555 
L 145.741724 333.846789 
L 144.321069 335.06456 
L 142.900415 336.097627 
L 141.47976 336.96314 
L 140.059106 337.426489 
L 138.638451 337.944131 
L 137.217797 338.486586 
L 135.797142 338.941472 
L 134.376487 339.276644 
L 132.955833 339.566278 
L 131.535178 339.880875 
L 130.114524 340.168383 
L 128.693869 340.218067 
L 127.273215 340.381306 
L 125.85256 340.478874 
L 124.431906 340.629456 
L 123.011251 340.676965 
L 121.590597 340.815294 
L 120.169942 340.882217 
L 118.749288 340.999263 
L 117.328633 341.016921 
L 115.907979 341.061639 
L 114.487324 341.078855 
L 113.06667 341.145193 
L 111.646015 341.164702 
L 110.225361 341.166993 
L 108.804706 341.222308 
L 107.384052 341.279226 
L 105.963397 341.279226 
" style="fill:none;stroke:#0173b2;stroke-linecap:round;"/>
   </g>
   <g id="line2d_65">
    <path clip-path="url(#p3264eab929)" d="M 162.789578 352.705884 
L 162.789578 279.260375 
" style="fill:none;stroke:#0173b2;stroke-dasharray:7.4,3.2;stroke-dashoffset:0;stroke-width:2;"/>
   </g>
   <g id="line2d_66">
    <path clip-path="url(#p3264eab929)" d="M 175.575468 340.300105 
L 174.154814 320.222408 
L 172.734159 317.631738 
L 171.313505 308.07864 
L 169.89285 315.850652 
L 168.472196 300.792379 
L 167.051541 294.585564 
L 165.630887 292.696534 
L 164.210232 290.807503 
L 162.789578 290.807503 
L 161.368923 288.918473 
L 159.948269 288.918473 
L 158.527614 288.918473 
L 157.10696 288.918473 
L 155.686305 288.918473 
L 154.265651 288.313983 
L 152.844996 290.841849 
L 151.424342 296.443948 
L 150.003687 298.002426 
L 148.583033 306.436026 
L 147.162378 313.868047 
L 145.741724 315.870536 
L 144.321069 319.558101 
L 142.900415 321.84203 
L 141.47976 325.304108 
L 140.059106 325.924422 
L 138.638451 327.455373 
L 137.217797 328.777295 
L 135.797142 329.19018 
L 134.376487 328.744692 
L 132.955833 330.587053 
L 131.535178 330.447917 
L 130.114524 330.33015 
L 128.693869 329.763538 
L 127.273215 330.704502 
L 125.85256 331.022951 
L 124.431906 331.93872 
L 123.011251 331.097167 
L 121.590597 331.607513 
L 120.169942 331.803574 
L 118.749288 332.616153 
L 117.328633 331.825163 
L 115.907979 331.456076 
L 114.487324 331.349006 
L 113.06667 331.338582 
L 111.646015 331.763266 
L 110.225361 332.070058 
L 108.804706 331.640411 
L 107.384052 332.546731 
L 105.963397 331.776195 
" style="fill:none;stroke:#de8f05;stroke-linecap:round;"/>
   </g>
   <g id="line2d_67">
    <path clip-path="url(#p3264eab929)" d="M 154.265651 352.705884 
L 154.265651 279.260375 
" style="fill:none;stroke:#de8f05;stroke-dasharray:7.4,3.2;stroke-dashoffset:0;stroke-width:2;"/>
   </g>
   <g id="patch_43">
    <path d="M 102.482794 352.705884 
L 102.482794 279.260375 
" style="fill:none;stroke:#262626;stroke-linecap:square;stroke-linejoin:miter;stroke-width:2.5;"/>
   </g>
   <g id="patch_44">
    <path d="M 179.056072 352.705884 
L 179.056072 279.260375 
" style="fill:none;stroke:#262626;stroke-linecap:square;stroke-linejoin:miter;stroke-width:2.5;"/>
   </g>
   <g id="patch_45">
    <path d="M 102.482794 352.705884 
L 179.056072 352.705884 
" style="fill:none;stroke:#262626;stroke-linecap:square;stroke-linejoin:miter;stroke-width:2.5;"/>
   </g>
   <g id="patch_46">
    <path d="M 102.482794 279.260375 
L 179.056072 279.260375 
" style="fill:none;stroke:#262626;stroke-linecap:square;stroke-linejoin:miter;stroke-width:2.5;"/>
   </g>
  </g>
  <g id="axes_10">
   <g id="patch_47">
    <path d="M 223.862095 352.705884 
L 300.435373 352.705884 
L 300.435373 279.260375 
L 223.862095 279.260375 
z
" style="fill:#ffffff;"/>
   </g>
   <g id="matplotlib.axis_19">
    <g id="xtick_10">
     <g id="line2d_68">
      <g>
       <use style="fill:#262626;stroke:#262626;stroke-width:2.5;" x="296.95477" xlink:href="#mc1281702e9" y="352.705884"/>
      </g>
     </g>
     <g id="text_17">
      <!-- $\mathdefault{10^{0}}$ -->
      <g style="fill:#262626;" transform="translate(285.657679 380.659184)scale(0.18 -0.18)">
       <use transform="scale(0.996264)" xlink:href="#CMR17-49"/>
       <use transform="translate(45.690477 0)scale(0.996264)" xlink:href="#CMR17-48"/>
       <use transform="translate(91.380954 36.153639)scale(0.697382)" xlink:href="#CMR17-48"/>
      </g>
     </g>
    </g>
    <g id="text_18">
     <!-- $\lambda / \lambda_{\mathrm{max}}$ -->
     <g style="fill:#262626;" transform="translate(236.078597 401.596812)scale(0.18 -0.18)">
      <use transform="scale(0.996264)" xlink:href="#CMMI12-21"/>
      <use transform="translate(56.904072 0)scale(0.996264)" xlink:href="#CMMI12-61"/>
      <use transform="translate(105.678991 0)scale(0.996264)" xlink:href="#CMMI12-21"/>
      <use transform="translate(162.583063 -14.943915)scale(0.697382)" xlink:href="#CMR17-109"/>
      <use transform="translate(216.426529 -14.943915)scale(0.697382)" xlink:href="#CMR17-97"/>
      <use transform="translate(248.409711 -14.943915)scale(0.697382)" xlink:href="#CMR17-120"/>
     </g>
    </g>
   </g>
   <g id="matplotlib.axis_20">
    <g id="ytick_23">
     <g id="line2d_69">
      <g>
       <use style="fill:#262626;stroke:#262626;stroke-width:2.5;" x="223.862095" xlink:href="#m4167a98b67" y="349.367451"/>
      </g>
     </g>
    </g>
    <g id="ytick_24">
     <g id="line2d_70">
      <g>
       <use style="fill:#262626;stroke:#262626;stroke-width:2.5;" x="223.862095" xlink:href="#m4167a98b67" y="281.36235"/>
      </g>
     </g>
    </g>
   </g>
   <g id="line2d_71">
    <path clip-path="url(#pb94db566cd)" d="M 296.95477 340.300105 
L 295.534115 331.880425 
L 294.113461 325.079915 
L 292.692806 310.18356 
L 291.272152 307.754806 
L 289.851497 306.459471 
L 288.430843 306.459471 
L 287.010188 297.456891 
L 285.589534 295.643422 
L 284.168879 295.643422 
L 282.748225 293.754391 
L 281.32757 292.270643 
L 279.906916 293.301024 
L 278.486261 294.015421 
L 277.065607 294.386358 
L 275.644952 296.059424 
L 274.224298 303.302091 
L 272.803643 308.742182 
L 271.382989 315.699502 
L 269.962334 320.631289 
L 268.54168 324.161487 
L 267.121025 328.220459 
L 265.700371 331.057202 
L 264.279716 332.971788 
L 262.859062 334.739164 
L 261.438407 335.388902 
L 260.017753 336.278776 
L 258.597098 336.88187 
L 257.176444 337.412144 
L 255.755789 337.892461 
L 254.335135 338.204605 
L 252.91448 338.311866 
L 251.493826 338.657246 
L 250.073171 338.755652 
L 248.652517 338.997357 
L 247.231862 339.180216 
L 245.811207 339.239057 
L 244.390553 339.345363 
L 242.969898 339.502411 
L 241.549244 339.556384 
L 240.128589 339.701712 
L 238.707935 339.701712 
L 237.28728 339.72689 
L 235.866626 339.806922 
L 234.445971 339.859771 
L 233.025317 339.886377 
L 231.604662 339.909619 
L 230.184008 339.936225 
L 228.763353 339.962102 
L 227.342699 339.984748 
" style="fill:none;stroke:#0173b2;stroke-linecap:round;"/>
   </g>
   <g id="line2d_72">
    <path clip-path="url(#pb94db566cd)" d="M 281.32757 352.705884 
L 281.32757 279.260375 
" style="fill:none;stroke:#0173b2;stroke-dasharray:7.4,3.2;stroke-dashoffset:0;stroke-width:2;"/>
   </g>
   <g id="line2d_73">
    <path clip-path="url(#pb94db566cd)" d="M 296.95477 335.766431 
L 295.534115 327.99442 
L 294.113461 314.555316 
L 292.692806 312.77423 
L 291.272152 308.888225 
L 289.851497 306.621388 
L 288.430843 296.474595 
L 287.010188 294.585564 
L 285.589534 290.807503 
L 284.168879 288.918473 
L 282.748225 288.918473 
L 281.32757 288.918473 
L 279.906916 287.407248 
L 278.486261 287.407248 
L 277.065607 285.593779 
L 275.644952 284.082554 
L 274.224298 284.082554 
L 272.803643 282.598807 
L 271.382989 290.635773 
L 269.962334 294.157183 
L 268.54168 301.763881 
L 267.121025 310.151059 
L 265.700371 313.655767 
L 264.279716 315.267286 
L 262.859062 321.396244 
L 261.438407 320.785597 
L 260.017753 324.140291 
L 258.597098 326.676751 
L 257.176444 327.492999 
L 255.755789 326.678912 
L 254.335135 328.341681 
L 252.91448 328.87349 
L 251.493826 329.102078 
L 250.073171 330.030287 
L 248.652517 330.667059 
L 247.231862 330.152157 
L 245.811207 330.338997 
L 244.390553 330.310526 
L 242.969898 330.045367 
L 241.549244 331.262605 
L 240.128589 330.326696 
L 238.707935 330.67553 
L 237.28728 332.549726 
L 235.866626 330.249072 
L 234.445971 331.549467 
L 233.025317 331.181165 
L 231.604662 331.258016 
L 230.184008 331.741736 
L 228.763353 331.159621 
L 227.342699 331.360126 
" style="fill:none;stroke:#de8f05;stroke-linecap:round;"/>
   </g>
   <g id="line2d_74">
    <path clip-path="url(#pb94db566cd)" d="M 272.803643 352.705884 
L 272.803643 279.260375 
" style="fill:none;stroke:#de8f05;stroke-dasharray:7.4,3.2;stroke-dashoffset:0;stroke-width:2;"/>
   </g>
   <g id="patch_48">
    <path d="M 223.862095 352.705884 
L 223.862095 279.260375 
" style="fill:none;stroke:#262626;stroke-linecap:square;stroke-linejoin:miter;stroke-width:2.5;"/>
   </g>
   <g id="patch_49">
    <path d="M 300.435373 352.705884 
L 300.435373 279.260375 
" style="fill:none;stroke:#262626;stroke-linecap:square;stroke-linejoin:miter;stroke-width:2.5;"/>
   </g>
   <g id="patch_50">
    <path d="M 223.862095 352.705884 
L 300.435373 352.705884 
" style="fill:none;stroke:#262626;stroke-linecap:square;stroke-linejoin:miter;stroke-width:2.5;"/>
   </g>
   <g id="patch_51">
    <path d="M 223.862095 279.260375 
L 300.435373 279.260375 
" style="fill:none;stroke:#262626;stroke-linecap:square;stroke-linejoin:miter;stroke-width:2.5;"/>
   </g>
  </g>
  <g id="axes_11">
   <g id="patch_52">
    <path d="M 345.241397 352.705884 
L 421.814675 352.705884 
L 421.814675 279.260375 
L 345.241397 279.260375 
z
" style="fill:#ffffff;"/>
   </g>
   <g id="matplotlib.axis_21">
    <g id="xtick_11">
     <g id="line2d_75">
      <g>
       <use style="fill:#262626;stroke:#262626;stroke-width:2.5;" x="418.334072" xlink:href="#mc1281702e9" y="352.705884"/>
      </g>
     </g>
     <g id="text_19">
      <!-- $\mathdefault{10^{0}}$ -->
      <g style="fill:#262626;" transform="translate(407.036981 380.659184)scale(0.18 -0.18)">
       <use transform="scale(0.996264)" xlink:href="#CMR17-49"/>
       <use transform="translate(45.690477 0)scale(0.996264)" xlink:href="#CMR17-48"/>
       <use transform="translate(91.380954 36.153639)scale(0.697382)" xlink:href="#CMR17-48"/>
      </g>
     </g>
    </g>
    <g id="text_20">
     <!-- $\lambda / \lambda_{\mathrm{max}}$ -->
     <g style="fill:#262626;" transform="translate(357.457899 401.596812)scale(0.18 -0.18)">
      <use transform="scale(0.996264)" xlink:href="#CMMI12-21"/>
      <use transform="translate(56.904072 0)scale(0.996264)" xlink:href="#CMMI12-61"/>
      <use transform="translate(105.678991 0)scale(0.996264)" xlink:href="#CMMI12-21"/>
      <use transform="translate(162.583063 -14.943915)scale(0.697382)" xlink:href="#CMR17-109"/>
      <use transform="translate(216.426529 -14.943915)scale(0.697382)" xlink:href="#CMR17-97"/>
      <use transform="translate(248.409711 -14.943915)scale(0.697382)" xlink:href="#CMR17-120"/>
     </g>
    </g>
   </g>
   <g id="matplotlib.axis_22">
    <g id="ytick_25">
     <g id="line2d_76">
      <g>
       <use style="fill:#262626;stroke:#262626;stroke-width:2.5;" x="345.241397" xlink:href="#m4167a98b67" y="349.367451"/>
      </g>
     </g>
    </g>
    <g id="ytick_26">
     <g id="line2d_77">
      <g>
       <use style="fill:#262626;stroke:#262626;stroke-width:2.5;" x="345.241397" xlink:href="#m4167a98b67" y="281.36235"/>
      </g>
     </g>
    </g>
   </g>
   <g id="line2d_78">
    <path clip-path="url(#p6f16179c2d)" d="M 418.334072 349.367451 
L 416.913417 349.367451 
L 415.492762 349.367451 
L 414.072108 343.87209 
L 412.651453 344.380411 
L 411.230799 337.722569 
L 409.810144 332.428452 
L 408.38949 328.368074 
L 406.968835 324.855723 
L 405.548181 315.386294 
L 404.127526 314.345044 
L 402.706872 312.97891 
L 401.286217 312.33535 
L 399.865563 313.253514 
L 398.444908 313.306852 
L 397.024254 315.407009 
L 395.603599 316.088765 
L 394.182945 318.028395 
L 392.76229 321.876904 
L 391.341636 324.005945 
L 389.920981 324.931114 
L 388.500327 327.088207 
L 387.079672 328.87349 
L 385.659018 329.562152 
L 384.238363 330.53675 
L 382.817709 331.90733 
L 381.397054 333.647311 
L 379.9764 334.38279 
L 378.555745 335.291175 
L 377.135091 336.080417 
L 375.714436 336.572948 
L 374.293782 336.932022 
L 372.873127 337.263985 
L 371.452473 337.522174 
L 370.031818 337.966664 
L 368.611164 338.410519 
L 367.190509 338.590526 
L 365.769855 338.78875 
L 364.3492 339.099601 
L 362.928546 339.2233 
L 361.507891 339.325321 
L 360.087237 339.292627 
L 358.666582 339.47342 
L 357.245927 339.639232 
L 355.825273 339.726449 
L 354.404618 339.817274 
L 352.983964 339.997165 
L 351.563309 340.069209 
L 350.142655 340.118674 
L 348.722 340.172646 
" style="fill:none;stroke:#0173b2;stroke-linecap:round;"/>
   </g>
   <g id="line2d_79">
    <path clip-path="url(#p6f16179c2d)" d="M 401.286217 352.705884 
L 401.286217 279.260375 
" style="fill:none;stroke:#0173b2;stroke-dasharray:7.4,3.2;stroke-dashoffset:0;stroke-width:2;"/>
   </g>
   <g id="line2d_80">
    <path clip-path="url(#p6f16179c2d)" d="M 418.334072 349.367451 
L 416.913417 344.833778 
L 415.492762 344.833778 
L 414.072108 345.481446 
L 412.651453 334.147262 
L 411.230799 334.79493 
L 409.810144 331.880425 
L 408.38949 324.054442 
L 406.968835 324.054442 
L 405.548181 309.168881 
L 404.127526 305.617503 
L 402.706872 298.288064 
L 401.286217 295.870105 
L 399.865563 296.77684 
L 398.444908 288.313983 
L 397.024254 288.039215 
L 395.603599 292.642637 
L 394.182945 284.082554 
L 392.76229 291.666154 
L 391.341636 294.630478 
L 389.920981 295.312115 
L 388.500327 303.20245 
L 387.079672 304.188238 
L 385.659018 309.206544 
L 384.238363 313.177602 
L 382.817709 314.575201 
L 381.397054 316.567269 
L 379.9764 318.106608 
L 378.555745 320.785597 
L 377.135091 322.165411 
L 375.714436 324.458361 
L 374.293782 324.861354 
L 372.873127 326.826105 
L 371.452473 327.401955 
L 370.031818 327.274934 
L 368.611164 328.153394 
L 367.190509 328.575632 
L 365.769855 328.958622 
L 364.3492 329.331244 
L 362.928546 330.71819 
L 361.507891 330.019906 
L 360.087237 330.67553 
L 358.666582 330.551876 
L 357.245927 331.159621 
L 355.825273 331.83459 
L 354.404618 330.67553 
L 352.983964 331.258016 
L 351.563309 332.120744 
L 350.142655 332.202969 
L 348.722 331.068721 
" style="fill:none;stroke:#de8f05;stroke-linecap:round;"/>
   </g>
   <g id="line2d_81">
    <path clip-path="url(#p6f16179c2d)" d="M 394.182945 352.705884 
L 394.182945 279.260375 
" style="fill:none;stroke:#de8f05;stroke-dasharray:7.4,3.2;stroke-dashoffset:0;stroke-width:2;"/>
   </g>
   <g id="patch_53">
    <path d="M 345.241397 352.705884 
L 345.241397 279.260375 
" style="fill:none;stroke:#262626;stroke-linecap:square;stroke-linejoin:miter;stroke-width:2.5;"/>
   </g>
   <g id="patch_54">
    <path d="M 421.814675 352.705884 
L 421.814675 279.260375 
" style="fill:none;stroke:#262626;stroke-linecap:square;stroke-linejoin:miter;stroke-width:2.5;"/>
   </g>
   <g id="patch_55">
    <path d="M 345.241397 352.705884 
L 421.814675 352.705884 
" style="fill:none;stroke:#262626;stroke-linecap:square;stroke-linejoin:miter;stroke-width:2.5;"/>
   </g>
   <g id="patch_56">
    <path d="M 345.241397 279.260375 
L 421.814675 279.260375 
" style="fill:none;stroke:#262626;stroke-linecap:square;stroke-linejoin:miter;stroke-width:2.5;"/>
   </g>
  </g>
  <g id="axes_12">
   <g id="patch_57">
    <path d="M 466.620698 352.705884 
L 543.193977 352.705884 
L 543.193977 279.260375 
L 466.620698 279.260375 
z
" style="fill:#ffffff;"/>
   </g>
   <g id="matplotlib.axis_23">
    <g id="xtick_12">
     <g id="line2d_82">
      <g>
       <use style="fill:#262626;stroke:#262626;stroke-width:2.5;" x="539.713373" xlink:href="#mc1281702e9" y="352.705884"/>
      </g>
     </g>
     <g id="text_21">
      <!-- $\mathdefault{10^{0}}$ -->
      <g style="fill:#262626;" transform="translate(528.416283 380.659184)scale(0.18 -0.18)">
       <use transform="scale(0.996264)" xlink:href="#CMR17-49"/>
       <use transform="translate(45.690477 0)scale(0.996264)" xlink:href="#CMR17-48"/>
       <use transform="translate(91.380954 36.153639)scale(0.697382)" xlink:href="#CMR17-48"/>
      </g>
     </g>
    </g>
    <g id="text_22">
     <!-- $\lambda / \lambda_{\mathrm{max}}$ -->
     <g style="fill:#262626;" transform="translate(478.8372 401.596812)scale(0.18 -0.18)">
      <use transform="scale(0.996264)" xlink:href="#CMMI12-21"/>
      <use transform="translate(56.904072 0)scale(0.996264)" xlink:href="#CMMI12-61"/>
      <use transform="translate(105.678991 0)scale(0.996264)" xlink:href="#CMMI12-21"/>
      <use transform="translate(162.583063 -14.943915)scale(0.697382)" xlink:href="#CMR17-109"/>
      <use transform="translate(216.426529 -14.943915)scale(0.697382)" xlink:href="#CMR17-97"/>
      <use transform="translate(248.409711 -14.943915)scale(0.697382)" xlink:href="#CMR17-120"/>
     </g>
    </g>
   </g>
   <g id="matplotlib.axis_24">
    <g id="ytick_27">
     <g id="line2d_83">
      <g>
       <use style="fill:#262626;stroke:#262626;stroke-width:2.5;" x="466.620698" xlink:href="#m4167a98b67" y="349.367451"/>
      </g>
     </g>
    </g>
    <g id="ytick_28">
     <g id="line2d_84">
      <g>
       <use style="fill:#262626;stroke:#262626;stroke-width:2.5;" x="466.620698" xlink:href="#m4167a98b67" y="281.36235"/>
      </g>
     </g>
    </g>
   </g>
   <g id="line2d_85">
    <path clip-path="url(#padfd11445e)" d="M 539.713373 349.367451 
L 538.292719 349.367451 
L 536.872064 349.367451 
L 535.45141 349.367451 
L 534.030755 349.367451 
L 532.610101 349.367451 
L 531.189446 349.367451 
L 529.768791 346.345002 
L 528.348137 346.345002 
L 526.927482 346.345002 
L 525.506828 343.624798 
L 524.086173 344.421626 
L 522.665519 342.566941 
L 521.244864 337.5799 
L 519.82421 336.135103 
L 518.403555 330.759462 
L 516.982901 331.43204 
L 515.562246 327.322208 
L 514.141592 329.810746 
L 512.720937 329.693461 
L 511.300283 330.852729 
L 509.879628 330.78828 
L 508.458974 330.198762 
L 507.038319 331.038457 
L 505.617665 328.804159 
L 504.19701 329.657903 
L 502.776356 330.070055 
L 501.355701 330.476844 
L 499.935047 331.216809 
L 498.514392 331.300508 
L 497.093738 333.473688 
L 495.673083 333.742659 
L 494.252429 335.527588 
L 492.831774 336.111537 
L 491.41112 336.266522 
L 489.990465 336.746505 
L 488.569811 336.967596 
L 487.149156 336.960236 
L 485.728502 338.074605 
L 484.307847 338.11895 
L 482.887193 338.17806 
L 481.466538 338.726071 
L 480.045884 339.007957 
L 478.625229 339.281109 
L 477.204575 340.028605 
L 475.78392 340.394249 
L 474.363266 340.710685 
L 472.942611 341.54394 
L 471.521956 341.794286 
L 470.101302 342.007215 
" style="fill:none;stroke:#0173b2;stroke-linecap:round;"/>
   </g>
   <g id="line2d_86">
    <path clip-path="url(#padfd11445e)" d="M 515.562246 352.705884 
L 515.562246 279.260375 
" style="fill:none;stroke:#0173b2;stroke-dasharray:7.4,3.2;stroke-dashoffset:0;stroke-width:2;"/>
   </g>
   <g id="line2d_87">
    <path clip-path="url(#padfd11445e)" d="M 539.713373 349.367451 
L 538.292719 349.367451 
L 536.872064 349.367451 
L 535.45141 349.367451 
L 534.030755 349.367451 
L 532.610101 349.367451 
L 531.189446 345.481446 
L 529.768791 345.481446 
L 528.348137 345.481446 
L 526.927482 345.481446 
L 525.506828 338.680935 
L 524.086173 335.766431 
L 522.665519 339.922298 
L 521.244864 336.522043 
L 519.82421 334.179645 
L 518.403555 324.356686 
L 516.982901 328.382039 
L 515.562246 327.379135 
L 514.141592 322.714947 
L 512.720937 319.747452 
L 511.300283 314.004799 
L 509.879628 311.58684 
L 508.458974 323.319437 
L 507.038319 314.911534 
L 505.617665 318.318658 
L 504.19701 317.302016 
L 502.776356 315.589999 
L 501.355701 312.5908 
L 499.935047 321.135031 
L 498.514392 318.154854 
L 497.093738 323.166352 
L 495.673083 322.364693 
L 494.252429 329.768032 
L 492.831774 327.913461 
L 491.41112 328.253487 
L 489.990465 330.210459 
L 488.569811 331.746948 
L 487.149156 332.822829 
L 485.728502 335.916399 
L 484.307847 335.554467 
L 482.887193 336.280341 
L 481.466538 337.073312 
L 480.045884 338.027732 
L 478.625229 339.123121 
L 477.204575 337.965523 
L 475.78392 342.80262 
L 474.363266 341.51593 
L 472.942611 340.565772 
L 471.521956 342.63053 
L 470.101302 342.13548 
" style="fill:none;stroke:#de8f05;stroke-linecap:round;"/>
   </g>
   <g id="line2d_88">
    <path clip-path="url(#padfd11445e)" d="M 509.879628 352.705884 
L 509.879628 279.260375 
" style="fill:none;stroke:#de8f05;stroke-dasharray:7.4,3.2;stroke-dashoffset:0;stroke-width:2;"/>
   </g>
   <g id="patch_58">
    <path d="M 466.620698 352.705884 
L 466.620698 279.260375 
" style="fill:none;stroke:#262626;stroke-linecap:square;stroke-linejoin:miter;stroke-width:2.5;"/>
   </g>
   <g id="patch_59">
    <path d="M 543.193977 352.705884 
L 543.193977 279.260375 
" style="fill:none;stroke:#262626;stroke-linecap:square;stroke-linejoin:miter;stroke-width:2.5;"/>
   </g>
   <g id="patch_60">
    <path d="M 466.620698 352.705884 
L 543.193977 352.705884 
" style="fill:none;stroke:#262626;stroke-linecap:square;stroke-linejoin:miter;stroke-width:2.5;"/>
   </g>
   <g id="patch_61">
    <path d="M 466.620698 279.260375 
L 543.193977 279.260375 
" style="fill:none;stroke:#262626;stroke-linecap:square;stroke-linejoin:miter;stroke-width:2.5;"/>
   </g>
  </g>
 </g>
 <defs>
  <clipPath id="pd135cd8380">
   <rect height="73.445509" width="76.573278" x="102.482794" y="44.3733"/>
  </clipPath>
  <clipPath id="p0f5e07ba37">
   <rect height="73.445509" width="76.573278" x="223.862095" y="44.3733"/>
  </clipPath>
  <clipPath id="pbfb2b39e05">
   <rect height="73.445509" width="76.573278" x="345.241397" y="44.3733"/>
  </clipPath>
  <clipPath id="p7a19185b63">
   <rect height="73.445509" width="76.573278" x="466.620698" y="44.3733"/>
  </clipPath>
  <clipPath id="pd496a05623">
   <rect height="73.445509" width="76.573278" x="102.482794" y="161.816837"/>
  </clipPath>
  <clipPath id="p4db03599a2">
   <rect height="73.445509" width="76.573278" x="223.862095" y="161.816837"/>
  </clipPath>
  <clipPath id="p701075f9c7">
   <rect height="73.445509" width="76.573278" x="345.241397" y="161.816837"/>
  </clipPath>
  <clipPath id="pee28d7cd94">
   <rect height="73.445509" width="76.573278" x="466.620698" y="161.816837"/>
  </clipPath>
  <clipPath id="p3264eab929">
   <rect height="73.445509" width="76.573278" x="102.482794" y="279.260375"/>
  </clipPath>
  <clipPath id="pb94db566cd">
   <rect height="73.445509" width="76.573278" x="223.862095" y="279.260375"/>
  </clipPath>
  <clipPath id="p6f16179c2d">
   <rect height="73.445509" width="76.573278" x="345.241397" y="279.260375"/>
  </clipPath>
  <clipPath id="padfd11445e">
   <rect height="73.445509" width="76.573278" x="466.620698" y="279.260375"/>
  </clipPath>
 </defs>
</svg>
