<?xml version="1.0" encoding="utf-8" standalone="no"?>
<!DOCTYPE svg PUBLIC "-//W3C//DTD SVG 1.1//EN"
  "http://www.w3.org/Graphics/SVG/1.1/DTD/svg11.dtd">
<!-- Created with matplotlib (https://matplotlib.org/) -->
<svg height="432pt" version="1.1" viewBox="0 0 576 432" width="576pt" xmlns="http://www.w3.org/2000/svg" xmlns:xlink="http://www.w3.org/1999/xlink">
 <metadata>
  <rdf:RDF xmlns:cc="http://creativecommons.org/ns#" xmlns:dc="http://purl.org/dc/elements/1.1/" xmlns:rdf="http://www.w3.org/1999/02/22-rdf-syntax-ns#">
   <cc:Work>
    <dc:type rdf:resource="http://purl.org/dc/dcmitype/StillImage"/>
    <dc:date>2021-04-19T10:52:07.432604</dc:date>
    <dc:format>image/svg+xml</dc:format>
    <dc:creator>
     <cc:Agent>
      <dc:title>Matplotlib v3.3.2, https://matplotlib.org/</dc:title>
     </cc:Agent>
    </dc:creator>
   </cc:Work>
  </rdf:RDF>
 </metadata>
 <defs>
  <style type="text/css">*{stroke-linecap:butt;stroke-linejoin:round;}</style>
 </defs>
 <g id="figure_1">
  <g id="patch_1">
   <path d="M 0 432 
L 576 432 
L 576 0 
L 0 0 
z
" style="fill:#ffffff;"/>
  </g>
  <g id="axes_1">
   <g id="patch_2">
    <path d="M 72.798508 133.504434 
L 176.127857 133.504434 
L 176.127857 31.4133 
L 72.798508 31.4133 
z
" style="fill:#ffffff;"/>
   </g>
   <g id="matplotlib.axis_1">
    <g id="xtick_1">
     <g id="line2d_1">
      <defs>
       <path d="M 0 0 
L 0 3.5 
" id="m7524c818d3" style="stroke:#262626;stroke-width:0.8;"/>
      </defs>
      <g>
       <use style="fill:#262626;stroke:#262626;stroke-width:0.8;" x="171.431069" xlink:href="#m7524c818d3" y="133.504434"/>
      </g>
     </g>
    </g>
   </g>
   <g id="matplotlib.axis_2">
    <g id="ytick_1">
     <g id="line2d_2">
      <defs>
       <path d="M 0 0 
L -3.5 0 
" id="md33b4a10ba" style="stroke:#262626;stroke-width:0.8;"/>
      </defs>
      <g>
       <use style="fill:#262626;stroke:#262626;stroke-width:0.8;" x="72.798508" xlink:href="#md33b4a10ba" y="124.985835"/>
      </g>
     </g>
     <g id="text_1">
      <!-- $\mathdefault{2.5}$ -->
      <g style="fill:#262626;" transform="translate(44.472444 131.212485)scale(0.18 -0.18)">
       <defs>
        <path d="M 41.703125 15.46875 
L 39.90625 15.46875 
C 38.90625 8.390625 38.09375 7.1875 37.703125 6.59375 
C 37.203125 5.796875 30 5.796875 28.59375 5.796875 
L 9.40625 5.796875 
C 13 9.6875 20 16.765625 28.5 24.9375 
C 34.59375 30.71875 41.703125 37.5 41.703125 47.390625 
C 41.703125 59.1875 32.296875 66 21.796875 66 
C 10.796875 66 4.09375 56.296875 4.09375 47.296875 
C 4.09375 43.390625 7 42.890625 8.203125 42.890625 
C 9.203125 42.890625 12.203125 43.484375 12.203125 46.984375 
C 12.203125 50.09375 9.59375 51 8.203125 51 
C 7.59375 51 7 50.890625 6.59375 50.6875 
C 8.5 59.1875 14.296875 63.390625 20.40625 63.390625 
C 29.09375 63.390625 34.796875 56.5 34.796875 47.390625 
C 34.796875 38.703125 29.703125 31.21875 24 24.734375 
L 4.09375 2.296875 
L 4.09375 0 
L 39.296875 0 
z
" id="CMR17-50"/>
        <path d="M 18.40625 4.796875 
C 18.40625 7.6875 16 9.6875 13.59375 9.6875 
C 10.703125 9.6875 8.703125 7.296875 8.703125 4.890625 
C 8.703125 2 11.09375 0 13.5 0 
C 16.40625 0 18.40625 2.390625 18.40625 4.796875 
z
" id="CMMI12-58"/>
        <path d="M 11.40625 58.59375 
C 12.40625 58.1875 16.5 56.890625 20.703125 56.890625 
C 30 56.890625 35.09375 61.890625 38 64.6875 
C 38 65.484375 38 66 37.40625 66 
C 37.296875 66 37.09375 66 36.296875 65.59375 
C 32.796875 64.09375 28.703125 63 23.703125 63 
C 20.703125 63 16.203125 63.359375 11.296875 65.484375 
C 10.203125 66 10 66 9.90625 66 
C 9.40625 66 9.296875 65.890625 9.296875 63.90625 
L 9.296875 34.859375 
C 9.296875 33.015625 9.296875 32.5 10.296875 32.5 
C 10.796875 32.5 11 32.703125 11.5 33.421875 
C 14.703125 38.046875 19.09375 40 24.09375 40 
C 27.59375 40 35.09375 37.734375 35.09375 20.203125 
C 35.09375 16.984375 35.09375 11.1875 32.09375 6.59375 
C 29.59375 2.484375 25.703125 0.390625 21.40625 0.390625 
C 14.796875 0.390625 8.09375 4.984375 6.296875 12.6875 
C 6.703125 12.59375 7.5 12.390625 7.90625 12.390625 
C 9.203125 12.390625 11.703125 13.09375 11.703125 16.1875 
C 11.703125 18.890625 9.796875 20 7.90625 20 
C 5.59375 20 4.09375 18.59375 4.09375 15.796875 
C 4.09375 7.09375 11 -2 21.59375 -2 
C 31.90625 -2 41.703125 6.890625 41.703125 19.796875 
C 41.703125 32.09375 33.90625 41.59375 24.203125 41.59375 
C 19.09375 41.59375 14.796875 39.6875 11.40625 36 
z
" id="CMR17-53"/>
       </defs>
       <use transform="scale(0.996264)" xlink:href="#CMR17-50"/>
       <use transform="translate(45.690477 0)scale(0.996264)" xlink:href="#CMMI12-58"/>
       <use transform="translate(72.787654 0)scale(0.996264)" xlink:href="#CMR17-53"/>
      </g>
     </g>
    </g>
    <g id="ytick_2">
     <g id="line2d_3">
      <g>
       <use style="fill:#262626;stroke:#262626;stroke-width:0.8;" x="72.798508" xlink:href="#md33b4a10ba" y="79.053636"/>
      </g>
     </g>
     <g id="text_2">
      <!-- $\mathdefault{5.0}$ -->
      <g style="fill:#262626;" transform="translate(44.472444 85.280286)scale(0.18 -0.18)">
       <defs>
        <path d="M 42 31.84375 
C 42 37.96875 41.90625 48.421875 37.703125 56.453125 
C 34 63.484375 28.09375 66 22.90625 66 
C 18.09375 66 12 63.78125 8.203125 56.5625 
C 4.203125 49.015625 3.796875 39.671875 3.796875 31.84375 
C 3.796875 26.109375 3.90625 17.375 7 9.734375 
C 11.296875 -0.609375 19 -2 22.90625 -2 
C 27.5 -2 34.5 -0.109375 38.59375 9.4375 
C 41.59375 16.375 42 24.5 42 31.84375 
z
M 22.90625 -0.40625 
C 16.5 -0.40625 12.703125 5.125 11.296875 12.75 
C 10.203125 18.6875 10.203125 27.328125 10.203125 32.953125 
C 10.203125 40.6875 10.203125 47.109375 11.5 53.234375 
C 13.40625 61.78125 19 64.390625 22.90625 64.390625 
C 27 64.390625 32.296875 61.671875 34.203125 53.4375 
C 35.5 47.71875 35.59375 40.984375 35.59375 32.953125 
C 35.59375 26.421875 35.59375 18.375 34.40625 12.453125 
C 32.296875 1.5 26.40625 -0.40625 22.90625 -0.40625 
z
" id="CMR17-48"/>
       </defs>
       <use transform="scale(0.996264)" xlink:href="#CMR17-53"/>
       <use transform="translate(45.690477 0)scale(0.996264)" xlink:href="#CMMI12-58"/>
       <use transform="translate(72.787654 0)scale(0.996264)" xlink:href="#CMR17-48"/>
      </g>
     </g>
    </g>
    <g id="ytick_3">
     <g id="line2d_4">
      <g>
       <use style="fill:#262626;stroke:#262626;stroke-width:0.8;" x="72.798508" xlink:href="#md33b4a10ba" y="33.121436"/>
      </g>
     </g>
     <g id="text_3">
      <!-- $\mathdefault{7.5}$ -->
      <g style="fill:#262626;" transform="translate(44.472444 39.348087)scale(0.18 -0.18)">
       <defs>
        <path d="M 45.09375 61.796875 
L 45.09375 64 
L 21.59375 64 
C 9.90625 64 9.703125 65.09375 9.296875 67 
L 7.5 67 
L 4.59375 48.5 
L 6.40625 48.5 
C 6.703125 50.40625 7.40625 55.5 8.59375 57.390625 
C 9.203125 58.1875 16.59375 58.1875 18.296875 58.1875 
L 40.296875 58.1875 
L 29.203125 41.71875 
C 21.796875 30.640625 16.703125 15.671875 16.703125 2.59375 
C 16.703125 1.390625 16.703125 -2 20.296875 -2 
C 23.90625 -2 23.90625 1.390625 23.90625 2.6875 
L 23.90625 7.28125 
C 23.90625 23.65625 26.703125 34.4375 31.296875 41.3125 
z
" id="CMR17-55"/>
       </defs>
       <use transform="scale(0.996264)" xlink:href="#CMR17-55"/>
       <use transform="translate(45.690477 0)scale(0.996264)" xlink:href="#CMMI12-58"/>
       <use transform="translate(72.787654 0)scale(0.996264)" xlink:href="#CMR17-53"/>
      </g>
     </g>
    </g>
    <g id="text_4">
     <!-- MSE -->
     <g style="fill:#262626;" transform="translate(36.98438 99.524342)rotate(-90)scale(0.18 -0.18)">
      <defs>
       <path d="M 49.90625 37.078125 
L 45.09375 23.0625 
C 44.296875 20.484375 41.59375 12.421875 41 9.25 
L 40.90625 9.25 
C 40.59375 11.234375 40 13.328125 38.40625 18.390625 
C 37.5 21.375 36.5 24.453125 35.5 27.234375 
L 20.703125 69 
L 9 69 
L 9 0 
L 16.796875 0 
L 16.796875 60.921875 
L 16.90625 60.921875 
C 16.90625 60.828125 17.796875 56.453125 23.90625 39.0625 
L 37.09375 1.59375 
L 44.5 1.59375 
L 56.40625 34.890625 
C 57.203125 37.171875 59.703125 44.421875 60.796875 47.90625 
C 61.796875 50.890625 64.296875 58.25 64.90625 61.125 
L 65 61.125 
L 65 0 
L 72.90625 0 
L 72.90625 69 
L 61.296875 69 
z
" id="CMSS17-77"/>
       <path d="M 43.703125 66.09375 
C 39.296875 68.6875 34.5 71 26.40625 71 
C 13.5 71 5.203125 61.46875 5.203125 51.703125 
C 5.203125 47.875 6.296875 43.546875 10.203125 39.125 
C 14.09375 34.6875 18.5 33.484375 24.09375 32.078125 
C 26.40625 31.46875 30.296875 30.359375 31 30.0625 
C 36.59375 27.84375 39.296875 22.71875 39.296875 17.875 
C 39.296875 11.53125 34.40625 4.796875 25.703125 4.796875 
C 22.703125 4.796875 13.90625 5.296875 5.59375 12.953125 
L 4.203125 5 
C 12.40625 -1 21.296875 -2 25.796875 -2 
C 38.09375 -2 46.90625 7.71875 46.90625 18.78125 
C 46.90625 22.8125 45.703125 27.953125 41.5 32.6875 
C 37.40625 37.203125 33.796875 38.21875 25.59375 40.4375 
C 20.90625 41.640625 17.90625 42.453125 15.40625 45.5625 
C 13.703125 47.78125 12.796875 49.890625 12.796875 52.609375 
C 12.796875 58.25 17.59375 64.390625 26.40625 64.390625 
C 30.796875 64.390625 36.5 63.484375 42.296875 58.046875 
z
" id="CMSS17-83"/>
       <path d="M 30.59375 6.796875 
C 22.59375 6.796875 19 6.796875 17.203125 6.6875 
L 17.203125 32.890625 
L 48.203125 32.890625 
L 48.203125 39 
L 17.203125 39 
L 17.203125 62.390625 
L 30.09375 62.390625 
C 31.296875 62.390625 32.5 62.296875 33.703125 62.296875 
L 50.796875 62.296875 
L 50.796875 68.796875 
L 8.796875 68.796875 
L 8.796875 0 
L 52.09375 0 
L 52.09375 6.890625 
z
" id="CMSS17-69"/>
      </defs>
      <use transform="scale(0.996264)" xlink:href="#CMSS17-77"/>
      <use transform="translate(81.67603 0)scale(0.996264)" xlink:href="#CMSS17-83"/>
      <use transform="translate(133.724546 0)scale(0.996264)" xlink:href="#CMSS17-69"/>
     </g>
    </g>
   </g>
   <g id="line2d_5">
    <path clip-path="url(#pfacc871ef9)" d="M 171.431069 36.053806 
L 169.514012 39.472692 
L 167.596956 45.246269 
L 165.679899 51.536839 
L 163.762843 57.131808 
L 161.845786 62.524442 
L 159.928729 68.705504 
L 158.011673 74.225829 
L 156.094616 78.944185 
L 154.17756 83.002608 
L 152.260503 86.686728 
L 150.343446 90.476188 
L 148.42639 93.706576 
L 146.509333 96.416515 
L 144.592277 98.532652 
L 142.67522 100.139256 
L 140.758164 101.314469 
L 138.841107 102.058304 
L 136.92405 102.462527 
L 135.006994 102.558148 
L 133.089937 102.415008 
L 131.172881 101.952027 
L 129.255824 101.369693 
L 127.338768 100.741526 
L 125.421711 100.054806 
L 123.504654 99.266049 
L 121.587598 98.462632 
L 119.670541 97.653648 
L 117.753485 96.784771 
L 115.836428 95.907999 
L 113.919371 95.010779 
L 112.002315 94.174574 
L 110.085258 93.334243 
L 108.168202 92.479628 
L 106.251145 91.655234 
L 104.334089 90.828298 
L 102.417032 90.176045 
L 100.499975 89.556213 
L 98.582919 88.780617 
L 96.665862 87.862776 
L 94.748806 87.593556 
L 92.831749 86.482982 
L 90.914693 86.228594 
L 88.997636 85.216067 
L 87.080579 84.868121 
L 85.163523 84.191776 
L 83.246466 83.961743 
L 81.32941 83.472542 
L 79.412353 82.898443 
L 77.495296 82.605413 
" style="fill:none;stroke:#0173b2;stroke-linecap:round;"/>
   </g>
   <g id="line2d_6">
    <path clip-path="url(#pfacc871ef9)" d="M 135.006994 133.504434 
L 135.006994 31.4133 
" style="fill:none;stroke:#0173b2;stroke-dasharray:7.4,3.2;stroke-dashoffset:0;stroke-width:2;"/>
   </g>
   <g id="line2d_7">
    <path clip-path="url(#pfacc871ef9)" d="M 171.431069 51.373194 
L 169.514012 63.126797 
L 167.596956 88.191275 
L 165.679899 97.541267 
L 163.762843 102.477599 
L 161.845786 102.622332 
L 159.928729 117.195402 
L 158.011673 117.317023 
L 156.094616 121.532144 
L 154.17756 121.629689 
L 152.260503 121.693603 
L 150.343446 121.73144 
L 148.42639 121.508449 
L 146.509333 121.432191 
L 144.592277 121.25844 
L 142.67522 120.497864 
L 140.758164 119.494013 
L 138.841107 117.463317 
L 136.92405 115.577274 
L 135.006994 112.738108 
L 133.089937 109.376576 
L 131.172881 105.671508 
L 129.255824 102.999276 
L 127.338768 100.313879 
L 125.421711 97.731557 
L 123.504654 93.4477 
L 121.587598 90.983172 
L 119.670541 85.815867 
L 117.753485 83.231267 
L 115.836428 82.665756 
L 113.919371 80.234242 
L 112.002315 78.741803 
L 110.085258 76.360167 
L 108.168202 75.598211 
L 106.251145 73.765458 
L 104.334089 73.03643 
L 102.417032 72.328776 
L 100.499975 71.258895 
L 98.582919 70.449206 
L 96.665862 70.33165 
L 94.748806 70.974462 
L 92.831749 70.071603 
L 90.914693 69.580633 
L 88.997636 68.629955 
L 87.080579 68.187168 
L 85.163523 67.371723 
L 83.246466 66.740785 
L 81.32941 66.107913 
L 79.412353 65.199986 
L 77.495296 64.814771 
" style="fill:none;stroke:#de8f05;stroke-linecap:round;"/>
   </g>
   <g id="line2d_8">
    <path clip-path="url(#pfacc871ef9)" d="M 150.343446 133.504434 
L 150.343446 31.4133 
" style="fill:none;stroke:#de8f05;stroke-dasharray:7.4,3.2;stroke-dashoffset:0;stroke-width:2;"/>
   </g>
   <g id="patch_3">
    <path d="M 72.798508 133.504434 
L 72.798508 31.4133 
" style="fill:none;stroke:#262626;stroke-linecap:square;stroke-linejoin:miter;stroke-width:0.8;"/>
   </g>
   <g id="patch_4">
    <path d="M 176.127857 133.504434 
L 176.127857 31.4133 
" style="fill:none;stroke:#262626;stroke-linecap:square;stroke-linejoin:miter;stroke-width:0.8;"/>
   </g>
   <g id="patch_5">
    <path d="M 72.798508 133.504434 
L 176.127857 133.504434 
" style="fill:none;stroke:#262626;stroke-linecap:square;stroke-linejoin:miter;stroke-width:0.8;"/>
   </g>
   <g id="patch_6">
    <path d="M 72.798508 31.4133 
L 176.127857 31.4133 
" style="fill:none;stroke:#262626;stroke-linecap:square;stroke-linejoin:miter;stroke-width:0.8;"/>
   </g>
   <g id="text_5">
    <!-- Corr = 0.5 -->
    <g style="fill:#262626;" transform="translate(86.397334 25.4133)scale(0.18 -0.18)">
     <defs>
      <path d="M 54.703125 11.015625 
C 48 6.5 44.90625 5.1875 36.796875 5.1875 
C 22.796875 5.1875 14.59375 20.375 14.59375 34.234375 
C 14.59375 49.015625 23 63.59375 37.203125 63.59375 
C 43.59375 63.59375 47.796875 61.78125 52.90625 58.5625 
L 54.296875 66.484375 
C 49.5 68.890625 43.40625 70 37.296875 70 
C 18.09375 70 6.203125 52.234375 6.203125 34.234375 
C 6.203125 14.4375 20.296875 -1.203125 36.296875 -1.203125 
C 44.90625 -1.203125 47.90625 -0.5 55.296875 4.1875 
z
" id="CMSS17-67"/>
      <path d="M 44.203125 21.1875 
C 44.203125 33.984375 34.703125 44 23.5 44 
C 12 44 2.703125 33.6875 2.703125 21.1875 
C 2.703125 8.5 12.296875 -1 23.40625 -1 
C 34.796875 -1 44.203125 8.796875 44.203125 21.1875 
z
M 23.5 5.296875 
C 16.40625 5.296875 10.296875 11.09375 10.296875 21.984375 
C 10.296875 33.59375 17.40625 37.890625 23.40625 37.890625 
C 29.90625 37.890625 36.59375 33.1875 36.59375 21.984375 
C 36.59375 10.6875 30.09375 5.296875 23.5 5.296875 
z
" id="CMSS17-111"/>
      <path d="M 14.90625 21.390625 
C 14.90625 30.84375 21.796875 37.171875 30.59375 37.375 
L 30.59375 44 
C 24.203125 43.890625 18.203125 40.6875 14.59375 35.46875 
L 14.59375 43.484375 
L 7.5 43.484375 
L 7.5 0 
L 14.90625 0 
z
" id="CMSS17-114"/>
      <path d="M 64.796875 32 
C 66.296875 32 67.796875 32 67.796875 33.6875 
C 67.796875 35.5 66.09375 35.5 64.40625 35.5 
L 8.59375 35.5 
C 6.90625 35.5 5.203125 35.5 5.203125 33.6875 
C 5.203125 32 6.703125 32 8.203125 32 
z
M 64.40625 14.484375 
C 66.09375 14.484375 67.796875 14.484375 67.796875 16.296875 
C 67.796875 18 66.296875 18 64.796875 18 
L 8.203125 18 
C 6.703125 18 5.203125 18 5.203125 16.296875 
C 5.203125 14.484375 6.90625 14.484375 8.59375 14.484375 
z
" id="CMSS17-61"/>
      <path d="M 43.09375 32.390625 
C 43.09375 38.109375 43 48.75 38.90625 56.984375 
C 34.796875 64.890625 28.203125 67 23.5 67 
C 16.703125 67 10.90625 62.984375 7.90625 56.578125 
C 4.703125 49.859375 3.796875 42.9375 3.796875 32.390625 
C 3.796875 25.171875 4.09375 16.34375 7.703125 8.609375 
C 11.796875 0.09375 18.703125 -2 23.40625 -2 
C 29.59375 -2 35.59375 1.296875 39 8.203125 
C 42.5 15.4375 43.09375 23.359375 43.09375 32.390625 
z
M 23.40625 4.09375 
C 15.796875 4.09375 13.5 12.828125 12.796875 15.734375 
C 11.59375 20.75 11.40625 25.5625 11.40625 33.5 
C 11.40625 39.71875 11.40625 46.75 13.296875 52.265625 
C 15.59375 58.6875 19.59375 60.890625 23.40625 60.890625 
C 30.796875 60.890625 33.203125 53.46875 34 50.859375 
C 35.5 45.546875 35.5 39.3125 35.5 33.5 
C 35.5 24.15625 35.5 4.09375 23.40625 4.09375 
z
" id="CMSS17-48"/>
      <path d="M 17 8 
L 9 8 
L 9 0 
L 17 0 
z
" id="CMSS17-46"/>
      <path d="M 14.59375 59.59375 
L 39.09375 59.59375 
L 39.09375 66 
L 7.296875 66 
L 7.296875 28.59375 
L 14 28.59375 
C 15.796875 32.859375 19.5 36 24.296875 36 
C 28.796875 36 33.796875 31.9375 33.796875 20.296875 
C 33.796875 7.84375 26.703125 4.1875 21.5 4.1875 
C 15.09375 4.1875 9.203125 8.140625 6.59375 13.609375 
L 3.40625 7.9375 
C 8 0.796875 15.5 -2 21.5 -2 
C 33.09375 -2 42.203125 7.9375 42.203125 20.09375 
C 42.203125 32.546875 34.09375 42.09375 24.40625 42.09375 
C 20.90625 42.09375 17.5 40.890625 14.59375 38.5 
z
" id="CMSS17-53"/>
     </defs>
     <use transform="scale(0.996264)" xlink:href="#CMSS17-67"/>
     <use transform="translate(59.855772 0)scale(0.996264)" xlink:href="#CMSS17-111"/>
     <use transform="translate(104.096941 0)scale(0.996264)" xlink:href="#CMSS17-114"/>
     <use transform="translate(136.006714 0)scale(0.996264)" xlink:href="#CMSS17-114"/>
     <use transform="translate(199.145599 0)scale(0.996264)" xlink:href="#CMSS17-61"/>
     <use transform="translate(303.242647 0)scale(0.996264)" xlink:href="#CMSS17-48"/>
     <use transform="translate(350.08627 0)scale(0.996264)" xlink:href="#CMSS17-46"/>
     <use transform="translate(376.110475 0)scale(0.996264)" xlink:href="#CMSS17-53"/>
    </g>
   </g>
  </g>
  <g id="axes_2">
   <g id="patch_7">
    <path d="M 199.473881 133.504434 
L 302.803231 133.504434 
L 302.803231 31.4133 
L 199.473881 31.4133 
z
" style="fill:#ffffff;"/>
   </g>
   <g id="matplotlib.axis_3">
    <g id="xtick_2">
     <g id="line2d_9">
      <g>
       <use style="fill:#262626;stroke:#262626;stroke-width:0.8;" x="298.106442" xlink:href="#m7524c818d3" y="133.504434"/>
      </g>
     </g>
    </g>
   </g>
   <g id="matplotlib.axis_4">
    <g id="ytick_4">
     <g id="line2d_10">
      <g>
       <use style="fill:#262626;stroke:#262626;stroke-width:0.8;" x="199.473881" xlink:href="#md33b4a10ba" y="124.985835"/>
      </g>
     </g>
    </g>
    <g id="ytick_5">
     <g id="line2d_11">
      <g>
       <use style="fill:#262626;stroke:#262626;stroke-width:0.8;" x="199.473881" xlink:href="#md33b4a10ba" y="79.053636"/>
      </g>
     </g>
    </g>
    <g id="ytick_6">
     <g id="line2d_12">
      <g>
       <use style="fill:#262626;stroke:#262626;stroke-width:0.8;" x="199.473881" xlink:href="#md33b4a10ba" y="33.121436"/>
      </g>
     </g>
    </g>
   </g>
   <g id="line2d_13">
    <path clip-path="url(#pee942aa401)" d="M 298.106442 55.348516 
L 296.189385 57.45625 
L 294.272329 59.405039 
L 292.355272 61.857317 
L 290.438216 66.016697 
L 288.521159 70.864962 
L 286.604102 76.115805 
L 284.687046 81.529362 
L 282.769989 87.192757 
L 280.852933 92.279239 
L 278.935876 96.712548 
L 277.01882 100.443642 
L 275.101763 103.655548 
L 273.184706 106.346044 
L 271.26765 108.578059 
L 269.350593 110.342878 
L 267.433537 111.736788 
L 265.51648 112.810767 
L 263.599423 113.622353 
L 261.682367 114.221608 
L 259.76531 114.506175 
L 257.848254 114.639314 
L 255.931197 114.714672 
L 254.014141 114.664702 
L 252.097084 114.498236 
L 250.180027 114.230774 
L 248.262971 113.880835 
L 246.345914 113.434979 
L 244.428858 112.927754 
L 242.511801 112.367808 
L 240.594745 111.715642 
L 238.677688 110.96773 
L 236.760631 110.153083 
L 234.843575 109.283271 
L 232.926518 108.387256 
L 231.009462 107.490655 
L 229.092405 106.567434 
L 227.175348 105.630523 
L 225.258292 104.684387 
L 223.341235 103.738037 
L 221.424179 102.940174 
L 219.507122 102.35436 
L 217.590066 101.179078 
L 215.673009 100.171813 
L 213.755952 99.892649 
L 211.838896 98.498073 
L 209.921839 98.10387 
L 208.004783 97.094995 
L 206.087726 96.625289 
L 204.170669 95.725064 
" style="fill:none;stroke:#0173b2;stroke-linecap:round;"/>
   </g>
   <g id="line2d_14">
    <path clip-path="url(#pee942aa401)" d="M 255.931197 133.504434 
L 255.931197 31.4133 
" style="fill:none;stroke:#0173b2;stroke-dasharray:7.4,3.2;stroke-dashoffset:0;stroke-width:2;"/>
   </g>
   <g id="line2d_15">
    <path clip-path="url(#pee942aa401)" d="M 298.106442 65.386021 
L 296.189385 70.411651 
L 294.272329 81.149459 
L 292.355272 92.004968 
L 290.438216 99.157519 
L 288.521159 105.998101 
L 286.604102 107.607649 
L 284.687046 108.741356 
L 282.769989 118.49414 
L 280.852933 118.435041 
L 278.935876 120.224709 
L 277.01882 120.190775 
L 275.101763 118.772862 
L 273.184706 122.489695 
L 271.26765 124.454842 
L 269.350593 123.391596 
L 267.433537 122.692476 
L 265.51648 121.942351 
L 263.599423 120.369877 
L 261.682367 122.701372 
L 259.76531 121.515375 
L 257.848254 117.772987 
L 255.931197 115.192951 
L 254.014141 113.714412 
L 252.097084 111.516804 
L 250.180027 110.102411 
L 248.262971 108.204414 
L 246.345914 104.555529 
L 244.428858 100.582235 
L 242.511801 98.675931 
L 240.594745 95.561192 
L 238.677688 91.33441 
L 236.760631 88.82743 
L 234.843575 86.710081 
L 232.926518 85.298251 
L 231.009462 85.372164 
L 229.092405 84.481242 
L 227.175348 80.730833 
L 225.258292 79.388244 
L 223.341235 77.790316 
L 221.424179 75.85292 
L 219.507122 74.953764 
L 217.590066 74.86641 
L 215.673009 74.699675 
L 213.755952 73.569992 
L 211.838896 73.540319 
L 209.921839 73.507704 
L 208.004783 72.865368 
L 206.087726 72.166577 
L 204.170669 70.572177 
" style="fill:none;stroke:#de8f05;stroke-linecap:round;"/>
   </g>
   <g id="line2d_16">
    <path clip-path="url(#pee942aa401)" d="M 271.26765 133.504434 
L 271.26765 31.4133 
" style="fill:none;stroke:#de8f05;stroke-dasharray:7.4,3.2;stroke-dashoffset:0;stroke-width:2;"/>
   </g>
   <g id="patch_8">
    <path d="M 199.473881 133.504434 
L 199.473881 31.4133 
" style="fill:none;stroke:#262626;stroke-linecap:square;stroke-linejoin:miter;stroke-width:0.8;"/>
   </g>
   <g id="patch_9">
    <path d="M 302.803231 133.504434 
L 302.803231 31.4133 
" style="fill:none;stroke:#262626;stroke-linecap:square;stroke-linejoin:miter;stroke-width:0.8;"/>
   </g>
   <g id="patch_10">
    <path d="M 199.473881 133.504434 
L 302.803231 133.504434 
" style="fill:none;stroke:#262626;stroke-linecap:square;stroke-linejoin:miter;stroke-width:0.8;"/>
   </g>
   <g id="patch_11">
    <path d="M 199.473881 31.4133 
L 302.803231 31.4133 
" style="fill:none;stroke:#262626;stroke-linecap:square;stroke-linejoin:miter;stroke-width:0.8;"/>
   </g>
   <g id="text_6">
    <!-- Corr = 0.7 -->
    <g style="fill:#262626;" transform="translate(213.072707 25.4133)scale(0.18 -0.18)">
     <defs>
      <path d="M 21.703125 59.1875 
C 22.90625 59.1875 24.09375 59.296875 25.296875 59.296875 
L 36.796875 59.296875 
C 22.5 42.421875 14.296875 21.09375 14.296875 -1 
L 22.296875 -1 
C 22.296875 20.390625 29.296875 42.109375 43 59.484375 
L 43 66 
L 3.90625 66 
L 3.90625 59.1875 
z
" id="CMSS17-55"/>
     </defs>
     <use transform="scale(0.996264)" xlink:href="#CMSS17-67"/>
     <use transform="translate(59.855772 0)scale(0.996264)" xlink:href="#CMSS17-111"/>
     <use transform="translate(104.096941 0)scale(0.996264)" xlink:href="#CMSS17-114"/>
     <use transform="translate(136.006714 0)scale(0.996264)" xlink:href="#CMSS17-114"/>
     <use transform="translate(199.145599 0)scale(0.996264)" xlink:href="#CMSS17-61"/>
     <use transform="translate(303.242647 0)scale(0.996264)" xlink:href="#CMSS17-48"/>
     <use transform="translate(350.08627 0)scale(0.996264)" xlink:href="#CMSS17-46"/>
     <use transform="translate(376.110475 0)scale(0.996264)" xlink:href="#CMSS17-55"/>
    </g>
   </g>
  </g>
  <g id="axes_3">
   <g id="patch_12">
    <path d="M 326.149254 133.504434 
L 429.478604 133.504434 
L 429.478604 31.4133 
L 326.149254 31.4133 
z
" style="fill:#ffffff;"/>
   </g>
   <g id="matplotlib.axis_5">
    <g id="xtick_3">
     <g id="line2d_17">
      <g>
       <use style="fill:#262626;stroke:#262626;stroke-width:0.8;" x="424.781815" xlink:href="#m7524c818d3" y="133.504434"/>
      </g>
     </g>
    </g>
   </g>
   <g id="matplotlib.axis_6">
    <g id="ytick_7">
     <g id="line2d_18">
      <g>
       <use style="fill:#262626;stroke:#262626;stroke-width:0.8;" x="326.149254" xlink:href="#md33b4a10ba" y="124.985835"/>
      </g>
     </g>
    </g>
    <g id="ytick_8">
     <g id="line2d_19">
      <g>
       <use style="fill:#262626;stroke:#262626;stroke-width:0.8;" x="326.149254" xlink:href="#md33b4a10ba" y="79.053636"/>
      </g>
     </g>
    </g>
    <g id="ytick_9">
     <g id="line2d_20">
      <g>
       <use style="fill:#262626;stroke:#262626;stroke-width:0.8;" x="326.149254" xlink:href="#md33b4a10ba" y="33.121436"/>
      </g>
     </g>
    </g>
   </g>
   <g id="line2d_21">
    <path clip-path="url(#pf8038239e4)" d="M 424.781815 52.948459 
L 422.864758 54.086978 
L 420.947702 57.414453 
L 419.030645 60.98271 
L 417.113589 64.638042 
L 415.196532 68.46824 
L 413.279475 72.034053 
L 411.362419 75.262793 
L 409.445362 78.860485 
L 407.528306 83.514574 
L 405.611249 87.928194 
L 403.694193 91.74997 
L 401.777136 95.532393 
L 399.860079 99.098275 
L 397.943023 102.512096 
L 396.025966 105.432246 
L 394.10891 107.885459 
L 392.191853 110.001299 
L 390.274797 111.731497 
L 388.35774 113.157763 
L 386.440683 114.307314 
L 384.523627 115.251973 
L 382.60657 116.051809 
L 380.689514 116.723198 
L 378.772457 117.251425 
L 376.8554 117.631771 
L 374.938344 117.898274 
L 373.021287 118.038097 
L 371.104231 118.029663 
L 369.187174 117.877374 
L 367.270118 117.603972 
L 365.353061 117.16604 
L 363.436004 116.669538 
L 361.518948 116.070725 
L 359.601891 115.413746 
L 357.684835 114.715093 
L 355.767778 113.886154 
L 353.850721 113.028423 
L 351.933665 112.109737 
L 350.016608 111.131419 
L 348.099552 110.111574 
L 346.182495 109.091981 
L 344.265439 108.04037 
L 342.348382 106.993802 
L 340.431325 105.938465 
L 338.514269 104.919847 
L 336.597212 103.891271 
L 334.680156 102.890829 
L 332.763099 101.968542 
L 330.846043 101.443617 
" style="fill:none;stroke:#0173b2;stroke-linecap:round;"/>
   </g>
   <g id="line2d_22">
    <path clip-path="url(#pf8038239e4)" d="M 373.021287 133.504434 
L 373.021287 31.4133 
" style="fill:none;stroke:#0173b2;stroke-dasharray:7.4,3.2;stroke-dashoffset:0;stroke-width:2;"/>
   </g>
   <g id="line2d_23">
    <path clip-path="url(#pf8038239e4)" d="M 424.781815 65.392208 
L 422.864758 74.619545 
L 420.947702 80.620682 
L 419.030645 80.548687 
L 417.113589 80.483284 
L 415.196532 92.381573 
L 413.279475 94.121412 
L 411.362419 95.91943 
L 409.445362 100.741729 
L 407.528306 103.243754 
L 405.611249 120.776491 
L 403.694193 124.912053 
L 401.777136 125.583211 
L 399.860079 125.682331 
L 397.943023 125.74287 
L 396.025966 126.105245 
L 394.10891 127.170297 
L 392.191853 126.724111 
L 390.274797 126.513245 
L 388.35774 125.10227 
L 386.440683 123.879316 
L 384.523627 127.273364 
L 382.60657 126.617646 
L 380.689514 125.118169 
L 378.772457 123.72641 
L 376.8554 123.41343 
L 374.938344 121.539459 
L 373.021287 118.996681 
L 371.104231 117.013603 
L 369.187174 114.336049 
L 367.270118 112.471536 
L 365.353061 110.288482 
L 363.436004 108.242168 
L 361.518948 104.700875 
L 359.601891 104.163859 
L 357.684835 101.832834 
L 355.767778 99.999045 
L 353.850721 97.443148 
L 351.933665 95.583126 
L 350.016608 94.813436 
L 348.099552 91.90383 
L 346.182495 88.775025 
L 344.265439 87.793272 
L 342.348382 86.879259 
L 340.431325 85.354699 
L 338.514269 83.959894 
L 336.597212 82.961324 
L 334.680156 82.124098 
L 332.763099 80.984583 
L 330.846043 80.639381 
" style="fill:none;stroke:#de8f05;stroke-linecap:round;"/>
   </g>
   <g id="line2d_24">
    <path clip-path="url(#pf8038239e4)" d="M 384.523627 133.504434 
L 384.523627 31.4133 
" style="fill:none;stroke:#de8f05;stroke-dasharray:7.4,3.2;stroke-dashoffset:0;stroke-width:2;"/>
   </g>
   <g id="patch_13">
    <path d="M 326.149254 133.504434 
L 326.149254 31.4133 
" style="fill:none;stroke:#262626;stroke-linecap:square;stroke-linejoin:miter;stroke-width:0.8;"/>
   </g>
   <g id="patch_14">
    <path d="M 429.478604 133.504434 
L 429.478604 31.4133 
" style="fill:none;stroke:#262626;stroke-linecap:square;stroke-linejoin:miter;stroke-width:0.8;"/>
   </g>
   <g id="patch_15">
    <path d="M 326.149254 133.504434 
L 429.478604 133.504434 
" style="fill:none;stroke:#262626;stroke-linecap:square;stroke-linejoin:miter;stroke-width:0.8;"/>
   </g>
   <g id="patch_16">
    <path d="M 326.149254 31.4133 
L 429.478604 31.4133 
" style="fill:none;stroke:#262626;stroke-linecap:square;stroke-linejoin:miter;stroke-width:0.8;"/>
   </g>
   <g id="text_7">
    <!-- Corr = 0.9 -->
    <g style="fill:#262626;" transform="translate(339.74808 25.4133)scale(0.18 -0.18)">
     <defs>
      <path d="M 6.796875 2.6875 
C 9.59375 0.296875 13.203125 -2 19.296875 -2 
C 31.40625 -2 43 11.53125 43 33.375 
C 43 62.296875 30.5 67 23.796875 67 
C 17.09375 67 12.796875 63.984375 9.09375 59.203125 
C 4.703125 53.71875 3.90625 48.828125 3.90625 43.140625 
C 3.90625 36.359375 5.09375 32.171875 7.90625 27.390625 
C 11.703125 21.1875 15.203125 19.890625 19.09375 19.890625 
C 25 19.890625 30.90625 22.796875 34.90625 27.78125 
C 34.203125 14.1875 28.09375 4.1875 19.296875 4.1875 
C 15.703125 4.1875 12.796875 5.3125 9.90625 8.0625 
z
M 34.59375 43.34375 
C 34.703125 42.640625 34.703125 41.34375 34.703125 40.953125 
C 34.703125 32.578125 29.90625 26 22.90625 26 
C 18.296875 26 15.90625 28.390625 14.09375 31.484375 
C 11.90625 35.359375 11.796875 39.15625 11.796875 43.140625 
C 11.796875 47.03125 11.796875 51.3125 14.59375 55.609375 
C 16.703125 58.703125 19.296875 60.890625 23.796875 60.890625 
C 33 60.890625 34.5 47.4375 34.59375 43.34375 
z
" id="CMSS17-57"/>
     </defs>
     <use transform="scale(0.996264)" xlink:href="#CMSS17-67"/>
     <use transform="translate(59.855772 0)scale(0.996264)" xlink:href="#CMSS17-111"/>
     <use transform="translate(104.096941 0)scale(0.996264)" xlink:href="#CMSS17-114"/>
     <use transform="translate(136.006714 0)scale(0.996264)" xlink:href="#CMSS17-114"/>
     <use transform="translate(199.145599 0)scale(0.996264)" xlink:href="#CMSS17-61"/>
     <use transform="translate(303.242647 0)scale(0.996264)" xlink:href="#CMSS17-48"/>
     <use transform="translate(350.08627 0)scale(0.996264)" xlink:href="#CMSS17-46"/>
     <use transform="translate(376.110475 0)scale(0.996264)" xlink:href="#CMSS17-57"/>
    </g>
   </g>
  </g>
  <g id="axes_4">
   <g id="patch_17">
    <path d="M 452.824627 133.504434 
L 556.153977 133.504434 
L 556.153977 31.4133 
L 452.824627 31.4133 
z
" style="fill:#ffffff;"/>
   </g>
   <g id="matplotlib.axis_7">
    <g id="xtick_4">
     <g id="line2d_25">
      <g>
       <use style="fill:#262626;stroke:#262626;stroke-width:0.8;" x="551.457188" xlink:href="#m7524c818d3" y="133.504434"/>
      </g>
     </g>
    </g>
   </g>
   <g id="matplotlib.axis_8">
    <g id="ytick_10">
     <g id="line2d_26">
      <g>
       <use style="fill:#262626;stroke:#262626;stroke-width:0.8;" x="452.824627" xlink:href="#md33b4a10ba" y="124.985835"/>
      </g>
     </g>
    </g>
    <g id="ytick_11">
     <g id="line2d_27">
      <g>
       <use style="fill:#262626;stroke:#262626;stroke-width:0.8;" x="452.824627" xlink:href="#md33b4a10ba" y="79.053636"/>
      </g>
     </g>
    </g>
    <g id="ytick_12">
     <g id="line2d_28">
      <g>
       <use style="fill:#262626;stroke:#262626;stroke-width:0.8;" x="452.824627" xlink:href="#md33b4a10ba" y="33.121436"/>
      </g>
     </g>
    </g>
   </g>
   <g id="line2d_29">
    <path clip-path="url(#pe89be04f1e)" d="M 551.457188 48.850911 
L 549.540131 53.523915 
L 547.623075 59.668618 
L 545.706018 66.760959 
L 543.788962 72.95859 
L 541.871905 78.468213 
L 539.954849 83.079458 
L 538.037792 87.167775 
L 536.120735 90.758723 
L 534.203679 93.889283 
L 532.286622 96.624667 
L 530.369566 99.05725 
L 528.452509 101.257678 
L 526.535452 103.781493 
L 524.618396 106.657261 
L 522.701339 109.173038 
L 520.784283 111.383096 
L 518.867226 113.364554 
L 516.95017 115.142211 
L 515.033113 116.696261 
L 513.116056 118.04553 
L 511.199 119.253958 
L 509.281943 120.407323 
L 507.364887 121.446415 
L 505.44783 122.359641 
L 503.530774 123.155875 
L 501.613717 123.84737 
L 499.69666 124.433328 
L 497.779604 124.93458 
L 495.862547 125.360475 
L 493.945491 125.739664 
L 492.028434 126.042058 
L 490.111377 126.296001 
L 488.194321 126.521209 
L 486.277264 126.656942 
L 484.360208 126.757376 
L 482.443151 126.793454 
L 480.526095 126.761984 
L 478.609038 126.685046 
L 476.691981 126.565772 
L 474.774925 126.387198 
L 472.857868 126.166228 
L 470.940812 125.901821 
L 469.023755 125.590591 
L 467.106698 125.240618 
L 465.189642 124.838204 
L 463.272585 124.375811 
L 461.355529 123.853486 
L 459.438472 123.294552 
L 457.521416 122.688349 
" style="fill:none;stroke:#0173b2;stroke-linecap:round;"/>
   </g>
   <g id="line2d_30">
    <path clip-path="url(#pe89be04f1e)" d="M 482.443151 133.504434 
L 482.443151 31.4133 
" style="fill:none;stroke:#0173b2;stroke-dasharray:7.4,3.2;stroke-dashoffset:0;stroke-width:2;"/>
   </g>
   <g id="line2d_31">
    <path clip-path="url(#pe89be04f1e)" d="M 551.457188 64.838516 
L 549.540131 79.774152 
L 547.623075 109.442944 
L 545.706018 109.588884 
L 543.788962 111.854973 
L 541.871905 112.035079 
L 539.954849 112.173664 
L 538.037792 117.07509 
L 536.120735 117.209568 
L 534.203679 117.350015 
L 532.286622 122.495787 
L 530.369566 122.614456 
L 528.452509 122.755879 
L 526.535452 124.853342 
L 524.618396 125.360375 
L 522.701339 126.183707 
L 520.784283 126.723083 
L 518.867226 127.118014 
L 516.95017 127.256209 
L 515.033113 128.758804 
L 513.116056 128.430318 
L 511.199 128.310212 
L 509.281943 128.329779 
L 507.364887 128.607731 
L 505.44783 128.670087 
L 503.530774 128.863928 
L 501.613717 128.789559 
L 499.69666 128.708999 
L 497.779604 128.70645 
L 495.862547 128.606101 
L 493.945491 128.300995 
L 492.028434 127.816486 
L 490.111377 127.252796 
L 488.194321 126.060673 
L 486.277264 125.077662 
L 484.360208 124.382943 
L 482.443151 123.07558 
L 480.526095 121.49276 
L 478.609038 120.700257 
L 476.691981 119.711577 
L 474.774925 117.187323 
L 472.857868 115.010341 
L 470.940812 113.360683 
L 469.023755 110.792457 
L 467.106698 108.225683 
L 465.189642 106.325512 
L 463.272585 103.89586 
L 461.355529 101.030233 
L 459.438472 100.552466 
L 457.521416 97.752617 
" style="fill:none;stroke:#de8f05;stroke-linecap:round;"/>
   </g>
   <g id="line2d_32">
    <path clip-path="url(#pe89be04f1e)" d="M 503.530774 133.504434 
L 503.530774 31.4133 
" style="fill:none;stroke:#de8f05;stroke-dasharray:7.4,3.2;stroke-dashoffset:0;stroke-width:2;"/>
   </g>
   <g id="patch_18">
    <path d="M 452.824627 133.504434 
L 452.824627 31.4133 
" style="fill:none;stroke:#262626;stroke-linecap:square;stroke-linejoin:miter;stroke-width:0.8;"/>
   </g>
   <g id="patch_19">
    <path d="M 556.153977 133.504434 
L 556.153977 31.4133 
" style="fill:none;stroke:#262626;stroke-linecap:square;stroke-linejoin:miter;stroke-width:0.8;"/>
   </g>
   <g id="patch_20">
    <path d="M 452.824627 133.504434 
L 556.153977 133.504434 
" style="fill:none;stroke:#262626;stroke-linecap:square;stroke-linejoin:miter;stroke-width:0.8;"/>
   </g>
   <g id="patch_21">
    <path d="M 452.824627 31.4133 
L 556.153977 31.4133 
" style="fill:none;stroke:#262626;stroke-linecap:square;stroke-linejoin:miter;stroke-width:0.8;"/>
   </g>
   <g id="text_8">
    <!-- Corr = 0.99 -->
    <g style="fill:#262626;" transform="translate(462.207528 25.4133)scale(0.18 -0.18)">
     <use transform="scale(0.996264)" xlink:href="#CMSS17-67"/>
     <use transform="translate(59.855772 0)scale(0.996264)" xlink:href="#CMSS17-111"/>
     <use transform="translate(104.096941 0)scale(0.996264)" xlink:href="#CMSS17-114"/>
     <use transform="translate(136.006714 0)scale(0.996264)" xlink:href="#CMSS17-114"/>
     <use transform="translate(199.145599 0)scale(0.996264)" xlink:href="#CMSS17-61"/>
     <use transform="translate(303.242647 0)scale(0.996264)" xlink:href="#CMSS17-48"/>
     <use transform="translate(350.08627 0)scale(0.996264)" xlink:href="#CMSS17-46"/>
     <use transform="translate(376.110475 0)scale(0.996264)" xlink:href="#CMSS17-57"/>
     <use transform="translate(422.954099 0)scale(0.996264)" xlink:href="#CMSS17-57"/>
    </g>
   </g>
  </g>
  <g id="axes_5">
   <g id="patch_22">
    <path d="M 72.798508 253.835159 
L 176.127857 253.835159 
L 176.127857 151.744025 
L 72.798508 151.744025 
z
" style="fill:#ffffff;"/>
   </g>
   <g id="matplotlib.axis_9">
    <g id="xtick_5">
     <g id="line2d_33">
      <g>
       <use style="fill:#262626;stroke:#262626;stroke-width:0.8;" x="171.431069" xlink:href="#m7524c818d3" y="253.835159"/>
      </g>
     </g>
    </g>
   </g>
   <g id="matplotlib.axis_10">
    <g id="ytick_13">
     <g id="line2d_34">
      <g>
       <use style="fill:#262626;stroke:#262626;stroke-width:0.8;" x="72.798508" xlink:href="#md33b4a10ba" y="221.605035"/>
      </g>
     </g>
     <g id="text_9">
      <!-- $\mathdefault{2500}$ -->
      <g style="fill:#262626;" transform="translate(32.901364 227.831685)scale(0.18 -0.18)">
       <use transform="scale(0.996264)" xlink:href="#CMR17-50"/>
       <use transform="translate(45.690477 0)scale(0.996264)" xlink:href="#CMR17-53"/>
       <use transform="translate(91.380954 0)scale(0.996264)" xlink:href="#CMR17-48"/>
       <use transform="translate(137.071431 0)scale(0.996264)" xlink:href="#CMR17-48"/>
      </g>
     </g>
    </g>
    <g id="ytick_14">
     <g id="line2d_35">
      <g>
       <use style="fill:#262626;stroke:#262626;stroke-width:0.8;" x="72.798508" xlink:href="#md33b4a10ba" y="189.07106"/>
      </g>
     </g>
     <g id="text_10">
      <!-- $\mathdefault{5000}$ -->
      <g style="fill:#262626;" transform="translate(32.901364 195.29771)scale(0.18 -0.18)">
       <use transform="scale(0.996264)" xlink:href="#CMR17-53"/>
       <use transform="translate(45.690477 0)scale(0.996264)" xlink:href="#CMR17-48"/>
       <use transform="translate(91.380954 0)scale(0.996264)" xlink:href="#CMR17-48"/>
       <use transform="translate(137.071431 0)scale(0.996264)" xlink:href="#CMR17-48"/>
      </g>
     </g>
    </g>
    <g id="ytick_15">
     <g id="line2d_36">
      <g>
       <use style="fill:#262626;stroke:#262626;stroke-width:0.8;" x="72.798508" xlink:href="#md33b4a10ba" y="156.537086"/>
      </g>
     </g>
     <g id="text_11">
      <!-- $\mathdefault{7500}$ -->
      <g style="fill:#262626;" transform="translate(32.901364 162.763736)scale(0.18 -0.18)">
       <use transform="scale(0.996264)" xlink:href="#CMR17-55"/>
       <use transform="translate(45.690477 0)scale(0.996264)" xlink:href="#CMR17-53"/>
       <use transform="translate(91.380954 0)scale(0.996264)" xlink:href="#CMR17-48"/>
       <use transform="translate(137.071431 0)scale(0.996264)" xlink:href="#CMR17-48"/>
      </g>
     </g>
    </g>
    <g id="text_12">
     <!-- SURE -->
     <g style="fill:#262626;" transform="translate(25.4133 223.714252)rotate(-90)scale(0.18 -0.18)">
      <defs>
       <path d="M 55.5 69 
L 47.90625 69 
L 47.90625 22.796875 
C 47.90625 9.5 39.796875 3.59375 32.40625 3.59375 
C 24.796875 3.59375 17.203125 9.796875 17.203125 22.6875 
L 17.203125 69 
L 8.796875 69 
L 8.796875 22.890625 
C 8.796875 8.5 19.90625 -2 32.296875 -2 
C 44.703125 -2 55.5 8.5 55.5 22.890625 
z
" id="CMSS17-85"/>
       <path d="M 39.40625 32.796875 
L 39.59375 32.890625 
C 55.203125 38.28125 55.296875 48.828125 55.296875 50.6875 
C 55.296875 59.96875 45.703125 69 31.296875 69 
L 8.90625 69 
L 8.90625 0 
L 17.09375 0 
L 17.09375 31.890625 
L 31.796875 31.890625 
L 49.5 0 
L 57.90625 0 
z
M 17.09375 38 
L 17.09375 63.390625 
L 30.203125 63.390625 
C 42.90625 63.390625 47.40625 56.359375 47.40625 50.6875 
C 47.40625 45.421875 43.40625 38 30.203125 38 
z
" id="CMSS17-82"/>
      </defs>
      <use transform="scale(0.996264)" xlink:href="#CMSS17-83"/>
      <use transform="translate(52.048516 0)scale(0.996264)" xlink:href="#CMSS17-85"/>
      <use transform="translate(116.188256 0)scale(0.996264)" xlink:href="#CMSS17-82"/>
      <use transform="translate(176.604411 0)scale(0.996264)" xlink:href="#CMSS17-69"/>
     </g>
    </g>
   </g>
   <g id="line2d_37">
    <path clip-path="url(#pf2d2bfe034)" d="M 171.431069 156.384531 
L 169.514012 162.846226 
L 167.596956 170.940793 
L 165.679899 179.583454 
L 163.762843 187.985004 
L 161.845786 195.133395 
L 159.928729 202.444772 
L 158.011673 209.156791 
L 156.094616 214.905356 
L 154.17756 219.823595 
L 152.260503 224.003781 
L 150.343446 227.457512 
L 148.42639 230.242094 
L 146.509333 232.253072 
L 144.592277 233.566469 
L 142.67522 234.115694 
L 140.758164 234.416756 
L 138.841107 234.751066 
L 136.92405 235.202696 
L 135.006994 235.422299 
L 133.089937 235.546086 
L 131.172881 235.717851 
L 129.255824 235.755053 
L 127.338768 235.692737 
L 125.421711 235.535395 
L 123.504654 235.2819 
L 121.587598 234.959725 
L 119.670541 234.562742 
L 117.753485 234.10331 
L 115.836428 233.595152 
L 113.919371 233.064848 
L 112.002315 232.499703 
L 110.085258 231.911028 
L 108.168202 231.316426 
L 106.251145 230.703331 
L 104.334089 230.085078 
L 102.417032 229.4634 
L 100.499975 228.846461 
L 98.582919 228.231108 
L 96.665862 227.633704 
L 94.748806 227.046751 
L 92.831749 226.475412 
L 90.914693 225.92637 
L 88.997636 225.393621 
L 87.080579 224.884784 
L 85.163523 224.39695 
L 83.246466 223.927519 
L 81.32941 223.419806 
L 79.412353 223.036755 
L 77.495296 222.652027 
" style="fill:none;stroke:#0173b2;stroke-linecap:round;"/>
   </g>
   <g id="line2d_38">
    <path clip-path="url(#pf2d2bfe034)" d="M 129.255824 253.835159 
L 129.255824 151.744025 
" style="fill:none;stroke:#0173b2;stroke-dasharray:7.4,3.2;stroke-dashoffset:0;stroke-width:2;"/>
   </g>
   <g id="line2d_39">
    <path clip-path="url(#pf2d2bfe034)" d="M 171.431069 156.522236 
L 169.514012 214.076982 
L 167.596956 232.299411 
L 165.679899 232.733337 
L 163.762843 233.041765 
L 161.845786 233.283539 
L 159.928729 245.736481 
L 158.011673 245.974411 
L 156.094616 246.149632 
L 154.17756 246.284443 
L 152.260503 246.387464 
L 150.343446 246.465089 
L 148.42639 246.522362 
L 146.509333 246.563331 
L 144.592277 244.842964 
L 142.67522 240.246364 
L 140.758164 235.820599 
L 138.841107 232.380583 
L 136.92405 227.486112 
L 135.006994 225.294276 
L 133.089937 226.396472 
L 131.172881 229.435485 
L 129.255824 227.985664 
L 127.338768 225.790383 
L 125.421711 225.637563 
L 123.504654 225.908323 
L 121.587598 225.915405 
L 119.670541 225.475204 
L 117.753485 225.434815 
L 115.836428 225.688068 
L 113.919371 225.741325 
L 112.002315 225.055168 
L 110.085258 224.632879 
L 108.168202 224.112494 
L 106.251145 223.648835 
L 104.334089 223.244399 
L 102.417032 222.741728 
L 100.499975 222.38346 
L 98.582919 222.037302 
L 96.665862 221.794113 
L 94.748806 221.465643 
L 92.831749 221.150232 
L 90.914693 220.866122 
L 88.997636 220.617841 
L 87.080579 220.394261 
L 85.163523 220.174921 
L 83.246466 219.987232 
L 81.32941 219.799342 
L 79.412353 219.589589 
L 77.495296 219.403122 
" style="fill:none;stroke:#de8f05;stroke-linecap:round;"/>
   </g>
   <g id="line2d_40">
    <path clip-path="url(#pf2d2bfe034)" d="M 146.509333 253.835159 
L 146.509333 151.744025 
" style="fill:none;stroke:#de8f05;stroke-dasharray:7.4,3.2;stroke-dashoffset:0;stroke-width:2;"/>
   </g>
   <g id="patch_23">
    <path d="M 72.798508 253.835159 
L 72.798508 151.744025 
" style="fill:none;stroke:#262626;stroke-linecap:square;stroke-linejoin:miter;stroke-width:0.8;"/>
   </g>
   <g id="patch_24">
    <path d="M 176.127857 253.835159 
L 176.127857 151.744025 
" style="fill:none;stroke:#262626;stroke-linecap:square;stroke-linejoin:miter;stroke-width:0.8;"/>
   </g>
   <g id="patch_25">
    <path d="M 72.798508 253.835159 
L 176.127857 253.835159 
" style="fill:none;stroke:#262626;stroke-linecap:square;stroke-linejoin:miter;stroke-width:0.8;"/>
   </g>
   <g id="patch_26">
    <path d="M 72.798508 151.744025 
L 176.127857 151.744025 
" style="fill:none;stroke:#262626;stroke-linecap:square;stroke-linejoin:miter;stroke-width:0.8;"/>
   </g>
  </g>
  <g id="axes_6">
   <g id="patch_27">
    <path d="M 199.473881 253.835159 
L 302.803231 253.835159 
L 302.803231 151.744025 
L 199.473881 151.744025 
z
" style="fill:#ffffff;"/>
   </g>
   <g id="matplotlib.axis_11">
    <g id="xtick_6">
     <g id="line2d_41">
      <g>
       <use style="fill:#262626;stroke:#262626;stroke-width:0.8;" x="298.106442" xlink:href="#m7524c818d3" y="253.835159"/>
      </g>
     </g>
    </g>
   </g>
   <g id="matplotlib.axis_12">
    <g id="ytick_16">
     <g id="line2d_42">
      <g>
       <use style="fill:#262626;stroke:#262626;stroke-width:0.8;" x="199.473881" xlink:href="#md33b4a10ba" y="221.605035"/>
      </g>
     </g>
    </g>
    <g id="ytick_17">
     <g id="line2d_43">
      <g>
       <use style="fill:#262626;stroke:#262626;stroke-width:0.8;" x="199.473881" xlink:href="#md33b4a10ba" y="189.07106"/>
      </g>
     </g>
    </g>
    <g id="ytick_18">
     <g id="line2d_44">
      <g>
       <use style="fill:#262626;stroke:#262626;stroke-width:0.8;" x="199.473881" xlink:href="#md33b4a10ba" y="156.537086"/>
      </g>
     </g>
    </g>
   </g>
   <g id="line2d_45">
    <path clip-path="url(#p15f21f6d49)" d="M 298.106442 169.337341 
L 296.189385 172.969065 
L 294.272329 176.186497 
L 292.355272 180.607582 
L 290.438216 186.57887 
L 288.521159 193.53402 
L 286.604102 199.79344 
L 284.687046 206.218722 
L 282.769989 211.697363 
L 280.852933 216.375282 
L 278.935876 220.424736 
L 277.01882 223.889917 
L 275.101763 226.797661 
L 273.184706 228.892287 
L 271.26765 230.924464 
L 269.350593 232.862189 
L 267.433537 234.290809 
L 265.51648 235.492082 
L 263.599423 236.441241 
L 261.682367 237.246128 
L 259.76531 237.875807 
L 257.848254 238.354483 
L 255.931197 238.862139 
L 254.014141 239.239436 
L 252.097084 239.499538 
L 250.180027 239.598521 
L 248.262971 239.60314 
L 246.345914 239.506485 
L 244.428858 239.309409 
L 242.511801 239.0428 
L 240.594745 238.750412 
L 238.677688 238.372011 
L 236.760631 237.93838 
L 234.843575 237.447496 
L 232.926518 236.918745 
L 231.009462 236.366654 
L 229.092405 235.805276 
L 227.175348 235.242389 
L 225.258292 234.593396 
L 223.341235 234.113476 
L 221.424179 233.556543 
L 219.507122 233.005068 
L 217.590066 232.460278 
L 215.673009 231.942702 
L 213.755952 231.39893 
L 211.838896 230.918484 
L 209.921839 230.433379 
L 208.004783 229.92994 
L 206.087726 229.545355 
L 204.170669 229.10004 
" style="fill:none;stroke:#0173b2;stroke-linecap:round;"/>
   </g>
   <g id="line2d_46">
    <path clip-path="url(#p15f21f6d49)" d="M 248.262971 253.835159 
L 248.262971 151.744025 
" style="fill:none;stroke:#0173b2;stroke-dasharray:7.4,3.2;stroke-dashoffset:0;stroke-width:2;"/>
   </g>
   <g id="line2d_47">
    <path clip-path="url(#p15f21f6d49)" d="M 298.106442 164.524454 
L 296.189385 193.20592 
L 294.272329 193.326248 
L 292.355272 193.259856 
L 290.438216 210.539168 
L 288.521159 231.302911 
L 286.604102 231.499973 
L 284.687046 241.75849 
L 282.769989 241.959237 
L 280.852933 242.113882 
L 278.935876 242.234971 
L 277.01882 242.32951 
L 275.101763 242.402712 
L 273.184706 240.4551 
L 271.26765 248.544091 
L 269.350593 245.642408 
L 267.433537 242.993233 
L 265.51648 241.105335 
L 263.599423 238.541402 
L 261.682367 236.696443 
L 259.76531 236.756605 
L 257.848254 234.010189 
L 255.931197 234.11428 
L 254.014141 233.416629 
L 252.097084 233.775932 
L 250.180027 234.674773 
L 248.262971 233.313389 
L 246.345914 232.374612 
L 244.428858 232.34754 
L 242.511801 232.35724 
L 240.594745 231.508172 
L 238.677688 231.096328 
L 236.760631 230.352406 
L 234.843575 230.032142 
L 232.926518 230.059849 
L 231.009462 229.765201 
L 229.092405 229.507004 
L 227.175348 229.208133 
L 225.258292 228.684908 
L 223.341235 228.358297 
L 221.424179 227.925889 
L 219.507122 227.529475 
L 217.590066 227.087651 
L 215.673009 226.607276 
L 213.755952 226.275045 
L 211.838896 226.017888 
L 209.921839 225.78497 
L 208.004783 225.573188 
L 206.087726 225.355217 
L 204.170669 225.156212 
" style="fill:none;stroke:#de8f05;stroke-linecap:round;"/>
   </g>
   <g id="line2d_48">
    <path clip-path="url(#p15f21f6d49)" d="M 271.26765 253.835159 
L 271.26765 151.744025 
" style="fill:none;stroke:#de8f05;stroke-dasharray:7.4,3.2;stroke-dashoffset:0;stroke-width:2;"/>
   </g>
   <g id="patch_28">
    <path d="M 199.473881 253.835159 
L 199.473881 151.744025 
" style="fill:none;stroke:#262626;stroke-linecap:square;stroke-linejoin:miter;stroke-width:0.8;"/>
   </g>
   <g id="patch_29">
    <path d="M 302.803231 253.835159 
L 302.803231 151.744025 
" style="fill:none;stroke:#262626;stroke-linecap:square;stroke-linejoin:miter;stroke-width:0.8;"/>
   </g>
   <g id="patch_30">
    <path d="M 199.473881 253.835159 
L 302.803231 253.835159 
" style="fill:none;stroke:#262626;stroke-linecap:square;stroke-linejoin:miter;stroke-width:0.8;"/>
   </g>
   <g id="patch_31">
    <path d="M 199.473881 151.744025 
L 302.803231 151.744025 
" style="fill:none;stroke:#262626;stroke-linecap:square;stroke-linejoin:miter;stroke-width:0.8;"/>
   </g>
  </g>
  <g id="axes_7">
   <g id="patch_32">
    <path d="M 326.149254 253.835159 
L 429.478604 253.835159 
L 429.478604 151.744025 
L 326.149254 151.744025 
z
" style="fill:#ffffff;"/>
   </g>
   <g id="matplotlib.axis_13">
    <g id="xtick_7">
     <g id="line2d_49">
      <g>
       <use style="fill:#262626;stroke:#262626;stroke-width:0.8;" x="424.781815" xlink:href="#m7524c818d3" y="253.835159"/>
      </g>
     </g>
    </g>
   </g>
   <g id="matplotlib.axis_14">
    <g id="ytick_19">
     <g id="line2d_50">
      <g>
       <use style="fill:#262626;stroke:#262626;stroke-width:0.8;" x="326.149254" xlink:href="#md33b4a10ba" y="221.605035"/>
      </g>
     </g>
    </g>
    <g id="ytick_20">
     <g id="line2d_51">
      <g>
       <use style="fill:#262626;stroke:#262626;stroke-width:0.8;" x="326.149254" xlink:href="#md33b4a10ba" y="189.07106"/>
      </g>
     </g>
    </g>
    <g id="ytick_21">
     <g id="line2d_52">
      <g>
       <use style="fill:#262626;stroke:#262626;stroke-width:0.8;" x="326.149254" xlink:href="#md33b4a10ba" y="156.537086"/>
      </g>
     </g>
    </g>
   </g>
   <g id="line2d_53">
    <path clip-path="url(#p1516699508)" d="M 424.781815 169.871292 
L 422.864758 173.542881 
L 420.947702 178.697462 
L 419.030645 183.143009 
L 417.113589 186.982781 
L 415.196532 191.036935 
L 413.279475 196.021713 
L 411.362419 200.460242 
L 409.445362 206.22947 
L 407.528306 211.186838 
L 405.611249 216.35604 
L 403.694193 220.746625 
L 401.777136 224.435898 
L 399.860079 227.690482 
L 397.943023 230.767433 
L 396.025966 233.346104 
L 394.10891 235.431463 
L 392.191853 237.159403 
L 390.274797 238.585345 
L 388.35774 239.497939 
L 386.440683 240.302893 
L 384.523627 241.078161 
L 382.60657 241.669974 
L 380.689514 242.246728 
L 378.772457 242.664044 
L 376.8554 242.811801 
L 374.938344 242.83737 
L 373.021287 242.753594 
L 371.104231 242.593647 
L 369.187174 242.355056 
L 367.270118 242.091081 
L 365.353061 241.752791 
L 363.436004 241.389125 
L 361.518948 240.936697 
L 359.601891 240.434281 
L 357.684835 239.924374 
L 355.767778 239.38915 
L 353.850721 238.846616 
L 351.933665 238.327478 
L 350.016608 237.76829 
L 348.099552 237.235568 
L 346.182495 236.695126 
L 344.265439 236.055697 
L 342.348382 235.480667 
L 340.431325 234.896937 
L 338.514269 234.320753 
L 336.597212 233.740127 
L 334.680156 233.169791 
L 332.763099 232.608472 
L 330.846043 232.053742 
" style="fill:none;stroke:#0173b2;stroke-linecap:round;"/>
   </g>
   <g id="line2d_54">
    <path clip-path="url(#p1516699508)" d="M 374.938344 253.835159 
L 374.938344 151.744025 
" style="fill:none;stroke:#0173b2;stroke-dasharray:7.4,3.2;stroke-dashoffset:0;stroke-width:2;"/>
   </g>
   <g id="line2d_55">
    <path clip-path="url(#p1516699508)" d="M 424.781815 169.871292 
L 422.864758 198.835541 
L 420.947702 210.413133 
L 419.030645 210.240527 
L 417.113589 210.502979 
L 415.196532 221.934679 
L 413.279475 222.263417 
L 411.362419 222.664622 
L 409.445362 237.896353 
L 407.528306 244.230672 
L 405.611249 244.44993 
L 403.694193 244.594461 
L 401.777136 244.703215 
L 399.860079 244.784642 
L 397.943023 244.049288 
L 396.025966 244.060692 
L 394.10891 247.915604 
L 392.191853 248.400784 
L 390.274797 247.858579 
L 388.35774 245.336414 
L 386.440683 243.035001 
L 384.523627 240.414007 
L 382.60657 239.291799 
L 380.689514 239.054288 
L 378.772457 238.371002 
L 376.8554 238.782516 
L 374.938344 236.06381 
L 373.021287 235.880464 
L 371.104231 233.808278 
L 369.187174 234.260071 
L 367.270118 232.481052 
L 365.353061 232.413957 
L 363.436004 231.184893 
L 361.518948 230.311601 
L 359.601891 228.435453 
L 357.684835 228.290764 
L 355.767778 228.770545 
L 353.850721 228.886402 
L 351.933665 228.886181 
L 350.016608 228.604405 
L 348.099552 228.149126 
L 346.182495 227.805145 
L 344.265439 227.504102 
L 342.348382 227.211923 
L 340.431325 227.113861 
L 338.514269 226.940352 
L 336.597212 226.756583 
L 334.680156 226.645255 
L 332.763099 226.486922 
L 330.846043 226.287994 
" style="fill:none;stroke:#de8f05;stroke-linecap:round;"/>
   </g>
   <g id="line2d_56">
    <path clip-path="url(#p1516699508)" d="M 392.191853 253.835159 
L 392.191853 151.744025 
" style="fill:none;stroke:#de8f05;stroke-dasharray:7.4,3.2;stroke-dashoffset:0;stroke-width:2;"/>
   </g>
   <g id="patch_33">
    <path d="M 326.149254 253.835159 
L 326.149254 151.744025 
" style="fill:none;stroke:#262626;stroke-linecap:square;stroke-linejoin:miter;stroke-width:0.8;"/>
   </g>
   <g id="patch_34">
    <path d="M 429.478604 253.835159 
L 429.478604 151.744025 
" style="fill:none;stroke:#262626;stroke-linecap:square;stroke-linejoin:miter;stroke-width:0.8;"/>
   </g>
   <g id="patch_35">
    <path d="M 326.149254 253.835159 
L 429.478604 253.835159 
" style="fill:none;stroke:#262626;stroke-linecap:square;stroke-linejoin:miter;stroke-width:0.8;"/>
   </g>
   <g id="patch_36">
    <path d="M 326.149254 151.744025 
L 429.478604 151.744025 
" style="fill:none;stroke:#262626;stroke-linecap:square;stroke-linejoin:miter;stroke-width:0.8;"/>
   </g>
  </g>
  <g id="axes_8">
   <g id="patch_37">
    <path d="M 452.824627 253.835159 
L 556.153977 253.835159 
L 556.153977 151.744025 
L 452.824627 151.744025 
z
" style="fill:#ffffff;"/>
   </g>
   <g id="matplotlib.axis_15">
    <g id="xtick_8">
     <g id="line2d_57">
      <g>
       <use style="fill:#262626;stroke:#262626;stroke-width:0.8;" x="551.457188" xlink:href="#m7524c818d3" y="253.835159"/>
      </g>
     </g>
    </g>
   </g>
   <g id="matplotlib.axis_16">
    <g id="ytick_22">
     <g id="line2d_58">
      <g>
       <use style="fill:#262626;stroke:#262626;stroke-width:0.8;" x="452.824627" xlink:href="#md33b4a10ba" y="221.605035"/>
      </g>
     </g>
    </g>
    <g id="ytick_23">
     <g id="line2d_59">
      <g>
       <use style="fill:#262626;stroke:#262626;stroke-width:0.8;" x="452.824627" xlink:href="#md33b4a10ba" y="189.07106"/>
      </g>
     </g>
    </g>
    <g id="ytick_24">
     <g id="line2d_60">
      <g>
       <use style="fill:#262626;stroke:#262626;stroke-width:0.8;" x="452.824627" xlink:href="#md33b4a10ba" y="156.537086"/>
      </g>
     </g>
    </g>
   </g>
   <g id="line2d_61">
    <path clip-path="url(#pcdce4777b7)" d="M 551.457188 164.579308 
L 549.540131 174.05063 
L 547.623075 182.083045 
L 545.706018 188.914923 
L 543.788962 194.724598 
L 541.871905 199.835027 
L 539.954849 205.617555 
L 538.037792 210.605496 
L 536.120735 214.927838 
L 534.203679 218.646712 
L 532.286622 222.214659 
L 530.369566 225.503664 
L 528.452509 228.375506 
L 526.535452 230.873615 
L 524.618396 233.036932 
L 522.701339 234.919814 
L 520.784283 236.615377 
L 518.867226 238.198069 
L 516.95017 239.554547 
L 515.033113 240.752122 
L 513.116056 241.757193 
L 511.199 242.637309 
L 509.281943 243.429009 
L 507.364887 244.136422 
L 505.44783 244.725189 
L 503.530774 245.313546 
L 501.613717 245.754568 
L 499.69666 246.109669 
L 497.779604 246.351785 
L 495.862547 246.497274 
L 493.945491 246.581603 
L 492.028434 246.608825 
L 490.111377 246.668708 
L 488.194321 246.709314 
L 486.277264 246.79657 
L 484.360208 246.843318 
L 482.443151 246.843507 
L 480.526095 246.805663 
L 478.609038 246.712278 
L 476.691981 246.585535 
L 474.774925 246.419017 
L 472.857868 246.215173 
L 470.940812 245.952264 
L 469.023755 245.612372 
L 467.106698 245.239676 
L 465.189642 244.829591 
L 463.272585 244.448106 
L 461.355529 244.108584 
L 459.438472 243.6872 
L 457.521416 243.400639 
" style="fill:none;stroke:#0173b2;stroke-linecap:round;"/>
   </g>
   <g id="line2d_62">
    <path clip-path="url(#pcdce4777b7)" d="M 482.443151 253.835159 
L 482.443151 151.744025 
" style="fill:none;stroke:#0173b2;stroke-dasharray:7.4,3.2;stroke-dashoffset:0;stroke-width:2;"/>
   </g>
   <g id="line2d_63">
    <path clip-path="url(#pcdce4777b7)" d="M 551.457188 164.677626 
L 549.540131 226.171118 
L 547.623075 226.361301 
L 545.706018 226.514913 
L 543.788962 226.64047 
L 541.871905 226.762346 
L 539.954849 240.571462 
L 538.037792 242.026666 
L 536.120735 242.293137 
L 534.203679 242.506035 
L 532.286622 242.673899 
L 530.369566 242.809576 
L 528.452509 242.919347 
L 526.535452 243.007945 
L 524.618396 243.079131 
L 522.701339 247.396158 
L 520.784283 247.592838 
L 518.867226 247.72594 
L 516.95017 247.839235 
L 515.033113 248.782436 
L 513.116056 248.869807 
L 511.199 248.9432 
L 509.281943 249.0035 
L 507.364887 249.052037 
L 505.44783 249.090058 
L 503.530774 248.452486 
L 501.613717 249.194653 
L 499.69666 248.531462 
L 497.779604 248.335785 
L 495.862547 247.087734 
L 493.945491 244.686279 
L 492.028434 244.466012 
L 490.111377 243.091975 
L 488.194321 242.023617 
L 486.277264 243.047715 
L 484.360208 244.172245 
L 482.443151 245.699178 
L 480.526095 242.786342 
L 478.609038 239.157797 
L 476.691981 238.363054 
L 474.774925 236.349176 
L 472.857868 235.286581 
L 470.940812 232.012007 
L 469.023755 232.299745 
L 467.106698 231.822729 
L 465.189642 231.343814 
L 463.272585 230.826456 
L 461.355529 230.90889 
L 459.438472 230.762438 
L 457.521416 229.719685 
" style="fill:none;stroke:#de8f05;stroke-linecap:round;"/>
   </g>
   <g id="line2d_64">
    <path clip-path="url(#pcdce4777b7)" d="M 501.613717 253.835159 
L 501.613717 151.744025 
" style="fill:none;stroke:#de8f05;stroke-dasharray:7.4,3.2;stroke-dashoffset:0;stroke-width:2;"/>
   </g>
   <g id="patch_38">
    <path d="M 452.824627 253.835159 
L 452.824627 151.744025 
" style="fill:none;stroke:#262626;stroke-linecap:square;stroke-linejoin:miter;stroke-width:0.8;"/>
   </g>
   <g id="patch_39">
    <path d="M 556.153977 253.835159 
L 556.153977 151.744025 
" style="fill:none;stroke:#262626;stroke-linecap:square;stroke-linejoin:miter;stroke-width:0.8;"/>
   </g>
   <g id="patch_40">
    <path d="M 452.824627 253.835159 
L 556.153977 253.835159 
" style="fill:none;stroke:#262626;stroke-linecap:square;stroke-linejoin:miter;stroke-width:0.8;"/>
   </g>
   <g id="patch_41">
    <path d="M 452.824627 151.744025 
L 556.153977 151.744025 
" style="fill:none;stroke:#262626;stroke-linecap:square;stroke-linejoin:miter;stroke-width:0.8;"/>
   </g>
  </g>
  <g id="axes_9">
   <g id="patch_42">
    <path d="M 72.798508 374.165884 
L 176.127857 374.165884 
L 176.127857 272.07475 
L 72.798508 272.07475 
z
" style="fill:#ffffff;"/>
   </g>
   <g id="matplotlib.axis_17">
    <g id="xtick_9">
     <g id="line2d_65">
      <g>
       <use style="fill:#262626;stroke:#262626;stroke-width:0.8;" x="171.431069" xlink:href="#m7524c818d3" y="374.165884"/>
      </g>
     </g>
     <g id="text_13">
      <!-- $\mathdefault{10^{0}}$ -->
      <g style="fill:#262626;" transform="translate(160.133978 393.619184)scale(0.18 -0.18)">
       <defs>
        <path d="M 26.59375 63.796875 
C 26.59375 65.890625 26.5 66 25.09375 66 
C 21.203125 61.359375 15.296875 59.890625 9.703125 59.6875 
C 9.40625 59.6875 8.90625 59.6875 8.796875 59.5 
C 8.703125 59.296875 8.703125 59.09375 8.703125 57 
C 11.796875 57 17 57.59375 21 59.984375 
L 21 7.296875 
C 21 3.796875 20.796875 2.59375 12.203125 2.59375 
L 9.203125 2.59375 
L 9.203125 0 
C 14 0.09375 19 0.1875 23.796875 0.1875 
C 28.59375 0.1875 33.59375 0.09375 38.40625 0 
L 38.40625 2.59375 
L 35.40625 2.59375 
C 26.796875 2.59375 26.59375 3.6875 26.59375 7.296875 
z
" id="CMR17-49"/>
       </defs>
       <use transform="scale(0.996264)" xlink:href="#CMR17-49"/>
       <use transform="translate(45.690477 0)scale(0.996264)" xlink:href="#CMR17-48"/>
       <use transform="translate(91.380954 36.153639)scale(0.697382)" xlink:href="#CMR17-48"/>
      </g>
     </g>
    </g>
    <g id="text_14">
     <!-- $\lambda / \lambda_{\mathrm{max}}$ -->
     <g style="fill:#262626;" transform="translate(98.393046 414.556812)scale(0.18 -0.18)">
      <defs>
       <path d="M 30.90625 61.921875 
C 28.40625 69 20.5 69 19.203125 69 
C 18.59375 69 17.5 69 17.5 67.984375 
C 17.5 67.1875 18.09375 67.09375 18.59375 66.984375 
C 20.09375 66.796875 21.296875 66.59375 22.90625 63.71875 
C 23.90625 61.828125 34.203125 32.109375 34.203125 31.90625 
C 34.203125 31.8125 34.09375 31.703125 33.296875 30.90625 
L 7.296875 4.765625 
C 6.09375 3.578125 5.296875 2.78125 5.296875 1.484375 
C 5.296875 0.09375 6.5 -1.109375 8.09375 -1.109375 
C 8.5 -1.109375 9.59375 -0.90625 10.203125 -0.3125 
C 11.796875 1.1875 26.09375 18.59375 35.203125 29.328125 
C 37.796875 21.5625 41 12.421875 44.09375 4.078125 
C 44.59375 2.578125 45.09375 1.1875 46.5 -0.109375 
C 47.5 -1 47.703125 -1 50.5 -1 
L 52.40625 -1 
C 52.796875 -1 53.5 -1 53.5 -0.203125 
C 53.5 0.1875 53.40625 0.296875 53 0.6875 
C 52.09375 1.78125 51.40625 3.578125 51 4.765625 
z
" id="CMMI12-21"/>
       <path d="M 42.90625 71.296875 
C 42.90625 71.390625 43.5 72.890625 43.5 73.09375 
C 43.5 74.296875 42.5 75 41.703125 75 
C 41.203125 75 40.296875 75 39.5 72.796875 
L 6 -21.3125 
C 6 -21.40625 5.40625 -22.90625 5.40625 -23.109375 
C 5.40625 -24.3125 6.40625 -25 7.203125 -25 
C 7.796875 -25 8.703125 -24.90625 9.40625 -22.8125 
z
" id="CMMI12-61"/>
       <path d="M 67.59375 30.53125 
C 67.59375 35.5625 66.703125 44 54.796875 44 
C 48 44 43.296875 39.375 41.5 33.953125 
L 41.40625 33.953125 
C 40.203125 42.1875 34.296875 44 28.703125 44 
C 20.796875 44 16.703125 37.875 15.203125 33.84375 
L 15.09375 33.84375 
L 15.09375 44 
L 3.296875 42.890625 
L 3.296875 40.28125 
C 9.203125 40.28125 10.09375 39.6875 10.09375 34.859375 
L 10.09375 6.921875 
C 10.09375 3.09375 9.703125 2.59375 3.296875 2.59375 
L 3.296875 0 
C 5.703125 0.1875 10.09375 0.1875 12.703125 0.1875 
C 15.296875 0.1875 19.796875 0.1875 22.203125 0 
L 22.203125 2.59375 
C 15.796875 2.59375 15.40625 3 15.40625 6.921875 
L 15.40625 26.21875 
C 15.40625 35.453125 21 42.390625 28 42.390625 
C 35.40625 42.390625 36.203125 35.765625 36.203125 30.9375 
L 36.203125 6.921875 
C 36.203125 3.09375 35.796875 2.59375 29.40625 2.59375 
L 29.40625 0 
C 31.796875 0.1875 36.203125 0.1875 38.796875 0.1875 
C 41.40625 0.1875 45.90625 0.1875 48.296875 0 
L 48.296875 2.59375 
C 41.90625 2.59375 41.5 3 41.5 6.921875 
L 41.5 26.21875 
C 41.5 35.453125 47.09375 42.390625 54.09375 42.390625 
C 61.5 42.390625 62.296875 35.765625 62.296875 30.9375 
L 62.296875 6.921875 
C 62.296875 3.09375 61.90625 2.59375 55.5 2.59375 
L 55.5 0 
C 57.90625 0.1875 62.296875 0.1875 64.90625 0.1875 
C 67.5 0.1875 72 0.1875 74.40625 0 
L 74.40625 2.59375 
C 68 2.59375 67.59375 3 67.59375 6.921875 
z
" id="CMR17-109"/>
       <path d="M 36 25.875 
C 36 32 36 35.546875 31.796875 39.59375 
C 28.09375 42.984375 23.796875 44 20.40625 44 
C 12.5 44 6.796875 37.625 6.796875 30.890625 
C 6.796875 27.1875 9.796875 27 10.40625 27 
C 11.703125 27 14 27.796875 14 30.59375 
C 14 33.09375 12.09375 34.1875 10.40625 34.1875 
C 10 34.1875 9.5 34.09375 9.203125 34 
C 11.296875 40.53125 16.703125 42.390625 20.203125 42.390625 
C 25.203125 42.390625 30.703125 37.828125 30.703125 29.296875 
L 30.703125 25.5 
C 24.796875 25.296875 17.703125 24.5 12.09375 21.453125 
C 5.796875 17.921875 4 12.84375 4 9 
C 4 1.203125 13 -1 18.296875 -1 
C 23.796875 -1 28.90625 2.109375 31.09375 7.890625 
C 31.296875 3.421875 34.09375 -0.609375 38.5 -0.609375 
C 40.59375 -0.609375 45.90625 0.796875 45.90625 8.796875 
L 45.90625 14.46875 
L 44.09375 14.46875 
L 44.09375 8.703125 
C 44.09375 2.515625 41.40625 1.703125 40.09375 1.703125 
C 36 1.703125 36 6.96875 36 11.4375 
z
M 30.703125 13.859375 
C 30.703125 5.046875 24.5 0.59375 19 0.59375 
C 14 0.59375 10.09375 4.34375 10.09375 9 
C 10.09375 12.046875 11.40625 17.40625 17.203125 20.65625 
C 22 23.390625 27.5 23.796875 30.703125 24 
z
" id="CMR17-97"/>
       <path d="M 26 23.296875 
C 29 27.1875 32.40625 31.59375 35.203125 34.890625 
C 38.5 38.6875 42.296875 40.296875 46.703125 40.390625 
L 46.703125 43 
C 45 42.890625 41.5 42.796875 39.703125 42.796875 
C 37 42.796875 33.90625 42.796875 31.59375 43 
L 31.59375 40.390625 
C 33 40.1875 33.796875 39.1875 33.796875 37.796875 
C 33.796875 36 32.796875 34.890625 32.296875 34.1875 
L 24.90625 24.796875 
L 16.09375 36.296875 
C 15.203125 37.390625 15.203125 37.59375 15.203125 38.09375 
C 15.203125 39.296875 16.203125 40.296875 17.90625 40.390625 
L 17.90625 43 
C 15.5 42.796875 11.203125 42.796875 8.703125 42.796875 
C 6 42.796875 2.796875 42.796875 0.59375 43 
L 0.59375 40.390625 
C 6 40.390625 7.203125 40 9.59375 37 
L 21.09375 22.09375 
C 21.296875 21.890625 21.796875 21.296875 21.796875 21 
C 21.796875 20.59375 13.09375 9.890625 12 8.5 
C 7.5 3.09375 2.796875 2.6875 0.09375 2.59375 
L 0.09375 0 
C 1.796875 0.09375 5.296875 0.1875 7.09375 0.1875 
C 9.09375 0.1875 13.5 0.1875 15.296875 0 
L 15.296875 2.59375 
C 14.703125 2.6875 13.09375 2.890625 13.09375 5.1875 
C 13.09375 7 13.90625 8.09375 14.796875 9.296875 
L 23.09375 19.5 
L 31.796875 8.1875 
C 32.59375 7.09375 33.796875 5.59375 33.796875 4.890625 
C 33.796875 3.5 32.59375 2.6875 31 2.59375 
L 31 0 
C 33.40625 0.1875 37.703125 0.1875 40.203125 0.1875 
C 42.90625 0.1875 46.09375 0.1875 48.296875 0 
L 48.296875 2.59375 
C 43.296875 2.59375 41.796875 2.796875 39.40625 5.890625 
z
" id="CMR17-120"/>
      </defs>
      <use transform="scale(0.996264)" xlink:href="#CMMI12-21"/>
      <use transform="translate(56.904072 0)scale(0.996264)" xlink:href="#CMMI12-61"/>
      <use transform="translate(105.678991 0)scale(0.996264)" xlink:href="#CMMI12-21"/>
      <use transform="translate(162.583063 -14.943915)scale(0.697382)" xlink:href="#CMR17-109"/>
      <use transform="translate(216.426529 -14.943915)scale(0.697382)" xlink:href="#CMR17-97"/>
      <use transform="translate(248.409711 -14.943915)scale(0.697382)" xlink:href="#CMR17-120"/>
     </g>
    </g>
   </g>
   <g id="matplotlib.axis_18">
    <g id="ytick_25">
     <g id="line2d_66">
      <g>
       <use style="fill:#262626;stroke:#262626;stroke-width:0.8;" x="72.798508" xlink:href="#md33b4a10ba" y="369.525377"/>
      </g>
     </g>
     <g id="text_15">
      <!-- $\mathdefault{0}$ -->
      <g style="fill:#262626;" transform="translate(57.574222 375.752028)scale(0.18 -0.18)">
       <use transform="scale(0.996264)" xlink:href="#CMR17-48"/>
      </g>
     </g>
    </g>
    <g id="ytick_26">
     <g id="line2d_67">
      <g>
       <use style="fill:#262626;stroke:#262626;stroke-width:0.8;" x="72.798508" xlink:href="#md33b4a10ba" y="276.715256"/>
      </g>
     </g>
     <g id="text_16">
      <!-- $\mathdefault{1}$ -->
      <g style="fill:#262626;" transform="translate(57.574222 282.941906)scale(0.18 -0.18)">
       <use transform="scale(0.996264)" xlink:href="#CMR17-49"/>
      </g>
     </g>
    </g>
    <g id="text_17">
     <!-- F1 -->
     <g style="fill:#262626;" transform="translate(50.086158 332.132298)rotate(-90)scale(0.18 -0.18)">
      <defs>
       <path d="M 45.59375 31 
L 45.59375 37.09375 
L 17.203125 37.09375 
L 17.203125 62.390625 
L 29.40625 62.390625 
C 30.59375 62.390625 31.796875 62.296875 33 62.296875 
L 49.5 62.296875 
L 49.5 68.796875 
L 8.796875 68.796875 
L 8.796875 0 
L 17.203125 0 
L 17.203125 31 
z
" id="CMSS17-70"/>
       <path d="M 28.40625 67 
L 26.5 67 
C 21.09375 61.703125 14.796875 60.96875 8.40625 60.796875 
L 8.40625 55 
C 11.296875 55.09375 16 55.296875 20.703125 57.390625 
L 20.703125 5.796875 
L 8.90625 5.796875 
L 8.90625 0 
L 40.203125 0 
L 40.203125 5.796875 
L 28.40625 5.796875 
z
" id="CMSS17-49"/>
      </defs>
      <use transform="scale(0.996264)" xlink:href="#CMSS17-70"/>
      <use transform="translate(53.289559 0)scale(0.996264)" xlink:href="#CMSS17-49"/>
     </g>
    </g>
   </g>
   <g id="line2d_68">
    <path clip-path="url(#p91bc8f9c75)" d="M 171.431069 347.427729 
L 169.514012 311.408563 
L 167.596956 296.308504 
L 165.679899 297.855339 
L 163.762843 294.452301 
L 161.845786 291.564875 
L 159.928729 288.921193 
L 158.011673 290.271159 
L 156.094616 291.621124 
L 154.17756 291.621124 
L 152.260503 298.019397 
L 150.343446 299.112872 
L 148.42639 304.375786 
L 146.509333 312.420403 
L 144.592277 320.889872 
L 142.67522 327.267629 
L 140.758164 333.529022 
L 138.841107 340.145255 
L 136.92405 343.704899 
L 135.006994 346.293782 
L 133.089937 348.676581 
L 131.172881 349.805743 
L 129.255824 350.849578 
L 127.338768 352.024195 
L 125.421711 352.695787 
L 123.504654 353.461674 
L 121.587598 354.230629 
L 119.670541 354.815798 
L 117.753485 355.40162 
L 115.836428 355.533019 
L 113.919371 355.904725 
L 112.002315 356.096418 
L 110.085258 356.255008 
L 108.168202 356.441108 
L 106.251145 356.478456 
L 104.334089 356.621792 
L 102.417032 356.771493 
L 100.499975 356.841249 
L 98.582919 356.874694 
L 96.665862 356.837346 
L 94.748806 356.870791 
L 92.831749 356.935075 
L 90.914693 356.965981 
L 88.997636 356.996104 
L 87.080579 356.996104 
L 85.163523 356.996104 
L 83.246466 357.03142 
L 81.32941 357.065782 
L 79.412353 357.16914 
L 77.495296 357.238015 
" style="fill:none;stroke:#0173b2;stroke-linecap:round;"/>
   </g>
   <g id="line2d_69">
    <path clip-path="url(#p91bc8f9c75)" d="M 159.928729 374.165884 
L 159.928729 272.07475 
" style="fill:none;stroke:#0173b2;stroke-dasharray:7.4,3.2;stroke-dashoffset:0;stroke-width:2;"/>
   </g>
   <g id="line2d_70">
    <path clip-path="url(#p91bc8f9c75)" d="M 171.431069 336.820858 
L 169.514012 317.595905 
L 167.596956 298.886563 
L 165.679899 293.730445 
L 163.762843 291.152386 
L 161.845786 291.152386 
L 159.928729 278.777703 
L 158.011673 278.777703 
L 156.094616 276.715256 
L 154.17756 276.715256 
L 152.260503 276.715256 
L 150.343446 276.715256 
L 148.42639 278.402713 
L 146.509333 278.402713 
L 144.592277 280.090169 
L 142.67522 290.561055 
L 140.758164 293.157142 
L 138.841107 305.221222 
L 136.92405 314.779538 
L 135.006994 320.318047 
L 133.089937 324.726315 
L 131.172881 329.413343 
L 129.255824 332.61815 
L 127.338768 334.336856 
L 125.421711 336.378905 
L 123.504654 338.375314 
L 121.587598 339.161206 
L 119.670541 340.465379 
L 117.753485 341.390758 
L 115.836428 341.731972 
L 113.919371 342.218829 
L 112.002315 342.981415 
L 110.085258 342.982905 
L 108.168202 343.565544 
L 106.251145 343.860882 
L 104.334089 343.704899 
L 102.417032 344.147554 
L 100.499975 343.991571 
L 98.582919 343.991571 
L 96.665862 344.279574 
L 94.748806 344.663166 
L 92.831749 344.788416 
L 90.914693 344.649061 
L 88.997636 344.530074 
L 87.080579 344.662094 
L 85.163523 344.662094 
L 83.246466 344.662094 
L 81.32941 344.662094 
L 79.412353 344.536844 
L 77.495296 344.684162 
" style="fill:none;stroke:#de8f05;stroke-linecap:round;"/>
   </g>
   <g id="line2d_71">
    <path clip-path="url(#p91bc8f9c75)" d="M 156.094616 374.165884 
L 156.094616 272.07475 
" style="fill:none;stroke:#de8f05;stroke-dasharray:7.4,3.2;stroke-dashoffset:0;stroke-width:2;"/>
   </g>
   <g id="patch_43">
    <path d="M 72.798508 374.165884 
L 72.798508 272.07475 
" style="fill:none;stroke:#262626;stroke-linecap:square;stroke-linejoin:miter;stroke-width:0.8;"/>
   </g>
   <g id="patch_44">
    <path d="M 176.127857 374.165884 
L 176.127857 272.07475 
" style="fill:none;stroke:#262626;stroke-linecap:square;stroke-linejoin:miter;stroke-width:0.8;"/>
   </g>
   <g id="patch_45">
    <path d="M 72.798508 374.165884 
L 176.127857 374.165884 
" style="fill:none;stroke:#262626;stroke-linecap:square;stroke-linejoin:miter;stroke-width:0.8;"/>
   </g>
   <g id="patch_46">
    <path d="M 72.798508 272.07475 
L 176.127857 272.07475 
" style="fill:none;stroke:#262626;stroke-linecap:square;stroke-linejoin:miter;stroke-width:0.8;"/>
   </g>
  </g>
  <g id="axes_10">
   <g id="patch_47">
    <path d="M 199.473881 374.165884 
L 302.803231 374.165884 
L 302.803231 272.07475 
L 199.473881 272.07475 
z
" style="fill:#ffffff;"/>
   </g>
   <g id="matplotlib.axis_19">
    <g id="xtick_10">
     <g id="line2d_72">
      <g>
       <use style="fill:#262626;stroke:#262626;stroke-width:0.8;" x="298.106442" xlink:href="#m7524c818d3" y="374.165884"/>
      </g>
     </g>
     <g id="text_18">
      <!-- $\mathdefault{10^{0}}$ -->
      <g style="fill:#262626;" transform="translate(286.809351 393.619184)scale(0.18 -0.18)">
       <use transform="scale(0.996264)" xlink:href="#CMR17-49"/>
       <use transform="translate(45.690477 0)scale(0.996264)" xlink:href="#CMR17-48"/>
       <use transform="translate(91.380954 36.153639)scale(0.697382)" xlink:href="#CMR17-48"/>
      </g>
     </g>
    </g>
    <g id="text_19">
     <!-- $\lambda / \lambda_{\mathrm{max}}$ -->
     <g style="fill:#262626;" transform="translate(225.068419 414.556812)scale(0.18 -0.18)">
      <use transform="scale(0.996264)" xlink:href="#CMMI12-21"/>
      <use transform="translate(56.904072 0)scale(0.996264)" xlink:href="#CMMI12-61"/>
      <use transform="translate(105.678991 0)scale(0.996264)" xlink:href="#CMMI12-21"/>
      <use transform="translate(162.583063 -14.943915)scale(0.697382)" xlink:href="#CMR17-109"/>
      <use transform="translate(216.426529 -14.943915)scale(0.697382)" xlink:href="#CMR17-97"/>
      <use transform="translate(248.409711 -14.943915)scale(0.697382)" xlink:href="#CMR17-120"/>
     </g>
    </g>
   </g>
   <g id="matplotlib.axis_20">
    <g id="ytick_27">
     <g id="line2d_73">
      <g>
       <use style="fill:#262626;stroke:#262626;stroke-width:0.8;" x="199.473881" xlink:href="#md33b4a10ba" y="369.525377"/>
      </g>
     </g>
    </g>
    <g id="ytick_28">
     <g id="line2d_74">
      <g>
       <use style="fill:#262626;stroke:#262626;stroke-width:0.8;" x="199.473881" xlink:href="#md33b4a10ba" y="276.715256"/>
      </g>
     </g>
    </g>
   </g>
   <g id="line2d_75">
    <path clip-path="url(#pa8a2798b94)" d="M 298.106442 350.963353 
L 296.189385 345.659918 
L 294.272329 342.566247 
L 292.355272 328.129117 
L 290.438216 320.615917 
L 288.521159 308.35507 
L 286.604102 306.105128 
L 284.687046 302.814587 
L 282.769989 302.814587 
L 280.852933 302.927084 
L 278.935876 305.003954 
L 277.01882 309.419775 
L 275.101763 306.768057 
L 273.184706 310.303681 
L 271.26765 317.842878 
L 269.350593 322.68931 
L 267.433537 332.671295 
L 265.51648 337.177886 
L 263.599423 340.594303 
L 261.682367 342.772866 
L 259.76531 345.900665 
L 257.848254 347.879743 
L 255.931197 349.529953 
L 254.014141 350.888187 
L 252.097084 352.287929 
L 250.180027 352.774491 
L 248.262971 353.568573 
L 246.345914 354.13378 
L 244.428858 354.82429 
L 242.511801 355.384476 
L 240.594745 355.930006 
L 238.677688 356.214845 
L 236.760631 356.585723 
L 234.843575 356.813152 
L 232.926518 356.981798 
L 231.009462 357.327812 
L 229.092405 357.45674 
L 227.175348 357.415468 
L 225.258292 357.578792 
L 223.341235 357.702573 
L 221.424179 357.826523 
L 219.507122 357.922526 
L 217.590066 357.922526 
L 215.673009 357.953432 
L 213.755952 357.921713 
L 211.838896 357.983555 
L 209.921839 358.015275 
L 208.004783 358.039999 
L 206.087726 358.04618 
L 204.170669 358.006621 
" style="fill:none;stroke:#0173b2;stroke-linecap:round;"/>
   </g>
   <g id="line2d_76">
    <path clip-path="url(#pa8a2798b94)" d="M 284.687046 374.165884 
L 284.687046 272.07475 
" style="fill:none;stroke:#0173b2;stroke-dasharray:7.4,3.2;stroke-dashoffset:0;stroke-width:2;"/>
   </g>
   <g id="line2d_77">
    <path clip-path="url(#pa8a2798b94)" d="M 298.106442 357.150695 
L 296.189385 346.543824 
L 294.272329 334.169141 
L 292.355272 323.120317 
L 290.438216 313.176375 
L 288.521159 306.105128 
L 286.604102 303.527069 
L 284.687046 305.073904 
L 282.769989 295.380403 
L 280.852933 295.380403 
L 278.935876 292.802344 
L 277.01882 292.802344 
L 275.101763 292.389854 
L 273.184706 291.264883 
L 271.26765 287.552478 
L 269.350593 292.104285 
L 267.433537 295.441699 
L 265.51648 303.059361 
L 263.599423 308.467876 
L 261.682367 312.838911 
L 259.76531 316.481057 
L 257.848254 322.656266 
L 255.931197 327.107347 
L 254.014141 330.671718 
L 252.097084 334.763693 
L 250.180027 337.385198 
L 248.262971 339.509741 
L 246.345914 341.296345 
L 244.428858 342.025604 
L 242.511801 343.339665 
L 240.594745 343.627604 
L 238.677688 344.96971 
L 236.760631 346.073966 
L 234.843575 346.073966 
L 232.926518 346.473783 
L 231.009462 347.107686 
L 229.092405 347.030017 
L 227.175348 346.90187 
L 225.258292 347.00207 
L 223.341235 347.09726 
L 221.424179 347.007486 
L 219.507122 347.007486 
L 217.590066 347.125341 
L 215.673009 347.236824 
L 213.755952 347.22554 
L 211.838896 347.22554 
L 209.921839 347.679731 
L 208.004783 347.627604 
L 206.087726 347.804385 
L 204.170669 347.709195 
" style="fill:none;stroke:#de8f05;stroke-linecap:round;"/>
   </g>
   <g id="line2d_78">
    <path clip-path="url(#pa8a2798b94)" d="M 271.26765 374.165884 
L 271.26765 272.07475 
" style="fill:none;stroke:#de8f05;stroke-dasharray:7.4,3.2;stroke-dashoffset:0;stroke-width:2;"/>
   </g>
   <g id="patch_48">
    <path d="M 199.473881 374.165884 
L 199.473881 272.07475 
" style="fill:none;stroke:#262626;stroke-linecap:square;stroke-linejoin:miter;stroke-width:0.8;"/>
   </g>
   <g id="patch_49">
    <path d="M 302.803231 374.165884 
L 302.803231 272.07475 
" style="fill:none;stroke:#262626;stroke-linecap:square;stroke-linejoin:miter;stroke-width:0.8;"/>
   </g>
   <g id="patch_50">
    <path d="M 199.473881 374.165884 
L 302.803231 374.165884 
" style="fill:none;stroke:#262626;stroke-linecap:square;stroke-linejoin:miter;stroke-width:0.8;"/>
   </g>
   <g id="patch_51">
    <path d="M 199.473881 272.07475 
L 302.803231 272.07475 
" style="fill:none;stroke:#262626;stroke-linecap:square;stroke-linejoin:miter;stroke-width:0.8;"/>
   </g>
  </g>
  <g id="axes_11">
   <g id="patch_52">
    <path d="M 326.149254 374.165884 
L 429.478604 374.165884 
L 429.478604 272.07475 
L 326.149254 272.07475 
z
" style="fill:#ffffff;"/>
   </g>
   <g id="matplotlib.axis_21">
    <g id="xtick_11">
     <g id="line2d_79">
      <g>
       <use style="fill:#262626;stroke:#262626;stroke-width:0.8;" x="424.781815" xlink:href="#m7524c818d3" y="374.165884"/>
      </g>
     </g>
     <g id="text_20">
      <!-- $\mathdefault{10^{0}}$ -->
      <g style="fill:#262626;" transform="translate(413.484724 393.619184)scale(0.18 -0.18)">
       <use transform="scale(0.996264)" xlink:href="#CMR17-49"/>
       <use transform="translate(45.690477 0)scale(0.996264)" xlink:href="#CMR17-48"/>
       <use transform="translate(91.380954 36.153639)scale(0.697382)" xlink:href="#CMR17-48"/>
      </g>
     </g>
    </g>
    <g id="text_21">
     <!-- $\lambda / \lambda_{\mathrm{max}}$ -->
     <g style="fill:#262626;" transform="translate(351.743792 414.556812)scale(0.18 -0.18)">
      <use transform="scale(0.996264)" xlink:href="#CMMI12-21"/>
      <use transform="translate(56.904072 0)scale(0.996264)" xlink:href="#CMMI12-61"/>
      <use transform="translate(105.678991 0)scale(0.996264)" xlink:href="#CMMI12-21"/>
      <use transform="translate(162.583063 -14.943915)scale(0.697382)" xlink:href="#CMR17-109"/>
      <use transform="translate(216.426529 -14.943915)scale(0.697382)" xlink:href="#CMR17-97"/>
      <use transform="translate(248.409711 -14.943915)scale(0.697382)" xlink:href="#CMR17-120"/>
     </g>
    </g>
   </g>
   <g id="matplotlib.axis_22">
    <g id="ytick_29">
     <g id="line2d_80">
      <g>
       <use style="fill:#262626;stroke:#262626;stroke-width:0.8;" x="326.149254" xlink:href="#md33b4a10ba" y="369.525377"/>
      </g>
     </g>
    </g>
    <g id="ytick_30">
     <g id="line2d_81">
      <g>
       <use style="fill:#262626;stroke:#262626;stroke-width:0.8;" x="326.149254" xlink:href="#md33b4a10ba" y="276.715256"/>
      </g>
     </g>
    </g>
   </g>
   <g id="line2d_82">
    <path clip-path="url(#pf5c68bfe49)" d="M 424.781815 358.034601 
L 422.864758 351.847259 
L 420.947702 348.090659 
L 419.030645 348.974565 
L 417.113589 346.838459 
L 415.196532 343.641666 
L 413.279475 340.857362 
L 411.362419 341.888586 
L 409.445362 337.320914 
L 407.528306 331.23618 
L 405.611249 326.302378 
L 403.694193 327.186284 
L 401.777136 323.680124 
L 399.860079 325.741111 
L 397.943023 325.213094 
L 396.025966 326.94191 
L 394.10891 329.857663 
L 392.191853 332.143135 
L 390.274797 334.255601 
L 388.35774 336.99424 
L 386.440683 339.166609 
L 384.523627 342.530226 
L 382.60657 343.328011 
L 380.689514 343.584906 
L 378.772457 346.087175 
L 376.8554 346.821461 
L 374.938344 348.287471 
L 373.021287 349.307943 
L 371.104231 350.334746 
L 369.187174 351.594067 
L 367.270118 352.445667 
L 365.353061 353.229155 
L 363.436004 353.719819 
L 361.518948 354.129198 
L 359.601891 354.48615 
L 357.684835 354.673408 
L 355.767778 355.397263 
L 353.850721 355.982785 
L 351.933665 356.101793 
L 350.016608 356.286707 
L 348.099552 356.563911 
L 346.182495 356.657717 
L 344.265439 356.897914 
L 342.348382 356.934224 
L 340.431325 356.968552 
L 338.514269 357.003868 
L 336.597212 357.068708 
L 334.680156 357.211256 
L 332.763099 357.326596 
L 330.846043 357.826195 
" style="fill:none;stroke:#0173b2;stroke-linecap:round;"/>
   </g>
   <g id="line2d_83">
    <path clip-path="url(#pf5c68bfe49)" d="M 401.777136 374.165884 
L 401.777136 272.07475 
" style="fill:none;stroke:#0173b2;stroke-dasharray:7.4,3.2;stroke-dashoffset:0;stroke-width:2;"/>
   </g>
   <g id="line2d_84">
    <path clip-path="url(#pf5c68bfe49)" d="M 424.781815 357.150695 
L 422.864758 345.659918 
L 420.947702 347.427729 
L 419.030645 348.311635 
L 417.113589 348.311635 
L 415.196532 346.028212 
L 413.279475 346.691141 
L 411.362419 342.713565 
L 409.445362 335.185633 
L 407.528306 332.841943 
L 405.611249 321.526608 
L 403.694193 311.364368 
L 401.777136 307.426969 
L 399.860079 307.426969 
L 397.943023 307.426969 
L 396.025966 305.064529 
L 394.10891 297.977211 
L 392.191853 295.27728 
L 390.274797 295.839766 
L 388.35774 298.197878 
L 386.440683 301.609879 
L 384.523627 299.69681 
L 382.60657 307.228708 
L 380.689514 314.263926 
L 378.772457 320.390607 
L 376.8554 322.444347 
L 374.938344 324.847951 
L 373.021287 327.901444 
L 371.104231 331.782595 
L 369.187174 333.543607 
L 367.270118 335.606497 
L 365.353061 336.309219 
L 363.436004 337.933361 
L 361.518948 338.346309 
L 359.601891 340.641156 
L 357.684835 341.193301 
L 355.767778 342.678114 
L 353.850721 342.981415 
L 351.933665 344.096453 
L 350.016608 344.66079 
L 348.099552 344.664433 
L 346.182495 344.532413 
L 344.265439 344.81175 
L 342.348382 344.81175 
L 340.431325 344.81175 
L 338.514269 344.67973 
L 336.597212 344.67973 
L 334.680156 344.81175 
L 332.763099 344.525078 
L 330.846043 344.937 
" style="fill:none;stroke:#de8f05;stroke-linecap:round;"/>
   </g>
   <g id="line2d_85">
    <path clip-path="url(#pf5c68bfe49)" d="M 392.191853 374.165884 
L 392.191853 272.07475 
" style="fill:none;stroke:#de8f05;stroke-dasharray:7.4,3.2;stroke-dashoffset:0;stroke-width:2;"/>
   </g>
   <g id="patch_53">
    <path d="M 326.149254 374.165884 
L 326.149254 272.07475 
" style="fill:none;stroke:#262626;stroke-linecap:square;stroke-linejoin:miter;stroke-width:0.8;"/>
   </g>
   <g id="patch_54">
    <path d="M 429.478604 374.165884 
L 429.478604 272.07475 
" style="fill:none;stroke:#262626;stroke-linecap:square;stroke-linejoin:miter;stroke-width:0.8;"/>
   </g>
   <g id="patch_55">
    <path d="M 326.149254 374.165884 
L 429.478604 374.165884 
" style="fill:none;stroke:#262626;stroke-linecap:square;stroke-linejoin:miter;stroke-width:0.8;"/>
   </g>
   <g id="patch_56">
    <path d="M 326.149254 272.07475 
L 429.478604 272.07475 
" style="fill:none;stroke:#262626;stroke-linecap:square;stroke-linejoin:miter;stroke-width:0.8;"/>
   </g>
  </g>
  <g id="axes_12">
   <g id="patch_57">
    <path d="M 452.824627 374.165884 
L 556.153977 374.165884 
L 556.153977 272.07475 
L 452.824627 272.07475 
z
" style="fill:#ffffff;"/>
   </g>
   <g id="matplotlib.axis_23">
    <g id="xtick_12">
     <g id="line2d_86">
      <g>
       <use style="fill:#262626;stroke:#262626;stroke-width:0.8;" x="551.457188" xlink:href="#m7524c818d3" y="374.165884"/>
      </g>
     </g>
     <g id="text_22">
      <!-- $\mathdefault{10^{0}}$ -->
      <g style="fill:#262626;" transform="translate(540.160097 393.619184)scale(0.18 -0.18)">
       <use transform="scale(0.996264)" xlink:href="#CMR17-49"/>
       <use transform="translate(45.690477 0)scale(0.996264)" xlink:href="#CMR17-48"/>
       <use transform="translate(91.380954 36.153639)scale(0.697382)" xlink:href="#CMR17-48"/>
      </g>
     </g>
    </g>
    <g id="text_23">
     <!-- $\lambda / \lambda_{\mathrm{max}}$ -->
     <g style="fill:#262626;" transform="translate(478.419165 414.556812)scale(0.18 -0.18)">
      <use transform="scale(0.996264)" xlink:href="#CMMI12-21"/>
      <use transform="translate(56.904072 0)scale(0.996264)" xlink:href="#CMMI12-61"/>
      <use transform="translate(105.678991 0)scale(0.996264)" xlink:href="#CMMI12-21"/>
      <use transform="translate(162.583063 -14.943915)scale(0.697382)" xlink:href="#CMR17-109"/>
      <use transform="translate(216.426529 -14.943915)scale(0.697382)" xlink:href="#CMR17-97"/>
      <use transform="translate(248.409711 -14.943915)scale(0.697382)" xlink:href="#CMR17-120"/>
     </g>
    </g>
   </g>
   <g id="matplotlib.axis_24">
    <g id="ytick_31">
     <g id="line2d_87">
      <g>
       <use style="fill:#262626;stroke:#262626;stroke-width:0.8;" x="452.824627" xlink:href="#md33b4a10ba" y="369.525377"/>
      </g>
     </g>
    </g>
    <g id="ytick_32">
     <g id="line2d_88">
      <g>
       <use style="fill:#262626;stroke:#262626;stroke-width:0.8;" x="452.824627" xlink:href="#md33b4a10ba" y="276.715256"/>
      </g>
     </g>
    </g>
   </g>
   <g id="line2d_89">
    <path clip-path="url(#p7cdeea8304)" d="M 551.457188 369.525377 
L 549.540131 369.525377 
L 547.623075 369.525377 
L 545.706018 369.525377 
L 543.788962 369.525377 
L 541.871905 369.525377 
L 539.954849 369.525377 
L 538.037792 369.525377 
L 536.120735 369.525377 
L 534.203679 369.525377 
L 532.286622 369.525377 
L 530.369566 369.525377 
L 528.452509 365.400483 
L 526.535452 362.306812 
L 524.618396 362.719302 
L 522.701339 362.719302 
L 520.784283 363.161255 
L 518.867226 360.686318 
L 516.95017 360.686318 
L 515.033113 360.686318 
L 513.116056 357.769429 
L 511.199 358.007403 
L 509.281943 355.891129 
L 507.364887 355.195703 
L 505.44783 353.608138 
L 503.530774 353.917505 
L 501.613717 354.433117 
L 499.69666 354.587801 
L 497.779604 355.158486 
L 495.862547 353.325909 
L 493.945491 351.247556 
L 492.028434 352.224798 
L 490.111377 351.130059 
L 488.194321 350.445654 
L 486.277264 350.762019 
L 484.360208 353.179852 
L 482.443151 351.29453 
L 480.526095 351.802386 
L 478.609038 352.159348 
L 476.691981 351.918542 
L 474.774925 353.054076 
L 472.857868 353.531775 
L 470.940812 354.190476 
L 469.023755 354.587252 
L 467.106698 355.35752 
L 465.189642 355.288325 
L 463.272585 354.772683 
L 461.355529 353.420364 
L 459.438472 354.209286 
L 457.521416 354.433387 
" style="fill:none;stroke:#0173b2;stroke-linecap:round;"/>
   </g>
   <g id="line2d_90">
    <path clip-path="url(#p7cdeea8304)" d="M 488.194321 374.165884 
L 488.194321 272.07475 
" style="fill:none;stroke:#0173b2;stroke-dasharray:7.4,3.2;stroke-dashoffset:0;stroke-width:2;"/>
   </g>
   <g id="line2d_91">
    <path clip-path="url(#p7cdeea8304)" d="M 551.457188 369.525377 
L 549.540131 369.525377 
L 547.623075 369.525377 
L 545.706018 369.525377 
L 543.788962 369.525377 
L 541.871905 369.525377 
L 539.954849 369.525377 
L 538.037792 369.525377 
L 536.120735 369.525377 
L 534.203679 369.525377 
L 532.286622 369.525377 
L 530.369566 369.525377 
L 528.452509 369.525377 
L 526.535452 364.221942 
L 524.618396 364.221942 
L 522.701339 364.221942 
L 520.784283 364.221942 
L 518.867226 364.221942 
L 516.95017 364.221942 
L 515.033113 364.884871 
L 513.116056 360.244365 
L 511.199 355.603859 
L 509.281943 350.963353 
L 507.364887 355.603859 
L 505.44783 356.119471 
L 503.530774 356.635083 
L 501.613717 357.563184 
L 499.69666 357.563184 
L 497.779604 354.263269 
L 495.862547 351.563338 
L 493.945491 352.594561 
L 492.028434 349.782133 
L 490.111377 351.037527 
L 488.194321 352.289212 
L 486.277264 353.096626 
L 484.360208 352.425698 
L 482.443151 352.956041 
L 480.526095 351.594219 
L 478.609038 352.285107 
L 476.691981 351.118516 
L 474.774925 348.676053 
L 472.857868 349.709814 
L 470.940812 350.746394 
L 469.023755 350.443386 
L 467.106698 350.443386 
L 465.189642 349.679945 
L 463.272585 350.708456 
L 461.355529 352.904924 
L 459.438472 354.15151 
L 457.521416 354.637659 
" style="fill:none;stroke:#de8f05;stroke-linecap:round;"/>
   </g>
   <g id="line2d_92">
    <path clip-path="url(#p7cdeea8304)" d="M 474.774925 374.165884 
L 474.774925 272.07475 
" style="fill:none;stroke:#de8f05;stroke-dasharray:7.4,3.2;stroke-dashoffset:0;stroke-width:2;"/>
   </g>
   <g id="patch_58">
    <path d="M 452.824627 374.165884 
L 452.824627 272.07475 
" style="fill:none;stroke:#262626;stroke-linecap:square;stroke-linejoin:miter;stroke-width:0.8;"/>
   </g>
   <g id="patch_59">
    <path d="M 556.153977 374.165884 
L 556.153977 272.07475 
" style="fill:none;stroke:#262626;stroke-linecap:square;stroke-linejoin:miter;stroke-width:0.8;"/>
   </g>
   <g id="patch_60">
    <path d="M 452.824627 374.165884 
L 556.153977 374.165884 
" style="fill:none;stroke:#262626;stroke-linecap:square;stroke-linejoin:miter;stroke-width:0.8;"/>
   </g>
   <g id="patch_61">
    <path d="M 452.824627 272.07475 
L 556.153977 272.07475 
" style="fill:none;stroke:#262626;stroke-linecap:square;stroke-linejoin:miter;stroke-width:0.8;"/>
   </g>
  </g>
 </g>
 <defs>
  <clipPath id="pfacc871ef9">
   <rect height="102.091134" width="103.32935" x="72.798508" y="31.4133"/>
  </clipPath>
  <clipPath id="pee942aa401">
   <rect height="102.091134" width="103.32935" x="199.473881" y="31.4133"/>
  </clipPath>
  <clipPath id="pf8038239e4">
   <rect height="102.091134" width="103.32935" x="326.149254" y="31.4133"/>
  </clipPath>
  <clipPath id="pe89be04f1e">
   <rect height="102.091134" width="103.32935" x="452.824627" y="31.4133"/>
  </clipPath>
  <clipPath id="pf2d2bfe034">
   <rect height="102.091134" width="103.32935" x="72.798508" y="151.744025"/>
  </clipPath>
  <clipPath id="p15f21f6d49">
   <rect height="102.091134" width="103.32935" x="199.473881" y="151.744025"/>
  </clipPath>
  <clipPath id="p1516699508">
   <rect height="102.091134" width="103.32935" x="326.149254" y="151.744025"/>
  </clipPath>
  <clipPath id="pcdce4777b7">
   <rect height="102.091134" width="103.32935" x="452.824627" y="151.744025"/>
  </clipPath>
  <clipPath id="p91bc8f9c75">
   <rect height="102.091134" width="103.32935" x="72.798508" y="272.07475"/>
  </clipPath>
  <clipPath id="pa8a2798b94">
   <rect height="102.091134" width="103.32935" x="199.473881" y="272.07475"/>
  </clipPath>
  <clipPath id="pf5c68bfe49">
   <rect height="102.091134" width="103.32935" x="326.149254" y="272.07475"/>
  </clipPath>
  <clipPath id="p7cdeea8304">
   <rect height="102.091134" width="103.32935" x="452.824627" y="272.07475"/>
  </clipPath>
 </defs>
</svg>
