<?xml version="1.0" encoding="utf-8" standalone="no"?>
<!DOCTYPE svg PUBLIC "-//W3C//DTD SVG 1.1//EN"
  "http://www.w3.org/Graphics/SVG/1.1/DTD/svg11.dtd">
<!-- Created with matplotlib (https://matplotlib.org/) -->
<svg height="345.6pt" version="1.1" viewBox="0 0 460.8 345.6" width="460.8pt" xmlns="http://www.w3.org/2000/svg" xmlns:xlink="http://www.w3.org/1999/xlink">
 <metadata>
  <rdf:RDF xmlns:cc="http://creativecommons.org/ns#" xmlns:dc="http://purl.org/dc/elements/1.1/" xmlns:rdf="http://www.w3.org/1999/02/22-rdf-syntax-ns#">
   <cc:Work>
    <dc:type rdf:resource="http://purl.org/dc/dcmitype/StillImage"/>
    <dc:date>2021-04-07T20:23:49.708095</dc:date>
    <dc:format>image/svg+xml</dc:format>
    <dc:creator>
     <cc:Agent>
      <dc:title>Matplotlib v3.3.2, https://matplotlib.org/</dc:title>
     </cc:Agent>
    </dc:creator>
   </cc:Work>
  </rdf:RDF>
 </metadata>
 <defs>
  <style type="text/css">*{stroke-linecap:butt;stroke-linejoin:round;}</style>
 </defs>
 <g id="figure_1">
  <g id="patch_1">
   <path d="M 0 345.6 
L 460.8 345.6 
L 460.8 0 
L 0 0 
z
" style="fill:#ffffff;"/>
  </g>
  <g id="axes_1">
   <g id="patch_2">
    <path d="M 57.6 119.740235 
L 128.752941 119.740235 
L 128.752941 41.472 
L 57.6 41.472 
z
" style="fill:#ffffff;"/>
   </g>
   <g id="matplotlib.axis_1">
    <g id="xtick_1">
     <g id="line2d_1">
      <defs>
       <path d="M 0 0 
L 0 3.5 
" id="m7366e46876" style="stroke:#000000;stroke-width:0.8;"/>
      </defs>
      <g>
       <use style="stroke:#000000;stroke-width:0.8;" x="125.518717" xlink:href="#m7366e46876" y="119.740235"/>
      </g>
     </g>
    </g>
   </g>
   <g id="matplotlib.axis_2">
    <g id="ytick_1">
     <g id="line2d_2">
      <defs>
       <path d="M 0 0 
L -3.5 0 
" id="mcec650716f" style="stroke:#000000;stroke-width:0.8;"/>
      </defs>
      <g>
       <use style="stroke:#000000;stroke-width:0.8;" x="57.6" xlink:href="#mcec650716f" y="112.345593"/>
      </g>
     </g>
     <g id="text_1">
      <!-- 2.5 -->
      <g transform="translate(34.696875 116.144811)scale(0.1 -0.1)">
       <defs>
        <path d="M 19.1875 8.296875 
L 53.609375 8.296875 
L 53.609375 0 
L 7.328125 0 
L 7.328125 8.296875 
Q 12.9375 14.109375 22.625 23.890625 
Q 32.328125 33.6875 34.8125 36.53125 
Q 39.546875 41.84375 41.421875 45.53125 
Q 43.3125 49.21875 43.3125 52.78125 
Q 43.3125 58.59375 39.234375 62.25 
Q 35.15625 65.921875 28.609375 65.921875 
Q 23.96875 65.921875 18.8125 64.3125 
Q 13.671875 62.703125 7.8125 59.421875 
L 7.8125 69.390625 
Q 13.765625 71.78125 18.9375 73 
Q 24.125 74.21875 28.421875 74.21875 
Q 39.75 74.21875 46.484375 68.546875 
Q 53.21875 62.890625 53.21875 53.421875 
Q 53.21875 48.921875 51.53125 44.890625 
Q 49.859375 40.875 45.40625 35.40625 
Q 44.1875 33.984375 37.640625 27.21875 
Q 31.109375 20.453125 19.1875 8.296875 
z
" id="DejaVuSans-50"/>
        <path d="M 10.6875 12.40625 
L 21 12.40625 
L 21 0 
L 10.6875 0 
z
" id="DejaVuSans-46"/>
        <path d="M 10.796875 72.90625 
L 49.515625 72.90625 
L 49.515625 64.59375 
L 19.828125 64.59375 
L 19.828125 46.734375 
Q 21.96875 47.46875 24.109375 47.828125 
Q 26.265625 48.1875 28.421875 48.1875 
Q 40.625 48.1875 47.75 41.5 
Q 54.890625 34.8125 54.890625 23.390625 
Q 54.890625 11.625 47.5625 5.09375 
Q 40.234375 -1.421875 26.90625 -1.421875 
Q 22.3125 -1.421875 17.546875 -0.640625 
Q 12.796875 0.140625 7.71875 1.703125 
L 7.71875 11.625 
Q 12.109375 9.234375 16.796875 8.0625 
Q 21.484375 6.890625 26.703125 6.890625 
Q 35.15625 6.890625 40.078125 11.328125 
Q 45.015625 15.765625 45.015625 23.390625 
Q 45.015625 31 40.078125 35.4375 
Q 35.15625 39.890625 26.703125 39.890625 
Q 22.75 39.890625 18.8125 39.015625 
Q 14.890625 38.140625 10.796875 36.28125 
z
" id="DejaVuSans-53"/>
       </defs>
       <use xlink:href="#DejaVuSans-50"/>
       <use x="63.623047" xlink:href="#DejaVuSans-46"/>
       <use x="95.410156" xlink:href="#DejaVuSans-53"/>
      </g>
     </g>
    </g>
    <g id="ytick_2">
     <g id="line2d_3">
      <g>
       <use style="stroke:#000000;stroke-width:0.8;" x="57.6" xlink:href="#mcec650716f" y="87.655515"/>
      </g>
     </g>
     <g id="text_2">
      <!-- 5.0 -->
      <g transform="translate(34.696875 91.454733)scale(0.1 -0.1)">
       <defs>
        <path d="M 31.78125 66.40625 
Q 24.171875 66.40625 20.328125 58.90625 
Q 16.5 51.421875 16.5 36.375 
Q 16.5 21.390625 20.328125 13.890625 
Q 24.171875 6.390625 31.78125 6.390625 
Q 39.453125 6.390625 43.28125 13.890625 
Q 47.125 21.390625 47.125 36.375 
Q 47.125 51.421875 43.28125 58.90625 
Q 39.453125 66.40625 31.78125 66.40625 
z
M 31.78125 74.21875 
Q 44.046875 74.21875 50.515625 64.515625 
Q 56.984375 54.828125 56.984375 36.375 
Q 56.984375 17.96875 50.515625 8.265625 
Q 44.046875 -1.421875 31.78125 -1.421875 
Q 19.53125 -1.421875 13.0625 8.265625 
Q 6.59375 17.96875 6.59375 36.375 
Q 6.59375 54.828125 13.0625 64.515625 
Q 19.53125 74.21875 31.78125 74.21875 
z
" id="DejaVuSans-48"/>
       </defs>
       <use xlink:href="#DejaVuSans-53"/>
       <use x="63.623047" xlink:href="#DejaVuSans-46"/>
       <use x="95.410156" xlink:href="#DejaVuSans-48"/>
      </g>
     </g>
    </g>
    <g id="ytick_3">
     <g id="line2d_4">
      <g>
       <use style="stroke:#000000;stroke-width:0.8;" x="57.6" xlink:href="#mcec650716f" y="62.965437"/>
      </g>
     </g>
     <g id="text_3">
      <!-- 7.5 -->
      <g transform="translate(34.696875 66.764656)scale(0.1 -0.1)">
       <defs>
        <path d="M 8.203125 72.90625 
L 55.078125 72.90625 
L 55.078125 68.703125 
L 28.609375 0 
L 18.3125 0 
L 43.21875 64.59375 
L 8.203125 64.59375 
z
" id="DejaVuSans-55"/>
       </defs>
       <use xlink:href="#DejaVuSans-55"/>
       <use x="63.623047" xlink:href="#DejaVuSans-46"/>
       <use x="95.410156" xlink:href="#DejaVuSans-53"/>
      </g>
     </g>
    </g>
    <g id="text_4">
     <!-- MSE -->
     <g transform="translate(28.617188 91.253774)rotate(-90)scale(0.1 -0.1)">
      <defs>
       <path d="M 9.8125 72.90625 
L 24.515625 72.90625 
L 43.109375 23.296875 
L 61.8125 72.90625 
L 76.515625 72.90625 
L 76.515625 0 
L 66.890625 0 
L 66.890625 64.015625 
L 48.09375 14.015625 
L 38.1875 14.015625 
L 19.390625 64.015625 
L 19.390625 0 
L 9.8125 0 
z
" id="DejaVuSans-77"/>
       <path d="M 53.515625 70.515625 
L 53.515625 60.890625 
Q 47.90625 63.578125 42.921875 64.890625 
Q 37.9375 66.21875 33.296875 66.21875 
Q 25.25 66.21875 20.875 63.09375 
Q 16.5 59.96875 16.5 54.203125 
Q 16.5 49.359375 19.40625 46.890625 
Q 22.3125 44.4375 30.421875 42.921875 
L 36.375 41.703125 
Q 47.40625 39.59375 52.65625 34.296875 
Q 57.90625 29 57.90625 20.125 
Q 57.90625 9.515625 50.796875 4.046875 
Q 43.703125 -1.421875 29.984375 -1.421875 
Q 24.8125 -1.421875 18.96875 -0.25 
Q 13.140625 0.921875 6.890625 3.21875 
L 6.890625 13.375 
Q 12.890625 10.015625 18.65625 8.296875 
Q 24.421875 6.59375 29.984375 6.59375 
Q 38.421875 6.59375 43.015625 9.90625 
Q 47.609375 13.234375 47.609375 19.390625 
Q 47.609375 24.75 44.3125 27.78125 
Q 41.015625 30.8125 33.5 32.328125 
L 27.484375 33.5 
Q 16.453125 35.6875 11.515625 40.375 
Q 6.59375 45.0625 6.59375 53.421875 
Q 6.59375 63.09375 13.40625 68.65625 
Q 20.21875 74.21875 32.171875 74.21875 
Q 37.3125 74.21875 42.625 73.28125 
Q 47.953125 72.359375 53.515625 70.515625 
z
" id="DejaVuSans-83"/>
       <path d="M 9.8125 72.90625 
L 55.90625 72.90625 
L 55.90625 64.59375 
L 19.671875 64.59375 
L 19.671875 43.015625 
L 54.390625 43.015625 
L 54.390625 34.71875 
L 19.671875 34.71875 
L 19.671875 8.296875 
L 56.78125 8.296875 
L 56.78125 0 
L 9.8125 0 
z
" id="DejaVuSans-69"/>
      </defs>
      <use xlink:href="#DejaVuSans-77"/>
      <use x="86.279297" xlink:href="#DejaVuSans-83"/>
      <use x="149.755859" xlink:href="#DejaVuSans-69"/>
     </g>
    </g>
   </g>
   <g id="line2d_5">
    <path clip-path="url(#p28e101f23c)" d="M 125.518717 55.049292 
L 124.198625 56.606877 
L 122.878533 58.703882 
L 121.558442 61.164723 
L 120.23835 63.992855 
L 118.918258 67.370943 
L 117.598167 71.055617 
L 116.278075 74.321874 
L 114.957983 77.20958 
L 113.637892 80.1803 
L 112.3178 83.667948 
L 110.997708 86.802143 
L 109.677617 89.560654 
L 108.357525 91.919347 
L 107.037433 93.9171 
L 105.717341 95.478422 
L 104.39725 96.619511 
L 103.077158 97.477402 
L 101.757066 98.207822 
L 100.436975 98.778841 
L 99.116883 99.166692 
L 97.796791 99.411314 
L 96.4767 99.533212 
L 95.156608 99.564498 
L 93.836516 99.461836 
L 92.516425 99.272496 
L 91.196333 99.013956 
L 89.876241 98.726959 
L 88.55615 98.426749 
L 87.236058 98.117745 
L 85.915966 97.795626 
L 84.595875 97.454056 
L 83.275783 97.099506 
L 81.955691 96.746625 
L 80.6356 96.388305 
L 79.315508 96.029537 
L 77.995416 95.666844 
L 76.675325 95.306429 
L 75.355233 94.950419 
L 74.035141 94.60117 
L 72.71505 94.264951 
L 71.394958 93.941335 
L 70.074866 93.636779 
L 68.754775 93.346498 
L 67.434683 93.076329 
L 66.114591 92.821059 
L 64.7945 92.578475 
L 63.474408 92.35167 
L 62.154316 92.135468 
L 60.834225 91.930256 
" style="fill:none;stroke:#87cefa;stroke-linecap:square;"/>
   </g>
   <g id="line2d_6">
    <path clip-path="url(#p28e101f23c)" d="M 125.518717 66.469231 
L 124.198625 72.966957 
L 122.878533 70.320371 
L 121.558442 81.959536 
L 120.23835 86.367584 
L 118.918258 95.155626 
L 117.598167 103.377625 
L 116.278075 102.08304 
L 114.957983 104.447737 
L 113.637892 102.211394 
L 112.3178 104.980935 
L 110.997708 106.58086 
L 109.677617 107.108617 
L 108.357525 106.745534 
L 107.037433 108.347669 
L 105.717341 108.22939 
L 104.39725 108.294299 
L 103.077158 108.400999 
L 101.757066 104.790168 
L 100.436975 106.485314 
L 99.116883 106.109807 
L 97.796791 97.207767 
L 96.4767 102.108823 
L 95.156608 97.488099 
L 93.836516 99.727714 
L 92.516425 97.627849 
L 91.196333 97.659718 
L 89.876241 94.996961 
L 88.55615 94.710211 
L 87.236058 95.583566 
L 85.915966 92.074409 
L 84.595875 92.472322 
L 83.275783 88.959547 
L 81.955691 88.264905 
L 80.6356 88.751434 
L 79.315508 88.404707 
L 77.995416 91.037395 
L 76.675325 85.652191 
L 75.355233 85.097104 
L 74.035141 87.108211 
L 72.71505 86.732063 
L 71.394958 87.973726 
L 70.074866 78.351122 
L 68.754775 82.762792 
L 67.434683 82.644014 
L 66.114591 80.071344 
L 64.7945 79.928436 
L 63.474408 83.736166 
L 62.154316 84.335538 
L 60.834225 81.40991 
" style="fill:none;stroke:#6a5acd;stroke-linecap:square;"/>
   </g>
   <g id="line2d_7">
    <path clip-path="url(#p28e101f23c)" d="M 95.156608 119.740235 
L 95.156608 41.472 
" style="fill:none;stroke:#87cefa;stroke-dasharray:7.4,3.2;stroke-dashoffset:0;stroke-width:2;"/>
   </g>
   <g id="line2d_8">
    <path clip-path="url(#p28e101f23c)" d="M 103.077158 119.740235 
L 103.077158 41.472 
" style="fill:none;stroke:#6a5acd;stroke-dasharray:7.4,3.2;stroke-dashoffset:0;stroke-width:2;"/>
   </g>
   <g id="patch_3">
    <path d="M 57.6 119.740235 
L 57.6 41.472 
" style="fill:none;stroke:#000000;stroke-linecap:square;stroke-linejoin:miter;stroke-width:0.8;"/>
   </g>
   <g id="patch_4">
    <path d="M 128.752941 119.740235 
L 128.752941 41.472 
" style="fill:none;stroke:#000000;stroke-linecap:square;stroke-linejoin:miter;stroke-width:0.8;"/>
   </g>
   <g id="patch_5">
    <path d="M 57.6 119.740235 
L 128.752941 119.740235 
" style="fill:none;stroke:#000000;stroke-linecap:square;stroke-linejoin:miter;stroke-width:0.8;"/>
   </g>
   <g id="patch_6">
    <path d="M 57.6 41.472 
L 128.752941 41.472 
" style="fill:none;stroke:#000000;stroke-linecap:square;stroke-linejoin:miter;stroke-width:0.8;"/>
   </g>
   <g id="text_5">
    <!-- Corr = 0.3 -->
    <g transform="translate(58.899596 35.472)scale(0.12 -0.12)">
     <defs>
      <path d="M 67 4 
Q 61.8125 1.3125 56.203125 -0.046875 
Q 50.59375 -1.421875 44.484375 -1.421875 
Q 26.265625 -1.421875 15.625 8.765625 
Q 4.984375 18.953125 4.984375 36.375 
Q 4.984375 53.859375 15.625 64.03125 
Q 26.265625 74.21875 44.484375 74.21875 
Q 50.59375 74.21875 56.203125 72.84375 
Q 61.8125 71.484375 67 68.796875 
L 67 53.71875 
Q 61.765625 57.28125 56.6875 58.9375 
Q 51.609375 60.59375 46 60.59375 
Q 35.9375 60.59375 30.171875 54.140625 
Q 24.421875 47.703125 24.421875 36.375 
Q 24.421875 25.09375 30.171875 18.640625 
Q 35.9375 12.203125 46 12.203125 
Q 51.609375 12.203125 56.6875 13.859375 
Q 61.765625 15.53125 67 19.09375 
z
" id="DejaVuSans-Bold-67"/>
      <path d="M 34.421875 43.5 
Q 28.609375 43.5 25.5625 39.328125 
Q 22.515625 35.15625 22.515625 27.296875 
Q 22.515625 19.4375 25.5625 15.25 
Q 28.609375 11.078125 34.421875 11.078125 
Q 40.140625 11.078125 43.15625 15.25 
Q 46.1875 19.4375 46.1875 27.296875 
Q 46.1875 35.15625 43.15625 39.328125 
Q 40.140625 43.5 34.421875 43.5 
z
M 34.421875 56 
Q 48.53125 56 56.46875 48.375 
Q 64.40625 40.765625 64.40625 27.296875 
Q 64.40625 13.8125 56.46875 6.1875 
Q 48.53125 -1.421875 34.421875 -1.421875 
Q 20.265625 -1.421875 12.28125 6.1875 
Q 4.296875 13.8125 4.296875 27.296875 
Q 4.296875 40.765625 12.28125 48.375 
Q 20.265625 56 34.421875 56 
z
" id="DejaVuSans-Bold-111"/>
      <path d="M 49.03125 39.796875 
Q 46.734375 40.875 44.453125 41.375 
Q 42.1875 41.890625 39.890625 41.890625 
Q 33.15625 41.890625 29.515625 37.5625 
Q 25.875 33.25 25.875 25.203125 
L 25.875 0 
L 8.40625 0 
L 8.40625 54.6875 
L 25.875 54.6875 
L 25.875 45.703125 
Q 29.25 51.078125 33.609375 53.53125 
Q 37.984375 56 44.09375 56 
Q 44.96875 56 45.984375 55.921875 
Q 47.015625 55.859375 48.96875 55.609375 
z
" id="DejaVuSans-Bold-114"/>
      <path id="DejaVuSans-Bold-32"/>
      <path d="M 10.59375 48.1875 
L 73.1875 48.1875 
L 73.1875 36.71875 
L 10.59375 36.71875 
z
M 10.59375 25.984375 
L 73.1875 25.984375 
L 73.1875 14.40625 
L 10.59375 14.40625 
z
" id="DejaVuSans-Bold-61"/>
      <path d="M 46 36.53125 
Q 46 50.203125 43.4375 55.78125 
Q 40.875 61.375 34.8125 61.375 
Q 28.765625 61.375 26.171875 55.78125 
Q 23.578125 50.203125 23.578125 36.53125 
Q 23.578125 22.703125 26.171875 17.03125 
Q 28.765625 11.375 34.8125 11.375 
Q 40.828125 11.375 43.40625 17.03125 
Q 46 22.703125 46 36.53125 
z
M 64.796875 36.375 
Q 64.796875 18.265625 56.984375 8.421875 
Q 49.171875 -1.421875 34.8125 -1.421875 
Q 20.40625 -1.421875 12.59375 8.421875 
Q 4.78125 18.265625 4.78125 36.375 
Q 4.78125 54.546875 12.59375 64.375 
Q 20.40625 74.21875 34.8125 74.21875 
Q 49.171875 74.21875 56.984375 64.375 
Q 64.796875 54.546875 64.796875 36.375 
z
" id="DejaVuSans-Bold-48"/>
      <path d="M 10.203125 18.890625 
L 27.78125 18.890625 
L 27.78125 0 
L 10.203125 0 
z
" id="DejaVuSans-Bold-46"/>
      <path d="M 46.578125 39.3125 
Q 53.953125 37.40625 57.78125 32.6875 
Q 61.625 27.984375 61.625 20.703125 
Q 61.625 9.859375 53.3125 4.21875 
Q 45.015625 -1.421875 29.109375 -1.421875 
Q 23.484375 -1.421875 17.84375 -0.515625 
Q 12.203125 0.390625 6.6875 2.203125 
L 6.6875 16.703125 
Q 11.96875 14.0625 17.15625 12.71875 
Q 22.359375 11.375 27.390625 11.375 
Q 34.859375 11.375 38.84375 13.953125 
Q 42.828125 16.546875 42.828125 21.390625 
Q 42.828125 26.375 38.75 28.9375 
Q 34.671875 31.5 26.703125 31.5 
L 19.1875 31.5 
L 19.1875 43.609375 
L 27.09375 43.609375 
Q 34.1875 43.609375 37.640625 45.828125 
Q 41.109375 48.046875 41.109375 52.59375 
Q 41.109375 56.78125 37.734375 59.078125 
Q 34.375 61.375 28.21875 61.375 
Q 23.6875 61.375 19.046875 60.34375 
Q 14.40625 59.328125 9.8125 57.328125 
L 9.8125 71.09375 
Q 15.375 72.65625 20.84375 73.4375 
Q 26.3125 74.21875 31.59375 74.21875 
Q 45.796875 74.21875 52.84375 69.546875 
Q 59.90625 64.890625 59.90625 55.515625 
Q 59.90625 49.125 56.53125 45.046875 
Q 53.171875 40.96875 46.578125 39.3125 
z
" id="DejaVuSans-Bold-51"/>
     </defs>
     <use xlink:href="#DejaVuSans-Bold-67"/>
     <use x="73.388672" xlink:href="#DejaVuSans-Bold-111"/>
     <use x="142.089844" xlink:href="#DejaVuSans-Bold-114"/>
     <use x="191.40625" xlink:href="#DejaVuSans-Bold-114"/>
     <use x="240.722656" xlink:href="#DejaVuSans-Bold-32"/>
     <use x="275.537109" xlink:href="#DejaVuSans-Bold-61"/>
     <use x="359.326172" xlink:href="#DejaVuSans-Bold-32"/>
     <use x="394.140625" xlink:href="#DejaVuSans-Bold-48"/>
     <use x="463.720703" xlink:href="#DejaVuSans-Bold-46"/>
     <use x="501.708984" xlink:href="#DejaVuSans-Bold-51"/>
    </g>
   </g>
  </g>
  <g id="axes_2">
   <g id="patch_7">
    <path d="M 142.983529 119.740235 
L 214.136471 119.740235 
L 214.136471 41.472 
L 142.983529 41.472 
z
" style="fill:#ffffff;"/>
   </g>
   <g id="matplotlib.axis_3">
    <g id="xtick_2">
     <g id="line2d_9">
      <g>
       <use style="stroke:#000000;stroke-width:0.8;" x="210.902246" xlink:href="#m7366e46876" y="119.740235"/>
      </g>
     </g>
    </g>
   </g>
   <g id="matplotlib.axis_4">
    <g id="ytick_4">
     <g id="line2d_10">
      <g>
       <use style="stroke:#000000;stroke-width:0.8;" x="142.983529" xlink:href="#mcec650716f" y="112.345593"/>
      </g>
     </g>
    </g>
    <g id="ytick_5">
     <g id="line2d_11">
      <g>
       <use style="stroke:#000000;stroke-width:0.8;" x="142.983529" xlink:href="#mcec650716f" y="87.655515"/>
      </g>
     </g>
    </g>
    <g id="ytick_6">
     <g id="line2d_12">
      <g>
       <use style="stroke:#000000;stroke-width:0.8;" x="142.983529" xlink:href="#mcec650716f" y="62.965437"/>
      </g>
     </g>
    </g>
   </g>
   <g id="line2d_13">
    <path clip-path="url(#pda019343e4)" d="M 210.902246 45.029647 
L 209.582154 46.310682 
L 208.262063 48.116294 
L 206.941971 51.305356 
L 205.621879 55.400256 
L 204.301788 59.107995 
L 202.981696 62.717081 
L 201.661604 66.991694 
L 200.341513 70.88307 
L 199.021421 74.507024 
L 197.701329 77.872222 
L 196.381238 81.011749 
L 195.061146 83.733742 
L 193.741054 86.057002 
L 192.420963 88.198965 
L 191.100871 90.151871 
L 189.780779 91.884017 
L 188.460688 93.236736 
L 187.140596 94.281849 
L 185.820504 95.076151 
L 184.500413 95.681087 
L 183.180321 96.149771 
L 181.860229 96.452898 
L 180.540138 96.602137 
L 179.220046 96.611279 
L 177.899954 96.485378 
L 176.579862 96.264774 
L 175.259771 95.969328 
L 173.939679 95.603103 
L 172.619587 95.194233 
L 171.299496 94.747052 
L 169.979404 94.238838 
L 168.659312 93.694008 
L 167.339221 93.13456 
L 166.019129 92.556827 
L 164.699037 91.962755 
L 163.378946 91.385065 
L 162.058854 90.816705 
L 160.738762 90.259349 
L 159.418671 89.711367 
L 158.098579 89.183525 
L 156.778487 88.672534 
L 155.458396 88.176046 
L 154.138304 87.692469 
L 152.818212 87.227138 
L 151.498121 86.781264 
L 150.178029 86.355652 
L 148.857937 85.9514 
L 147.537846 85.568428 
L 146.217754 85.205959 
" style="fill:none;stroke:#87cefa;stroke-linecap:square;"/>
   </g>
   <g id="line2d_14">
    <path clip-path="url(#pda019343e4)" d="M 210.902246 52.243644 
L 209.582154 60.682946 
L 208.262063 69.492416 
L 206.941971 76.492411 
L 205.621879 71.513415 
L 204.301788 80.834739 
L 202.981696 86.997805 
L 201.661604 89.98219 
L 200.341513 94.009632 
L 199.021421 98.308249 
L 197.701329 98.408065 
L 196.381238 99.269348 
L 195.061146 100.712201 
L 193.741054 101.02032 
L 192.420963 100.483432 
L 191.100871 102.352454 
L 189.780779 101.62511 
L 188.460688 105.271231 
L 187.140596 104.540035 
L 185.820504 102.407622 
L 184.500413 101.886326 
L 183.180321 100.503908 
L 181.860229 99.151076 
L 180.540138 97.475104 
L 179.220046 93.09748 
L 177.899954 92.551707 
L 176.579862 91.822419 
L 175.259771 89.991945 
L 173.939679 85.946503 
L 172.619587 87.132922 
L 171.299496 83.041616 
L 169.979404 81.240101 
L 168.659312 80.924087 
L 167.339221 79.625426 
L 166.019129 79.306152 
L 164.699037 76.190757 
L 163.378946 78.453249 
L 162.058854 75.226151 
L 160.738762 71.788506 
L 159.418671 77.445114 
L 158.098579 74.45703 
L 156.778487 73.075985 
L 155.458396 69.817688 
L 154.138304 70.415141 
L 152.818212 67.961259 
L 151.498121 72.922739 
L 150.178029 74.336548 
L 148.857937 70.215466 
L 147.537846 65.863439 
L 146.217754 73.596414 
" style="fill:none;stroke:#6a5acd;stroke-linecap:square;"/>
   </g>
   <g id="line2d_15">
    <path clip-path="url(#pda019343e4)" d="M 179.220046 119.740235 
L 179.220046 41.472 
" style="fill:none;stroke:#87cefa;stroke-dasharray:7.4,3.2;stroke-dashoffset:0;stroke-width:2;"/>
   </g>
   <g id="line2d_16">
    <path clip-path="url(#pda019343e4)" d="M 188.460688 119.740235 
L 188.460688 41.472 
" style="fill:none;stroke:#6a5acd;stroke-dasharray:7.4,3.2;stroke-dashoffset:0;stroke-width:2;"/>
   </g>
   <g id="patch_8">
    <path d="M 142.983529 119.740235 
L 142.983529 41.472 
" style="fill:none;stroke:#000000;stroke-linecap:square;stroke-linejoin:miter;stroke-width:0.8;"/>
   </g>
   <g id="patch_9">
    <path d="M 214.136471 119.740235 
L 214.136471 41.472 
" style="fill:none;stroke:#000000;stroke-linecap:square;stroke-linejoin:miter;stroke-width:0.8;"/>
   </g>
   <g id="patch_10">
    <path d="M 142.983529 119.740235 
L 214.136471 119.740235 
" style="fill:none;stroke:#000000;stroke-linecap:square;stroke-linejoin:miter;stroke-width:0.8;"/>
   </g>
   <g id="patch_11">
    <path d="M 142.983529 41.472 
L 214.136471 41.472 
" style="fill:none;stroke:#000000;stroke-linecap:square;stroke-linejoin:miter;stroke-width:0.8;"/>
   </g>
   <g id="text_6">
    <!-- Corr = 0.7 -->
    <g transform="translate(144.283125 35.472)scale(0.12 -0.12)">
     <defs>
      <path d="M 6.6875 72.90625 
L 61.625 72.90625 
L 61.625 62.3125 
L 33.203125 0 
L 14.890625 0 
L 41.796875 59.078125 
L 6.6875 59.078125 
z
" id="DejaVuSans-Bold-55"/>
     </defs>
     <use xlink:href="#DejaVuSans-Bold-67"/>
     <use x="73.388672" xlink:href="#DejaVuSans-Bold-111"/>
     <use x="142.089844" xlink:href="#DejaVuSans-Bold-114"/>
     <use x="191.40625" xlink:href="#DejaVuSans-Bold-114"/>
     <use x="240.722656" xlink:href="#DejaVuSans-Bold-32"/>
     <use x="275.537109" xlink:href="#DejaVuSans-Bold-61"/>
     <use x="359.326172" xlink:href="#DejaVuSans-Bold-32"/>
     <use x="394.140625" xlink:href="#DejaVuSans-Bold-48"/>
     <use x="463.720703" xlink:href="#DejaVuSans-Bold-46"/>
     <use x="501.708984" xlink:href="#DejaVuSans-Bold-55"/>
    </g>
   </g>
  </g>
  <g id="axes_3">
   <g id="patch_12">
    <path d="M 228.367059 119.740235 
L 299.52 119.740235 
L 299.52 41.472 
L 228.367059 41.472 
z
" style="fill:#ffffff;"/>
   </g>
   <g id="matplotlib.axis_5">
    <g id="xtick_3">
     <g id="line2d_17">
      <g>
       <use style="stroke:#000000;stroke-width:0.8;" x="296.285775" xlink:href="#m7366e46876" y="119.740235"/>
      </g>
     </g>
    </g>
   </g>
   <g id="matplotlib.axis_6">
    <g id="ytick_7">
     <g id="line2d_18">
      <g>
       <use style="stroke:#000000;stroke-width:0.8;" x="228.367059" xlink:href="#mcec650716f" y="112.345593"/>
      </g>
     </g>
    </g>
    <g id="ytick_8">
     <g id="line2d_19">
      <g>
       <use style="stroke:#000000;stroke-width:0.8;" x="228.367059" xlink:href="#mcec650716f" y="87.655515"/>
      </g>
     </g>
    </g>
    <g id="ytick_9">
     <g id="line2d_20">
      <g>
       <use style="stroke:#000000;stroke-width:0.8;" x="228.367059" xlink:href="#mcec650716f" y="62.965437"/>
      </g>
     </g>
    </g>
   </g>
   <g id="line2d_21">
    <path clip-path="url(#p706357cd98)" d="M 296.285775 80.642656 
L 294.965684 81.745753 
L 293.645592 83.831442 
L 292.3255 86.802201 
L 291.005409 89.452605 
L 289.685317 91.861747 
L 288.365225 94.312501 
L 287.045134 96.46014 
L 285.725042 98.480261 
L 284.40495 100.263873 
L 283.084859 101.846843 
L 281.764767 103.318235 
L 280.444675 104.667891 
L 279.124584 105.888171 
L 277.804492 106.947663 
L 276.4844 107.883896 
L 275.164309 108.730495 
L 273.844217 109.601212 
L 272.524125 110.382917 
L 271.204034 111.136119 
L 269.883942 111.827708 
L 268.56385 112.39718 
L 267.243759 112.894677 
L 265.923667 113.337369 
L 264.603575 113.768112 
L 263.283484 114.128115 
L 261.963392 114.436881 
L 260.6433 114.695503 
L 259.323209 114.913153 
L 258.003117 115.102887 
L 256.683025 115.247531 
L 255.362934 115.354698 
L 254.042842 115.442328 
L 252.72275 115.507673 
L 251.402659 115.54765 
L 250.082567 115.557558 
L 248.762475 115.540012 
L 247.442383 115.491296 
L 246.122292 115.398003 
L 244.8022 115.270865 
L 243.482108 115.119517 
L 242.162017 114.939937 
L 240.841925 114.731135 
L 239.521833 114.49927 
L 238.201742 114.249429 
L 236.88165 113.967621 
L 235.561558 113.652345 
L 234.241467 113.323443 
L 232.921375 112.982617 
L 231.601283 112.621994 
" style="fill:none;stroke:#87cefa;stroke-linecap:square;"/>
   </g>
   <g id="line2d_22">
    <path clip-path="url(#p706357cd98)" d="M 296.285775 83.681634 
L 294.965684 87.878355 
L 293.645592 100.822765 
L 292.3255 105.307687 
L 291.005409 106.346839 
L 289.685317 106.61309 
L 288.365225 110.912338 
L 287.045134 110.070602 
L 285.725042 107.483212 
L 284.40495 108.786771 
L 283.084859 110.790452 
L 281.764767 111.171645 
L 280.444675 113.226333 
L 279.124584 110.725769 
L 277.804492 112.325793 
L 276.4844 113.390664 
L 275.164309 112.921269 
L 273.844217 113.664031 
L 272.524125 114.692127 
L 271.204034 113.425458 
L 269.883942 115.315921 
L 268.56385 116.182588 
L 267.243759 115.662766 
L 265.923667 116.089128 
L 264.603575 115.751304 
L 263.283484 115.646242 
L 261.963392 115.654652 
L 260.6433 115.818549 
L 259.323209 115.956314 
L 258.003117 115.817362 
L 256.683025 114.613083 
L 255.362934 114.982221 
L 254.042842 114.398439 
L 252.72275 113.852925 
L 251.402659 113.46234 
L 250.082567 113.373746 
L 248.762475 112.861692 
L 247.442383 111.386665 
L 246.122292 111.734695 
L 244.8022 111.188535 
L 243.482108 110.668324 
L 242.162017 108.126017 
L 240.841925 106.588343 
L 239.521833 106.690128 
L 238.201742 105.289409 
L 236.88165 102.805224 
L 235.561558 100.797731 
L 234.241467 102.955938 
L 232.921375 100.291074 
L 231.601283 98.365851 
" style="fill:none;stroke:#6a5acd;stroke-linecap:square;"/>
   </g>
   <g id="line2d_23">
    <path clip-path="url(#p706357cd98)" d="M 250.082567 119.740235 
L 250.082567 41.472 
" style="fill:none;stroke:#87cefa;stroke-dasharray:7.4,3.2;stroke-dashoffset:0;stroke-width:2;"/>
   </g>
   <g id="line2d_24">
    <path clip-path="url(#p706357cd98)" d="M 268.56385 119.740235 
L 268.56385 41.472 
" style="fill:none;stroke:#6a5acd;stroke-dasharray:7.4,3.2;stroke-dashoffset:0;stroke-width:2;"/>
   </g>
   <g id="patch_13">
    <path d="M 228.367059 119.740235 
L 228.367059 41.472 
" style="fill:none;stroke:#000000;stroke-linecap:square;stroke-linejoin:miter;stroke-width:0.8;"/>
   </g>
   <g id="patch_14">
    <path d="M 299.52 119.740235 
L 299.52 41.472 
" style="fill:none;stroke:#000000;stroke-linecap:square;stroke-linejoin:miter;stroke-width:0.8;"/>
   </g>
   <g id="patch_15">
    <path d="M 228.367059 119.740235 
L 299.52 119.740235 
" style="fill:none;stroke:#000000;stroke-linecap:square;stroke-linejoin:miter;stroke-width:0.8;"/>
   </g>
   <g id="patch_16">
    <path d="M 228.367059 41.472 
L 299.52 41.472 
" style="fill:none;stroke:#000000;stroke-linecap:square;stroke-linejoin:miter;stroke-width:0.8;"/>
   </g>
   <g id="text_7">
    <!-- Corr = 0.99 -->
    <g transform="translate(225.491967 35.472)scale(0.12 -0.12)">
     <defs>
      <path d="M 10.015625 1.609375 
L 10.015625 15.09375 
Q 14.5 12.984375 18.59375 11.9375 
Q 22.703125 10.890625 26.703125 10.890625 
Q 35.109375 10.890625 39.796875 15.546875 
Q 44.484375 20.21875 45.3125 29.390625 
Q 42 26.953125 38.234375 25.734375 
Q 34.46875 24.515625 30.078125 24.515625 
Q 18.890625 24.515625 12.03125 31.03125 
Q 5.171875 37.546875 5.171875 48.1875 
Q 5.171875 59.96875 12.8125 67.046875 
Q 20.453125 74.125 33.296875 74.125 
Q 47.5625 74.125 55.375 64.5 
Q 63.1875 54.890625 63.1875 37.3125 
Q 63.1875 19.234375 54.046875 8.90625 
Q 44.921875 -1.421875 29 -1.421875 
Q 23.875 -1.421875 19.1875 -0.65625 
Q 14.5 0.09375 10.015625 1.609375 
z
M 33.203125 36.71875 
Q 38.140625 36.71875 40.625 39.90625 
Q 43.109375 43.109375 43.109375 49.515625 
Q 43.109375 55.859375 40.625 59.078125 
Q 38.140625 62.3125 33.203125 62.3125 
Q 28.265625 62.3125 25.78125 59.078125 
Q 23.296875 55.859375 23.296875 49.515625 
Q 23.296875 43.109375 25.78125 39.90625 
Q 28.265625 36.71875 33.203125 36.71875 
z
" id="DejaVuSans-Bold-57"/>
     </defs>
     <use xlink:href="#DejaVuSans-Bold-67"/>
     <use x="73.388672" xlink:href="#DejaVuSans-Bold-111"/>
     <use x="142.089844" xlink:href="#DejaVuSans-Bold-114"/>
     <use x="191.40625" xlink:href="#DejaVuSans-Bold-114"/>
     <use x="240.722656" xlink:href="#DejaVuSans-Bold-32"/>
     <use x="275.537109" xlink:href="#DejaVuSans-Bold-61"/>
     <use x="359.326172" xlink:href="#DejaVuSans-Bold-32"/>
     <use x="394.140625" xlink:href="#DejaVuSans-Bold-48"/>
     <use x="463.720703" xlink:href="#DejaVuSans-Bold-46"/>
     <use x="501.708984" xlink:href="#DejaVuSans-Bold-57"/>
     <use x="571.289062" xlink:href="#DejaVuSans-Bold-57"/>
    </g>
   </g>
  </g>
  <g id="axes_4">
   <g id="patch_17">
    <path d="M 57.6 213.662118 
L 128.752941 213.662118 
L 128.752941 135.393882 
L 57.6 135.393882 
z
" style="fill:#ffffff;"/>
   </g>
   <g id="matplotlib.axis_7">
    <g id="xtick_4">
     <g id="line2d_25">
      <g>
       <use style="stroke:#000000;stroke-width:0.8;" x="125.518717" xlink:href="#m7366e46876" y="213.662118"/>
      </g>
     </g>
    </g>
   </g>
   <g id="matplotlib.axis_8">
    <g id="ytick_10">
     <g id="line2d_26">
      <g>
       <use style="stroke:#000000;stroke-width:0.8;" x="57.6" xlink:href="#mcec650716f" y="213.513419"/>
      </g>
     </g>
     <g id="text_8">
      <!-- 0 -->
      <g transform="translate(44.2375 217.312637)scale(0.1 -0.1)">
       <use xlink:href="#DejaVuSans-48"/>
      </g>
     </g>
    </g>
    <g id="ytick_11">
     <g id="line2d_27">
      <g>
       <use style="stroke:#000000;stroke-width:0.8;" x="57.6" xlink:href="#mcec650716f" y="174.489458"/>
      </g>
     </g>
     <g id="text_9">
      <!-- 5000 -->
      <g transform="translate(25.15 178.288676)scale(0.1 -0.1)">
       <use xlink:href="#DejaVuSans-53"/>
       <use x="63.623047" xlink:href="#DejaVuSans-48"/>
       <use x="127.246094" xlink:href="#DejaVuSans-48"/>
       <use x="190.869141" xlink:href="#DejaVuSans-48"/>
      </g>
     </g>
    </g>
    <g id="ytick_12">
     <g id="line2d_28">
      <g>
       <use style="stroke:#000000;stroke-width:0.8;" x="57.6" xlink:href="#mcec650716f" y="135.465496"/>
      </g>
     </g>
     <g id="text_10">
      <!-- 10000 -->
      <g transform="translate(18.7875 139.264715)scale(0.1 -0.1)">
       <defs>
        <path d="M 12.40625 8.296875 
L 28.515625 8.296875 
L 28.515625 63.921875 
L 10.984375 60.40625 
L 10.984375 69.390625 
L 28.421875 72.90625 
L 38.28125 72.90625 
L 38.28125 8.296875 
L 54.390625 8.296875 
L 54.390625 0 
L 12.40625 0 
z
" id="DejaVuSans-49"/>
       </defs>
       <use xlink:href="#DejaVuSans-49"/>
       <use x="63.623047" xlink:href="#DejaVuSans-48"/>
       <use x="127.246094" xlink:href="#DejaVuSans-48"/>
       <use x="190.869141" xlink:href="#DejaVuSans-48"/>
       <use x="254.492188" xlink:href="#DejaVuSans-48"/>
      </g>
     </g>
    </g>
    <g id="text_11">
     <!-- SURE -->
     <g transform="translate(12.707813 187.995187)rotate(-90)scale(0.1 -0.1)">
      <defs>
       <path d="M 8.6875 72.90625 
L 18.609375 72.90625 
L 18.609375 28.609375 
Q 18.609375 16.890625 22.84375 11.734375 
Q 27.09375 6.59375 36.625 6.59375 
Q 46.09375 6.59375 50.34375 11.734375 
Q 54.59375 16.890625 54.59375 28.609375 
L 54.59375 72.90625 
L 64.5 72.90625 
L 64.5 27.390625 
Q 64.5 13.140625 57.4375 5.859375 
Q 50.390625 -1.421875 36.625 -1.421875 
Q 22.796875 -1.421875 15.734375 5.859375 
Q 8.6875 13.140625 8.6875 27.390625 
z
" id="DejaVuSans-85"/>
       <path d="M 44.390625 34.1875 
Q 47.5625 33.109375 50.5625 29.59375 
Q 53.5625 26.078125 56.59375 19.921875 
L 66.609375 0 
L 56 0 
L 46.6875 18.703125 
Q 43.0625 26.03125 39.671875 28.421875 
Q 36.28125 30.8125 30.421875 30.8125 
L 19.671875 30.8125 
L 19.671875 0 
L 9.8125 0 
L 9.8125 72.90625 
L 32.078125 72.90625 
Q 44.578125 72.90625 50.734375 67.671875 
Q 56.890625 62.453125 56.890625 51.90625 
Q 56.890625 45.015625 53.6875 40.46875 
Q 50.484375 35.9375 44.390625 34.1875 
z
M 19.671875 64.796875 
L 19.671875 38.921875 
L 32.078125 38.921875 
Q 39.203125 38.921875 42.84375 42.21875 
Q 46.484375 45.515625 46.484375 51.90625 
Q 46.484375 58.296875 42.84375 61.546875 
Q 39.203125 64.796875 32.078125 64.796875 
z
" id="DejaVuSans-82"/>
      </defs>
      <use xlink:href="#DejaVuSans-83"/>
      <use x="63.476562" xlink:href="#DejaVuSans-85"/>
      <use x="136.669922" xlink:href="#DejaVuSans-82"/>
      <use x="206.152344" xlink:href="#DejaVuSans-69"/>
     </g>
    </g>
   </g>
   <g id="line2d_29">
    <path clip-path="url(#pf8d0eb9732)" d="M 125.518717 147.889958 
L 124.198625 150.646205 
L 122.878533 153.503921 
L 121.558442 157.852139 
L 120.23835 163.344414 
L 118.918258 168.613385 
L 117.598167 173.877464 
L 116.278075 178.427408 
L 114.957983 182.355564 
L 113.637892 185.641128 
L 112.3178 188.688578 
L 110.997708 191.429926 
L 109.677617 193.798907 
L 108.357525 195.742954 
L 107.037433 197.292532 
L 105.717341 198.421899 
L 104.39725 199.304152 
L 103.077158 199.851919 
L 101.757066 200.238128 
L 100.436975 200.505298 
L 99.116883 200.674318 
L 97.796791 200.748339 
L 96.4767 200.906014 
L 95.156608 201.13004 
L 93.836516 201.258301 
L 92.516425 201.297493 
L 91.196333 201.211009 
L 89.876241 201.036559 
L 88.55615 200.780456 
L 87.236058 200.450949 
L 85.915966 200.075838 
L 84.595875 199.669121 
L 83.275783 199.244542 
L 81.955691 198.798048 
L 80.6356 198.331745 
L 79.315508 197.862116 
L 77.995416 197.396864 
L 76.675325 196.932201 
L 75.355233 196.473271 
L 74.035141 196.023763 
L 72.71505 195.586008 
L 71.394958 195.162907 
L 70.074866 194.754555 
L 68.754775 194.362833 
L 67.434683 193.988559 
L 66.114591 193.630972 
L 64.7945 193.290472 
L 63.474408 192.966934 
L 62.154316 192.66 
L 60.834225 192.369511 
" style="fill:none;stroke:#87cefa;stroke-linecap:square;"/>
   </g>
   <g id="line2d_30">
    <path clip-path="url(#pf8d0eb9732)" d="M 125.518717 147.889958 
L 124.198625 165.586316 
L 122.878533 182.589216 
L 121.558442 182.756675 
L 120.23835 195.557413 
L 118.918258 193.962858 
L 117.598167 204.499053 
L 116.278075 204.651525 
L 114.957983 204.7687 
L 113.637892 204.859314 
L 112.3178 203.13544 
L 110.997708 203.078972 
L 109.677617 207.898994 
L 108.357525 208.000102 
L 107.037433 208.064419 
L 105.717341 208.109288 
L 104.39725 204.647369 
L 103.077158 202.408588 
L 101.757066 198.14731 
L 100.436975 197.01698 
L 99.116883 196.812939 
L 97.796791 196.18638 
L 96.4767 194.863839 
L 95.156608 194.205322 
L 93.836516 193.977398 
L 92.516425 194.732223 
L 91.196333 193.948023 
L 89.876241 194.318709 
L 88.55615 194.317006 
L 87.236058 194.252262 
L 85.915966 194.080065 
L 84.595875 194.000615 
L 83.275783 193.921097 
L 81.955691 193.647909 
L 80.6356 193.271965 
L 79.315508 192.867925 
L 77.995416 192.595065 
L 76.675325 192.341492 
L 75.355233 192.037325 
L 74.035141 191.758696 
L 72.71505 191.499237 
L 71.394958 191.257488 
L 70.074866 191.038814 
L 68.754775 190.84017 
L 67.434683 190.666172 
L 66.114591 190.502881 
L 64.7945 190.34848 
L 63.474408 190.205878 
L 62.154316 190.073476 
L 60.834225 189.949968 
" style="fill:none;stroke:#6a5acd;stroke-linecap:square;"/>
   </g>
   <g id="line2d_31">
    <path clip-path="url(#pf8d0eb9732)" d="M 92.516425 213.662118 
L 92.516425 135.393882 
" style="fill:none;stroke:#87cefa;stroke-dasharray:7.4,3.2;stroke-dashoffset:0;stroke-width:2;"/>
   </g>
   <g id="line2d_32">
    <path clip-path="url(#pf8d0eb9732)" d="M 105.717341 213.662118 
L 105.717341 135.393882 
" style="fill:none;stroke:#6a5acd;stroke-dasharray:7.4,3.2;stroke-dashoffset:0;stroke-width:2;"/>
   </g>
   <g id="patch_18">
    <path d="M 57.6 213.662118 
L 57.6 135.393882 
" style="fill:none;stroke:#000000;stroke-linecap:square;stroke-linejoin:miter;stroke-width:0.8;"/>
   </g>
   <g id="patch_19">
    <path d="M 128.752941 213.662118 
L 128.752941 135.393882 
" style="fill:none;stroke:#000000;stroke-linecap:square;stroke-linejoin:miter;stroke-width:0.8;"/>
   </g>
   <g id="patch_20">
    <path d="M 57.6 213.662118 
L 128.752941 213.662118 
" style="fill:none;stroke:#000000;stroke-linecap:square;stroke-linejoin:miter;stroke-width:0.8;"/>
   </g>
   <g id="patch_21">
    <path d="M 57.6 135.393882 
L 128.752941 135.393882 
" style="fill:none;stroke:#000000;stroke-linecap:square;stroke-linejoin:miter;stroke-width:0.8;"/>
   </g>
  </g>
  <g id="axes_5">
   <g id="patch_22">
    <path d="M 142.983529 213.662118 
L 214.136471 213.662118 
L 214.136471 135.393882 
L 142.983529 135.393882 
z
" style="fill:#ffffff;"/>
   </g>
   <g id="matplotlib.axis_9">
    <g id="xtick_5">
     <g id="line2d_33">
      <g>
       <use style="stroke:#000000;stroke-width:0.8;" x="210.902246" xlink:href="#m7366e46876" y="213.662118"/>
      </g>
     </g>
    </g>
   </g>
   <g id="matplotlib.axis_10">
    <g id="ytick_13">
     <g id="line2d_34">
      <g>
       <use style="stroke:#000000;stroke-width:0.8;" x="142.983529" xlink:href="#mcec650716f" y="213.513419"/>
      </g>
     </g>
    </g>
    <g id="ytick_14">
     <g id="line2d_35">
      <g>
       <use style="stroke:#000000;stroke-width:0.8;" x="142.983529" xlink:href="#mcec650716f" y="174.489458"/>
      </g>
     </g>
    </g>
    <g id="ytick_15">
     <g id="line2d_36">
      <g>
       <use style="stroke:#000000;stroke-width:0.8;" x="142.983529" xlink:href="#mcec650716f" y="135.465496"/>
      </g>
     </g>
    </g>
   </g>
   <g id="line2d_37">
    <path clip-path="url(#p64b1f41681)" d="M 210.902246 138.951529 
L 209.582154 140.263821 
L 208.262063 143.522727 
L 206.941971 148.134905 
L 205.621879 154.456104 
L 204.301788 160.019767 
L 202.981696 164.7839 
L 201.661604 168.862598 
L 200.341513 173.876338 
L 199.021421 178.370038 
L 197.701329 182.203047 
L 196.381238 185.469297 
L 195.061146 188.249259 
L 193.741054 190.547224 
L 192.420963 193.292312 
L 191.100871 195.639182 
L 189.780779 197.370119 
L 188.460688 198.596054 
L 187.140596 199.474186 
L 185.820504 199.925345 
L 184.500413 200.33274 
L 183.180321 200.710794 
L 181.860229 200.924924 
L 180.540138 200.946124 
L 179.220046 200.871278 
L 177.899954 200.840939 
L 176.579862 200.684143 
L 175.259771 200.449373 
L 173.939679 200.171895 
L 172.619587 199.850858 
L 171.299496 199.508124 
L 169.979404 199.120428 
L 168.659312 198.69277 
L 167.339221 198.224838 
L 166.019129 197.733794 
L 164.699037 197.231325 
L 163.378946 196.718762 
L 162.058854 196.198125 
L 160.738762 195.673596 
L 159.418671 195.153479 
L 158.098579 194.638039 
L 156.778487 194.128574 
L 155.458396 193.623456 
L 154.138304 193.126962 
L 152.818212 192.642768 
L 151.498121 192.171294 
L 150.178029 191.715321 
L 148.857937 191.27595 
L 147.537846 190.853978 
L 146.217754 190.450023 
" style="fill:none;stroke:#87cefa;stroke-linecap:square;"/>
   </g>
   <g id="line2d_38">
    <path clip-path="url(#p64b1f41681)" d="M 210.902246 138.951529 
L 209.582154 161.341691 
L 208.262063 161.440649 
L 206.941971 178.796945 
L 205.621879 191.217799 
L 204.301788 191.407289 
L 202.981696 191.553161 
L 201.661604 191.667143 
L 200.341513 202.900382 
L 199.021421 203.011482 
L 197.701329 203.096369 
L 196.381238 203.160768 
L 195.061146 203.208825 
L 193.741054 201.408704 
L 192.420963 208.505735 
L 191.100871 208.549124 
L 189.780779 208.576323 
L 188.460688 207.566438 
L 187.140596 206.130629 
L 185.820504 201.705786 
L 184.500413 199.830888 
L 183.180321 198.5081 
L 181.860229 195.654661 
L 180.540138 195.910609 
L 179.220046 195.300812 
L 177.899954 194.43734 
L 176.579862 192.172563 
L 175.259771 192.026327 
L 173.939679 191.376041 
L 172.619587 191.935328 
L 171.299496 191.753436 
L 169.979404 191.691505 
L 168.659312 192.330527 
L 167.339221 191.985156 
L 166.019129 191.484727 
L 164.699037 191.193171 
L 163.378946 190.984835 
L 162.058854 190.709422 
L 160.738762 190.378034 
L 159.418671 190.079708 
L 158.098579 189.791163 
L 156.778487 189.509515 
L 155.458396 189.230499 
L 154.138304 188.997215 
L 152.818212 188.761292 
L 151.498121 188.543288 
L 150.178029 188.321884 
L 148.857937 188.155339 
L 147.537846 187.990662 
L 146.217754 187.83165 
" style="fill:none;stroke:#6a5acd;stroke-linecap:square;"/>
   </g>
   <g id="line2d_39">
    <path clip-path="url(#p64b1f41681)" d="M 180.540138 213.662118 
L 180.540138 135.393882 
" style="fill:none;stroke:#87cefa;stroke-dasharray:7.4,3.2;stroke-dashoffset:0;stroke-width:2;"/>
   </g>
   <g id="line2d_40">
    <path clip-path="url(#p64b1f41681)" d="M 189.780779 213.662118 
L 189.780779 135.393882 
" style="fill:none;stroke:#6a5acd;stroke-dasharray:7.4,3.2;stroke-dashoffset:0;stroke-width:2;"/>
   </g>
   <g id="patch_23">
    <path d="M 142.983529 213.662118 
L 142.983529 135.393882 
" style="fill:none;stroke:#000000;stroke-linecap:square;stroke-linejoin:miter;stroke-width:0.8;"/>
   </g>
   <g id="patch_24">
    <path d="M 214.136471 213.662118 
L 214.136471 135.393882 
" style="fill:none;stroke:#000000;stroke-linecap:square;stroke-linejoin:miter;stroke-width:0.8;"/>
   </g>
   <g id="patch_25">
    <path d="M 142.983529 213.662118 
L 214.136471 213.662118 
" style="fill:none;stroke:#000000;stroke-linecap:square;stroke-linejoin:miter;stroke-width:0.8;"/>
   </g>
   <g id="patch_26">
    <path d="M 142.983529 135.393882 
L 214.136471 135.393882 
" style="fill:none;stroke:#000000;stroke-linecap:square;stroke-linejoin:miter;stroke-width:0.8;"/>
   </g>
  </g>
  <g id="axes_6">
   <g id="patch_27">
    <path d="M 228.367059 213.662118 
L 299.52 213.662118 
L 299.52 135.393882 
L 228.367059 135.393882 
z
" style="fill:#ffffff;"/>
   </g>
   <g id="matplotlib.axis_11">
    <g id="xtick_6">
     <g id="line2d_41">
      <g>
       <use style="stroke:#000000;stroke-width:0.8;" x="296.285775" xlink:href="#m7366e46876" y="213.662118"/>
      </g>
     </g>
    </g>
   </g>
   <g id="matplotlib.axis_12">
    <g id="ytick_16">
     <g id="line2d_42">
      <g>
       <use style="stroke:#000000;stroke-width:0.8;" x="228.367059" xlink:href="#mcec650716f" y="213.513419"/>
      </g>
     </g>
    </g>
    <g id="ytick_17">
     <g id="line2d_43">
      <g>
       <use style="stroke:#000000;stroke-width:0.8;" x="228.367059" xlink:href="#mcec650716f" y="174.489458"/>
      </g>
     </g>
    </g>
    <g id="ytick_18">
     <g id="line2d_44">
      <g>
       <use style="stroke:#000000;stroke-width:0.8;" x="228.367059" xlink:href="#mcec650716f" y="135.465496"/>
      </g>
     </g>
    </g>
   </g>
   <g id="line2d_45">
    <path clip-path="url(#p91d59c8987)" d="M 296.285775 167.808475 
L 294.965684 171.883351 
L 293.645592 175.347465 
L 292.3255 178.291744 
L 291.005409 181.372476 
L 289.685317 184.546384 
L 288.365225 187.272661 
L 287.045134 189.616322 
L 285.725042 191.572334 
L 284.40495 193.462704 
L 283.084859 195.241423 
L 281.764767 196.810567 
L 280.444675 198.348955 
L 279.124584 199.715823 
L 277.804492 200.903614 
L 276.4844 201.930586 
L 275.164309 202.823684 
L 273.844217 203.649136 
L 272.524125 204.503672 
L 271.204034 205.26756 
L 269.883942 205.933104 
L 268.56385 206.504711 
L 267.243759 207.006718 
L 265.923667 207.455623 
L 264.603575 207.846704 
L 263.283484 208.194261 
L 261.963392 208.493147 
L 260.6433 208.744794 
L 259.323209 208.969822 
L 258.003117 209.172059 
L 256.683025 209.346394 
L 255.362934 209.498423 
L 254.042842 209.626195 
L 252.72275 209.693227 
L 251.402659 209.724823 
L 250.082567 209.727047 
L 248.762475 209.694657 
L 247.442383 209.622844 
L 246.122292 209.540179 
L 244.8022 209.439026 
L 243.482108 209.282266 
L 242.162017 209.076514 
L 240.841925 208.86219 
L 239.521833 208.595952 
L 238.201742 208.336722 
L 236.88165 208.057299 
L 235.561558 207.781698 
L 234.241467 207.5137 
L 232.921375 207.240469 
L 231.601283 206.965843 
" style="fill:none;stroke:#87cefa;stroke-linecap:square;"/>
   </g>
   <g id="line2d_46">
    <path clip-path="url(#p91d59c8987)" d="M 296.285775 167.385568 
L 294.965684 194.131198 
L 293.645592 194.221663 
L 292.3255 193.006818 
L 291.005409 203.292317 
L 289.685317 203.431242 
L 288.365225 203.539167 
L 287.045134 203.524729 
L 285.725042 203.590494 
L 284.40495 202.571833 
L 283.084859 202.453155 
L 281.764767 201.854285 
L 280.444675 206.1003 
L 279.124584 207.111419 
L 277.804492 207.081589 
L 276.4844 207.166372 
L 275.164309 206.550881 
L 273.844217 208.071613 
L 272.524125 209.862479 
L 271.204034 210.101433 
L 269.883942 210.104471 
L 268.56385 209.909711 
L 267.243759 209.916842 
L 265.923667 209.682618 
L 264.603575 209.521783 
L 263.283484 209.399319 
L 261.963392 209.172435 
L 260.6433 209.128993 
L 259.323209 208.383925 
L 258.003117 208.456594 
L 256.683025 208.292457 
L 255.362934 207.712503 
L 254.042842 207.47464 
L 252.72275 207.910388 
L 251.402659 207.839188 
L 250.082567 206.697133 
L 248.762475 207.190547 
L 247.442383 206.197324 
L 246.122292 205.485354 
L 244.8022 204.343531 
L 243.482108 203.919213 
L 242.162017 202.983406 
L 240.841925 202.30528 
L 239.521833 200.712698 
L 238.201742 200.231895 
L 236.88165 199.637488 
L 235.561558 199.779941 
L 234.241467 198.912125 
L 232.921375 199.649183 
L 231.601283 199.898479 
" style="fill:none;stroke:#6a5acd;stroke-linecap:square;"/>
   </g>
   <g id="line2d_47">
    <path clip-path="url(#p91d59c8987)" d="M 250.082567 213.662118 
L 250.082567 135.393882 
" style="fill:none;stroke:#87cefa;stroke-dasharray:7.4,3.2;stroke-dashoffset:0;stroke-width:2;"/>
   </g>
   <g id="line2d_48">
    <path clip-path="url(#p91d59c8987)" d="M 269.883942 213.662118 
L 269.883942 135.393882 
" style="fill:none;stroke:#6a5acd;stroke-dasharray:7.4,3.2;stroke-dashoffset:0;stroke-width:2;"/>
   </g>
   <g id="patch_28">
    <path d="M 228.367059 213.662118 
L 228.367059 135.393882 
" style="fill:none;stroke:#000000;stroke-linecap:square;stroke-linejoin:miter;stroke-width:0.8;"/>
   </g>
   <g id="patch_29">
    <path d="M 299.52 213.662118 
L 299.52 135.393882 
" style="fill:none;stroke:#000000;stroke-linecap:square;stroke-linejoin:miter;stroke-width:0.8;"/>
   </g>
   <g id="patch_30">
    <path d="M 228.367059 213.662118 
L 299.52 213.662118 
" style="fill:none;stroke:#000000;stroke-linecap:square;stroke-linejoin:miter;stroke-width:0.8;"/>
   </g>
   <g id="patch_31">
    <path d="M 228.367059 135.393882 
L 299.52 135.393882 
" style="fill:none;stroke:#000000;stroke-linecap:square;stroke-linejoin:miter;stroke-width:0.8;"/>
   </g>
  </g>
  <g id="axes_7">
   <g id="patch_32">
    <path d="M 57.6 307.584 
L 128.752941 307.584 
L 128.752941 229.315765 
L 57.6 229.315765 
z
" style="fill:#ffffff;"/>
   </g>
   <g id="matplotlib.axis_13">
    <g id="xtick_7">
     <g id="line2d_49">
      <g>
       <use style="stroke:#000000;stroke-width:0.8;" x="125.518717" xlink:href="#m7366e46876" y="307.584"/>
      </g>
     </g>
     <g id="text_12">
      <!-- $\mathdefault{10^{0}}$ -->
      <g transform="translate(116.718717 322.182437)scale(0.1 -0.1)">
       <use transform="translate(0 0.765625)" xlink:href="#DejaVuSans-49"/>
       <use transform="translate(63.623047 0.765625)" xlink:href="#DejaVuSans-48"/>
       <use transform="translate(128.203125 39.046875)scale(0.7)" xlink:href="#DejaVuSans-48"/>
      </g>
     </g>
    </g>
    <g id="text_13">
     <!-- $\lambda / \lambda_{\mathrm{max}}$ -->
     <g transform="translate(77.776471 335.860562)scale(0.1 -0.1)">
      <defs>
       <path d="M 36.71875 67.4375 
L 48.828125 0 
L 39.3125 0 
L 31.84375 40.4375 
L 5.125 0 
L -4.390625 0 
L 29.734375 52.4375 
L 28.03125 62.109375 
Q 26.953125 68.265625 21.734375 68.265625 
L 17.046875 68.265625 
L 18.5 75.984375 
L 24.21875 75.875 
Q 35.203125 75.734375 36.71875 67.4375 
z
" id="DejaVuSans-Oblique-955"/>
       <path d="M 25.390625 72.90625 
L 33.6875 72.90625 
L 8.296875 -9.28125 
L 0 -9.28125 
z
" id="DejaVuSans-47"/>
       <path d="M 52 44.1875 
Q 55.375 50.25 60.0625 53.125 
Q 64.75 56 71.09375 56 
Q 79.640625 56 84.28125 50.015625 
Q 88.921875 44.046875 88.921875 33.015625 
L 88.921875 0 
L 79.890625 0 
L 79.890625 32.71875 
Q 79.890625 40.578125 77.09375 44.375 
Q 74.3125 48.1875 68.609375 48.1875 
Q 61.625 48.1875 57.5625 43.546875 
Q 53.515625 38.921875 53.515625 30.90625 
L 53.515625 0 
L 44.484375 0 
L 44.484375 32.71875 
Q 44.484375 40.625 41.703125 44.40625 
Q 38.921875 48.1875 33.109375 48.1875 
Q 26.21875 48.1875 22.15625 43.53125 
Q 18.109375 38.875 18.109375 30.90625 
L 18.109375 0 
L 9.078125 0 
L 9.078125 54.6875 
L 18.109375 54.6875 
L 18.109375 46.1875 
Q 21.1875 51.21875 25.484375 53.609375 
Q 29.78125 56 35.6875 56 
Q 41.65625 56 45.828125 52.96875 
Q 50 49.953125 52 44.1875 
z
" id="DejaVuSans-109"/>
       <path d="M 34.28125 27.484375 
Q 23.390625 27.484375 19.1875 25 
Q 14.984375 22.515625 14.984375 16.5 
Q 14.984375 11.71875 18.140625 8.90625 
Q 21.296875 6.109375 26.703125 6.109375 
Q 34.1875 6.109375 38.703125 11.40625 
Q 43.21875 16.703125 43.21875 25.484375 
L 43.21875 27.484375 
z
M 52.203125 31.203125 
L 52.203125 0 
L 43.21875 0 
L 43.21875 8.296875 
Q 40.140625 3.328125 35.546875 0.953125 
Q 30.953125 -1.421875 24.3125 -1.421875 
Q 15.921875 -1.421875 10.953125 3.296875 
Q 6 8.015625 6 15.921875 
Q 6 25.140625 12.171875 29.828125 
Q 18.359375 34.515625 30.609375 34.515625 
L 43.21875 34.515625 
L 43.21875 35.40625 
Q 43.21875 41.609375 39.140625 45 
Q 35.0625 48.390625 27.6875 48.390625 
Q 23 48.390625 18.546875 47.265625 
Q 14.109375 46.140625 10.015625 43.890625 
L 10.015625 52.203125 
Q 14.9375 54.109375 19.578125 55.046875 
Q 24.21875 56 28.609375 56 
Q 40.484375 56 46.34375 49.84375 
Q 52.203125 43.703125 52.203125 31.203125 
z
" id="DejaVuSans-97"/>
       <path d="M 54.890625 54.6875 
L 35.109375 28.078125 
L 55.90625 0 
L 45.3125 0 
L 29.390625 21.484375 
L 13.484375 0 
L 2.875 0 
L 24.125 28.609375 
L 4.6875 54.6875 
L 15.28125 54.6875 
L 29.78125 35.203125 
L 44.28125 54.6875 
z
" id="DejaVuSans-120"/>
      </defs>
      <use transform="translate(0 0.015625)" xlink:href="#DejaVuSans-Oblique-955"/>
      <use transform="translate(59.179688 0.015625)" xlink:href="#DejaVuSans-47"/>
      <use transform="translate(92.871094 0.015625)" xlink:href="#DejaVuSans-Oblique-955"/>
      <use transform="translate(152.050781 -16.390625)scale(0.7)" xlink:href="#DejaVuSans-109"/>
      <use transform="translate(220.239258 -16.390625)scale(0.7)" xlink:href="#DejaVuSans-97"/>
      <use transform="translate(263.134766 -16.390625)scale(0.7)" xlink:href="#DejaVuSans-120"/>
     </g>
    </g>
   </g>
   <g id="matplotlib.axis_14">
    <g id="ytick_19">
     <g id="line2d_50">
      <g>
       <use style="stroke:#000000;stroke-width:0.8;" x="57.6" xlink:href="#mcec650716f" y="304.026353"/>
      </g>
     </g>
     <g id="text_14">
      <!-- 0.0 -->
      <g transform="translate(34.696875 307.825572)scale(0.1 -0.1)">
       <use xlink:href="#DejaVuSans-48"/>
       <use x="63.623047" xlink:href="#DejaVuSans-46"/>
       <use x="95.410156" xlink:href="#DejaVuSans-48"/>
      </g>
     </g>
    </g>
    <g id="ytick_20">
     <g id="line2d_51">
      <g>
       <use style="stroke:#000000;stroke-width:0.8;" x="57.6" xlink:href="#mcec650716f" y="268.449882"/>
      </g>
     </g>
     <g id="text_15">
      <!-- 0.5 -->
      <g transform="translate(34.696875 272.249101)scale(0.1 -0.1)">
       <use xlink:href="#DejaVuSans-48"/>
       <use x="63.623047" xlink:href="#DejaVuSans-46"/>
       <use x="95.410156" xlink:href="#DejaVuSans-53"/>
      </g>
     </g>
    </g>
    <g id="ytick_21">
     <g id="line2d_52">
      <g>
       <use style="stroke:#000000;stroke-width:0.8;" x="57.6" xlink:href="#mcec650716f" y="232.873412"/>
      </g>
     </g>
     <g id="text_16">
      <!-- 1.0 -->
      <g transform="translate(34.696875 236.672631)scale(0.1 -0.1)">
       <use xlink:href="#DejaVuSans-49"/>
       <use x="63.623047" xlink:href="#DejaVuSans-46"/>
       <use x="95.410156" xlink:href="#DejaVuSans-48"/>
      </g>
     </g>
    </g>
    <g id="text_17">
     <!-- F1 -->
     <g transform="translate(28.617188 274.506914)rotate(-90)scale(0.1 -0.1)">
      <defs>
       <path d="M 9.8125 72.90625 
L 51.703125 72.90625 
L 51.703125 64.59375 
L 19.671875 64.59375 
L 19.671875 43.109375 
L 48.578125 43.109375 
L 48.578125 34.8125 
L 19.671875 34.8125 
L 19.671875 0 
L 9.8125 0 
z
" id="DejaVuSans-70"/>
      </defs>
      <use xlink:href="#DejaVuSans-70"/>
      <use x="57.519531" xlink:href="#DejaVuSans-49"/>
     </g>
    </g>
   </g>
   <g id="line2d_53">
    <path clip-path="url(#p8e548abed8)" d="M 125.518717 286.407529 
L 124.198625 270.991059 
L 122.878533 268.449882 
L 121.558442 259.696941 
L 120.23835 253.767529 
L 118.918258 247.273412 
L 117.598167 244.732235 
L 116.278075 244.732235 
L 114.957983 244.732235 
L 113.637892 238.910631 
L 112.3178 237.329455 
L 110.997708 234.167102 
L 109.677617 239.126246 
L 108.357525 241.498011 
L 107.037433 248.443301 
L 105.717341 259.895846 
L 104.39725 265.592984 
L 103.077158 272.747972 
L 101.757066 279.238035 
L 100.436975 282.515875 
L 99.116883 284.809155 
L 97.796791 287.407032 
L 96.4767 289.027065 
L 95.156608 289.929663 
L 93.836516 290.888027 
L 92.516425 291.324211 
L 91.196333 291.94558 
L 89.876241 292.228703 
L 88.55615 292.607011 
L 87.236058 292.818746 
L 85.915966 293.267867 
L 84.595875 293.398067 
L 83.275783 293.641488 
L 81.955691 293.87208 
L 80.6356 293.987075 
L 79.315508 294.10461 
L 77.995416 294.134073 
L 76.675325 294.186114 
L 75.355233 294.212457 
L 74.035141 294.241765 
L 72.71505 294.320511 
L 71.394958 294.451607 
L 70.074866 294.529289 
L 68.754775 294.626892 
L 67.434683 294.673819 
L 66.114591 294.695244 
L 64.7945 294.760881 
L 63.474408 294.859139 
L 62.154316 294.882233 
L 60.834225 294.882233 
" style="fill:none;stroke:#87cefa;stroke-linecap:square;"/>
   </g>
   <g id="line2d_54">
    <path clip-path="url(#p8e548abed8)" d="M 125.518717 286.407529 
L 124.198625 273.532235 
L 122.878533 273.532235 
L 121.558442 260.826353 
L 120.23835 253.202824 
L 118.918258 247.273412 
L 117.598167 242.755765 
L 116.278075 242.755765 
L 114.957983 240.779294 
L 113.637892 241.174588 
L 112.3178 237.616941 
L 110.997708 234.454588 
L 109.677617 236.035765 
L 108.357525 236.035765 
L 107.037433 232.873412 
L 105.717341 232.873412 
L 104.39725 235.460791 
L 103.077158 243.888731 
L 101.757066 254.411807 
L 100.436975 259.273412 
L 99.116883 266.494217 
L 97.796791 272.741558 
L 96.4767 274.056809 
L 95.156608 277.835294 
L 93.836516 278.374226 
L 92.516425 280.067565 
L 91.196333 280.61474 
L 89.876241 281.351135 
L 88.55615 282.703346 
L 87.236058 282.703346 
L 85.915966 283.197463 
L 84.595875 284.541243 
L 83.275783 283.189536 
L 81.955691 285.230134 
L 80.6356 284.858886 
L 79.315508 285.377113 
L 77.995416 286.024878 
L 76.675325 285.200681 
L 75.355233 284.111481 
L 74.035141 285.387537 
L 72.71505 285.685986 
L 71.394958 285.86843 
L 70.074866 286.863486 
L 68.754775 285.162958 
L 67.434683 285.757965 
L 66.114591 285.943907 
L 64.7945 285.872668 
L 63.474408 286.195478 
L 62.154316 285.82818 
L 60.834225 285.078663 
" style="fill:none;stroke:#6a5acd;stroke-linecap:square;"/>
   </g>
   <g id="line2d_55">
    <path clip-path="url(#p8e548abed8)" d="M 110.997708 307.584 
L 110.997708 229.315765 
" style="fill:none;stroke:#87cefa;stroke-dasharray:7.4,3.2;stroke-dashoffset:0;stroke-width:2;"/>
   </g>
   <g id="line2d_56">
    <path clip-path="url(#p8e548abed8)" d="M 107.037433 307.584 
L 107.037433 229.315765 
" style="fill:none;stroke:#6a5acd;stroke-dasharray:7.4,3.2;stroke-dashoffset:0;stroke-width:2;"/>
   </g>
   <g id="patch_33">
    <path d="M 57.6 307.584 
L 57.6 229.315765 
" style="fill:none;stroke:#000000;stroke-linecap:square;stroke-linejoin:miter;stroke-width:0.8;"/>
   </g>
   <g id="patch_34">
    <path d="M 128.752941 307.584 
L 128.752941 229.315765 
" style="fill:none;stroke:#000000;stroke-linecap:square;stroke-linejoin:miter;stroke-width:0.8;"/>
   </g>
   <g id="patch_35">
    <path d="M 57.6 307.584 
L 128.752941 307.584 
" style="fill:none;stroke:#000000;stroke-linecap:square;stroke-linejoin:miter;stroke-width:0.8;"/>
   </g>
   <g id="patch_36">
    <path d="M 57.6 229.315765 
L 128.752941 229.315765 
" style="fill:none;stroke:#000000;stroke-linecap:square;stroke-linejoin:miter;stroke-width:0.8;"/>
   </g>
  </g>
  <g id="axes_8">
   <g id="patch_37">
    <path d="M 142.983529 307.584 
L 214.136471 307.584 
L 214.136471 229.315765 
L 142.983529 229.315765 
z
" style="fill:#ffffff;"/>
   </g>
   <g id="matplotlib.axis_15">
    <g id="xtick_8">
     <g id="line2d_57">
      <g>
       <use style="stroke:#000000;stroke-width:0.8;" x="210.902246" xlink:href="#m7366e46876" y="307.584"/>
      </g>
     </g>
     <g id="text_18">
      <!-- $\mathdefault{10^{0}}$ -->
      <g transform="translate(202.102246 322.182437)scale(0.1 -0.1)">
       <use transform="translate(0 0.765625)" xlink:href="#DejaVuSans-49"/>
       <use transform="translate(63.623047 0.765625)" xlink:href="#DejaVuSans-48"/>
       <use transform="translate(128.203125 39.046875)scale(0.7)" xlink:href="#DejaVuSans-48"/>
      </g>
     </g>
    </g>
    <g id="text_19">
     <!-- $\lambda / \lambda_{\mathrm{max}}$ -->
     <g transform="translate(163.16 335.860562)scale(0.1 -0.1)">
      <use transform="translate(0 0.015625)" xlink:href="#DejaVuSans-Oblique-955"/>
      <use transform="translate(59.179688 0.015625)" xlink:href="#DejaVuSans-47"/>
      <use transform="translate(92.871094 0.015625)" xlink:href="#DejaVuSans-Oblique-955"/>
      <use transform="translate(152.050781 -16.390625)scale(0.7)" xlink:href="#DejaVuSans-109"/>
      <use transform="translate(220.239258 -16.390625)scale(0.7)" xlink:href="#DejaVuSans-97"/>
      <use transform="translate(263.134766 -16.390625)scale(0.7)" xlink:href="#DejaVuSans-120"/>
     </g>
    </g>
   </g>
   <g id="matplotlib.axis_16">
    <g id="ytick_22">
     <g id="line2d_58">
      <g>
       <use style="stroke:#000000;stroke-width:0.8;" x="142.983529" xlink:href="#mcec650716f" y="304.026353"/>
      </g>
     </g>
    </g>
    <g id="ytick_23">
     <g id="line2d_59">
      <g>
       <use style="stroke:#000000;stroke-width:0.8;" x="142.983529" xlink:href="#mcec650716f" y="268.449882"/>
      </g>
     </g>
    </g>
    <g id="ytick_24">
     <g id="line2d_60">
      <g>
       <use style="stroke:#000000;stroke-width:0.8;" x="142.983529" xlink:href="#mcec650716f" y="232.873412"/>
      </g>
     </g>
    </g>
   </g>
   <g id="line2d_61">
    <path clip-path="url(#pa59cc9825f)" d="M 210.902246 294.539294 
L 209.582154 285.729882 
L 208.262063 278.614588 
L 206.941971 263.028706 
L 205.621879 260.487529 
L 204.301788 259.132235 
L 202.981696 259.132235 
L 201.661604 249.712941 
L 200.341513 247.815529 
L 199.021421 247.815529 
L 197.701329 245.839059 
L 196.381238 244.286631 
L 195.061146 245.364706 
L 193.741054 246.112171 
L 192.420963 246.500278 
L 191.100871 248.250787 
L 189.780779 255.828706 
L 188.460688 261.520609 
L 187.140596 268.799971 
L 185.820504 273.960043 
L 184.500413 277.653647 
L 183.180321 281.900503 
L 181.860229 284.868554 
L 180.540138 286.871763 
L 179.220046 288.720947 
L 177.899954 289.40076 
L 176.579862 290.331825 
L 175.259771 290.962835 
L 173.939679 291.517655 
L 172.619587 292.020205 
L 171.299496 292.346797 
L 169.979404 292.459024 
L 168.659312 292.82039 
L 167.339221 292.923352 
L 166.019129 293.176244 
L 164.699037 293.367568 
L 163.378946 293.429132 
L 162.058854 293.540359 
L 160.738762 293.704677 
L 159.418671 293.761148 
L 158.098579 293.913203 
L 156.778487 293.913203 
L 155.458396 293.939546 
L 154.138304 294.023283 
L 152.818212 294.078578 
L 151.498121 294.106416 
L 150.178029 294.130734 
L 148.857937 294.158571 
L 147.537846 294.185646 
L 146.217754 294.20934 
" style="fill:none;stroke:#87cefa;stroke-linecap:square;"/>
   </g>
   <g id="line2d_62">
    <path clip-path="url(#pa59cc9825f)" d="M 210.902246 289.795765 
L 209.582154 281.664 
L 208.262063 267.602824 
L 206.941971 265.739294 
L 205.621879 261.673412 
L 204.301788 259.301647 
L 202.981696 248.685176 
L 201.661604 246.708706 
L 200.341513 242.755765 
L 199.021421 240.779294 
L 197.701329 240.779294 
L 196.381238 240.779294 
L 195.061146 239.198118 
L 193.741054 239.198118 
L 192.420963 237.300706 
L 191.100871 235.719529 
L 189.780779 235.719529 
L 188.460688 234.167102 
L 187.140596 242.576086 
L 185.820504 246.260495 
L 184.500413 254.219294 
L 183.180321 262.994701 
L 181.860229 266.661635 
L 180.540138 268.347749 
L 179.220046 274.760406 
L 177.899954 274.121494 
L 176.579862 277.631471 
L 175.259771 280.285339 
L 173.939679 281.13937 
L 172.619587 280.2876 
L 171.299496 282.027335 
L 169.979404 282.583761 
L 168.659312 282.82293 
L 167.339221 283.794104 
L 166.019129 284.460351 
L 164.699037 283.921616 
L 163.378946 284.117104 
L 162.058854 284.087315 
L 160.738762 283.809882 
L 159.418671 285.083464 
L 158.098579 284.104233 
L 156.778487 284.469215 
L 155.458396 286.430163 
L 154.138304 284.023016 
L 152.818212 285.383604 
L 151.498121 284.998255 
L 150.178029 285.078663 
L 148.857937 285.584773 
L 147.537846 284.975714 
L 146.217754 285.185499 
" style="fill:none;stroke:#6a5acd;stroke-linecap:square;"/>
   </g>
   <g id="line2d_63">
    <path clip-path="url(#pa59cc9825f)" d="M 196.381238 307.584 
L 196.381238 229.315765 
" style="fill:none;stroke:#87cefa;stroke-dasharray:7.4,3.2;stroke-dashoffset:0;stroke-width:2;"/>
   </g>
   <g id="line2d_64">
    <path clip-path="url(#pa59cc9825f)" d="M 188.460688 307.584 
L 188.460688 229.315765 
" style="fill:none;stroke:#6a5acd;stroke-dasharray:7.4,3.2;stroke-dashoffset:0;stroke-width:2;"/>
   </g>
   <g id="patch_38">
    <path d="M 142.983529 307.584 
L 142.983529 229.315765 
" style="fill:none;stroke:#000000;stroke-linecap:square;stroke-linejoin:miter;stroke-width:0.8;"/>
   </g>
   <g id="patch_39">
    <path d="M 214.136471 307.584 
L 214.136471 229.315765 
" style="fill:none;stroke:#000000;stroke-linecap:square;stroke-linejoin:miter;stroke-width:0.8;"/>
   </g>
   <g id="patch_40">
    <path d="M 142.983529 307.584 
L 214.136471 307.584 
" style="fill:none;stroke:#000000;stroke-linecap:square;stroke-linejoin:miter;stroke-width:0.8;"/>
   </g>
   <g id="patch_41">
    <path d="M 142.983529 229.315765 
L 214.136471 229.315765 
" style="fill:none;stroke:#000000;stroke-linecap:square;stroke-linejoin:miter;stroke-width:0.8;"/>
   </g>
  </g>
  <g id="axes_9">
   <g id="patch_42">
    <path d="M 228.367059 307.584 
L 299.52 307.584 
L 299.52 229.315765 
L 228.367059 229.315765 
z
" style="fill:#ffffff;"/>
   </g>
   <g id="matplotlib.axis_17">
    <g id="xtick_9">
     <g id="line2d_65">
      <g>
       <use style="stroke:#000000;stroke-width:0.8;" x="296.285775" xlink:href="#m7366e46876" y="307.584"/>
      </g>
     </g>
     <g id="text_20">
      <!-- $\mathdefault{10^{0}}$ -->
      <g transform="translate(287.485775 322.182437)scale(0.1 -0.1)">
       <use transform="translate(0 0.765625)" xlink:href="#DejaVuSans-49"/>
       <use transform="translate(63.623047 0.765625)" xlink:href="#DejaVuSans-48"/>
       <use transform="translate(128.203125 39.046875)scale(0.7)" xlink:href="#DejaVuSans-48"/>
      </g>
     </g>
    </g>
    <g id="text_21">
     <!-- $\lambda / \lambda_{\mathrm{max}}$ -->
     <g transform="translate(248.543529 335.860562)scale(0.1 -0.1)">
      <use transform="translate(0 0.015625)" xlink:href="#DejaVuSans-Oblique-955"/>
      <use transform="translate(59.179688 0.015625)" xlink:href="#DejaVuSans-47"/>
      <use transform="translate(92.871094 0.015625)" xlink:href="#DejaVuSans-Oblique-955"/>
      <use transform="translate(152.050781 -16.390625)scale(0.7)" xlink:href="#DejaVuSans-109"/>
      <use transform="translate(220.239258 -16.390625)scale(0.7)" xlink:href="#DejaVuSans-97"/>
      <use transform="translate(263.134766 -16.390625)scale(0.7)" xlink:href="#DejaVuSans-120"/>
     </g>
    </g>
   </g>
   <g id="matplotlib.axis_18">
    <g id="ytick_25">
     <g id="line2d_66">
      <g>
       <use style="stroke:#000000;stroke-width:0.8;" x="228.367059" xlink:href="#mcec650716f" y="304.026353"/>
      </g>
     </g>
    </g>
    <g id="ytick_26">
     <g id="line2d_67">
      <g>
       <use style="stroke:#000000;stroke-width:0.8;" x="228.367059" xlink:href="#mcec650716f" y="268.449882"/>
      </g>
     </g>
    </g>
    <g id="ytick_27">
     <g id="line2d_68">
      <g>
       <use style="stroke:#000000;stroke-width:0.8;" x="228.367059" xlink:href="#mcec650716f" y="232.873412"/>
      </g>
     </g>
    </g>
   </g>
   <g id="line2d_69">
    <path clip-path="url(#p71b358c4ea)" d="M 296.285775 304.026353 
L 294.965684 304.026353 
L 293.645592 304.026353 
L 292.3255 304.026353 
L 291.005409 304.026353 
L 289.685317 304.026353 
L 288.365225 304.026353 
L 287.045134 300.864 
L 285.725042 300.864 
L 284.40495 300.864 
L 283.084859 298.017882 
L 281.764767 298.851594 
L 280.444675 296.911059 
L 279.124584 291.693176 
L 277.804492 290.181502 
L 276.4844 284.557032 
L 275.164309 285.260742 
L 273.844217 280.960673 
L 272.524125 283.564401 
L 271.204034 283.441687 
L 269.883942 284.654616 
L 268.56385 284.587183 
L 267.243759 283.970378 
L 265.923667 284.848941 
L 264.603575 282.511221 
L 263.283484 283.404483 
L 261.963392 283.835713 
L 260.6433 284.261331 
L 259.323209 285.035549 
L 258.003117 285.123121 
L 256.683025 287.396894 
L 255.362934 287.678315 
L 254.042842 289.545866 
L 252.72275 290.156845 
L 251.402659 290.319004 
L 250.082567 290.821204 
L 248.762475 291.05253 
L 247.442383 291.044829 
L 246.122292 292.21078 
L 244.8022 292.257178 
L 243.482108 292.319023 
L 242.162017 292.892402 
L 240.841925 293.187335 
L 239.521833 293.473131 
L 238.201742 294.255228 
L 236.88165 294.637796 
L 235.561558 294.96888 
L 234.241467 295.840705 
L 232.921375 296.102639 
L 231.601283 296.325424 
" style="fill:none;stroke:#87cefa;stroke-linecap:square;"/>
   </g>
   <g id="line2d_70">
    <path clip-path="url(#p71b358c4ea)" d="M 296.285775 304.026353 
L 294.965684 304.026353 
L 293.645592 304.026353 
L 292.3255 304.026353 
L 291.005409 304.026353 
L 289.685317 304.026353 
L 288.365225 299.960471 
L 287.045134 299.960471 
L 285.725042 299.960471 
L 284.40495 299.960471 
L 283.084859 292.845176 
L 281.764767 289.795765 
L 280.444675 294.144 
L 279.124584 290.586353 
L 277.804492 288.135529 
L 276.4844 277.857882 
L 275.164309 282.069561 
L 273.844217 281.020235 
L 272.524125 276.14015 
L 271.204034 273.035294 
L 269.883942 267.026824 
L 268.56385 264.496941 
L 267.243759 276.77262 
L 265.923667 267.975529 
L 264.603575 271.540364 
L 263.283484 270.476663 
L 261.963392 268.6854 
L 260.6433 265.547373 
L 259.323209 274.487102 
L 258.003117 271.368977 
L 256.683025 276.612449 
L 255.362934 275.773683 
L 254.042842 283.51971 
L 252.72275 281.579294 
L 251.402659 281.935059 
L 250.082567 283.982616 
L 248.762475 285.590227 
L 247.442383 286.715908 
L 246.122292 289.952674 
L 244.8022 289.573989 
L 243.482108 290.333463 
L 242.162017 291.163139 
L 240.841925 292.161738 
L 239.521833 293.30783 
L 238.201742 292.096649 
L 236.88165 297.157647 
L 235.561558 295.811398 
L 234.241467 294.817259 
L 232.921375 296.977591 
L 231.601283 296.459626 
" style="fill:none;stroke:#6a5acd;stroke-linecap:square;"/>
   </g>
   <g id="line2d_71">
    <path clip-path="url(#p71b358c4ea)" d="M 273.844217 307.584 
L 273.844217 229.315765 
" style="fill:none;stroke:#87cefa;stroke-dasharray:7.4,3.2;stroke-dashoffset:0;stroke-width:2;"/>
   </g>
   <g id="line2d_72">
    <path clip-path="url(#p71b358c4ea)" d="M 268.56385 307.584 
L 268.56385 229.315765 
" style="fill:none;stroke:#6a5acd;stroke-dasharray:7.4,3.2;stroke-dashoffset:0;stroke-width:2;"/>
   </g>
   <g id="patch_43">
    <path d="M 228.367059 307.584 
L 228.367059 229.315765 
" style="fill:none;stroke:#000000;stroke-linecap:square;stroke-linejoin:miter;stroke-width:0.8;"/>
   </g>
   <g id="patch_44">
    <path d="M 299.52 307.584 
L 299.52 229.315765 
" style="fill:none;stroke:#000000;stroke-linecap:square;stroke-linejoin:miter;stroke-width:0.8;"/>
   </g>
   <g id="patch_45">
    <path d="M 228.367059 307.584 
L 299.52 307.584 
" style="fill:none;stroke:#000000;stroke-linecap:square;stroke-linejoin:miter;stroke-width:0.8;"/>
   </g>
   <g id="patch_46">
    <path d="M 228.367059 229.315765 
L 299.52 229.315765 
" style="fill:none;stroke:#000000;stroke-linecap:square;stroke-linejoin:miter;stroke-width:0.8;"/>
   </g>
  </g>
  <g id="legend_1">
   <g id="patch_47">
    <path d="M 324.6 203.667187 
L 453.8 203.667187 
Q 455.8 203.667187 455.8 201.667187 
L 455.8 143.932812 
Q 455.8 141.932812 453.8 141.932812 
L 324.6 141.932812 
Q 322.6 141.932812 322.6 143.932812 
L 322.6 201.667187 
Q 322.6 203.667187 324.6 203.667187 
z
" style="fill:#ffffff;opacity:0.8;stroke:#cccccc;stroke-linejoin:miter;"/>
   </g>
   <g id="line2d_73">
    <path d="M 326.6 150.03125 
L 346.6 150.03125 
" style="fill:none;stroke:#87cefa;stroke-linecap:square;"/>
   </g>
   <g id="line2d_74"/>
   <g id="text_22">
    <!-- lasso -->
    <g transform="translate(354.6 153.53125)scale(0.1 -0.1)">
     <defs>
      <path d="M 9.421875 75.984375 
L 18.40625 75.984375 
L 18.40625 0 
L 9.421875 0 
z
" id="DejaVuSans-108"/>
      <path d="M 44.28125 53.078125 
L 44.28125 44.578125 
Q 40.484375 46.53125 36.375 47.5 
Q 32.28125 48.484375 27.875 48.484375 
Q 21.1875 48.484375 17.84375 46.4375 
Q 14.5 44.390625 14.5 40.28125 
Q 14.5 37.15625 16.890625 35.375 
Q 19.28125 33.59375 26.515625 31.984375 
L 29.59375 31.296875 
Q 39.15625 29.25 43.1875 25.515625 
Q 47.21875 21.78125 47.21875 15.09375 
Q 47.21875 7.46875 41.1875 3.015625 
Q 35.15625 -1.421875 24.609375 -1.421875 
Q 20.21875 -1.421875 15.453125 -0.5625 
Q 10.6875 0.296875 5.421875 2 
L 5.421875 11.28125 
Q 10.40625 8.6875 15.234375 7.390625 
Q 20.0625 6.109375 24.8125 6.109375 
Q 31.15625 6.109375 34.5625 8.28125 
Q 37.984375 10.453125 37.984375 14.40625 
Q 37.984375 18.0625 35.515625 20.015625 
Q 33.0625 21.96875 24.703125 23.78125 
L 21.578125 24.515625 
Q 13.234375 26.265625 9.515625 29.90625 
Q 5.8125 33.546875 5.8125 39.890625 
Q 5.8125 47.609375 11.28125 51.796875 
Q 16.75 56 26.8125 56 
Q 31.78125 56 36.171875 55.265625 
Q 40.578125 54.546875 44.28125 53.078125 
z
" id="DejaVuSans-115"/>
      <path d="M 30.609375 48.390625 
Q 23.390625 48.390625 19.1875 42.75 
Q 14.984375 37.109375 14.984375 27.296875 
Q 14.984375 17.484375 19.15625 11.84375 
Q 23.34375 6.203125 30.609375 6.203125 
Q 37.796875 6.203125 41.984375 11.859375 
Q 46.1875 17.53125 46.1875 27.296875 
Q 46.1875 37.015625 41.984375 42.703125 
Q 37.796875 48.390625 30.609375 48.390625 
z
M 30.609375 56 
Q 42.328125 56 49.015625 48.375 
Q 55.71875 40.765625 55.71875 27.296875 
Q 55.71875 13.875 49.015625 6.21875 
Q 42.328125 -1.421875 30.609375 -1.421875 
Q 18.84375 -1.421875 12.171875 6.21875 
Q 5.515625 13.875 5.515625 27.296875 
Q 5.515625 40.765625 12.171875 48.375 
Q 18.84375 56 30.609375 56 
z
" id="DejaVuSans-111"/>
     </defs>
     <use xlink:href="#DejaVuSans-108"/>
     <use x="27.783203" xlink:href="#DejaVuSans-97"/>
     <use x="89.0625" xlink:href="#DejaVuSans-115"/>
     <use x="141.162109" xlink:href="#DejaVuSans-115"/>
     <use x="193.261719" xlink:href="#DejaVuSans-111"/>
    </g>
   </g>
   <g id="line2d_75">
    <path d="M 326.6 164.709375 
L 346.6 164.709375 
" style="fill:none;stroke:#6a5acd;stroke-linecap:square;"/>
   </g>
   <g id="line2d_76"/>
   <g id="text_23">
    <!-- reweighted -->
    <g transform="translate(354.6 168.209375)scale(0.1 -0.1)">
     <defs>
      <path d="M 41.109375 46.296875 
Q 39.59375 47.171875 37.8125 47.578125 
Q 36.03125 48 33.890625 48 
Q 26.265625 48 22.1875 43.046875 
Q 18.109375 38.09375 18.109375 28.8125 
L 18.109375 0 
L 9.078125 0 
L 9.078125 54.6875 
L 18.109375 54.6875 
L 18.109375 46.1875 
Q 20.953125 51.171875 25.484375 53.578125 
Q 30.03125 56 36.53125 56 
Q 37.453125 56 38.578125 55.875 
Q 39.703125 55.765625 41.0625 55.515625 
z
" id="DejaVuSans-114"/>
      <path d="M 56.203125 29.59375 
L 56.203125 25.203125 
L 14.890625 25.203125 
Q 15.484375 15.921875 20.484375 11.0625 
Q 25.484375 6.203125 34.421875 6.203125 
Q 39.59375 6.203125 44.453125 7.46875 
Q 49.3125 8.734375 54.109375 11.28125 
L 54.109375 2.78125 
Q 49.265625 0.734375 44.1875 -0.34375 
Q 39.109375 -1.421875 33.890625 -1.421875 
Q 20.796875 -1.421875 13.15625 6.1875 
Q 5.515625 13.8125 5.515625 26.8125 
Q 5.515625 40.234375 12.765625 48.109375 
Q 20.015625 56 32.328125 56 
Q 43.359375 56 49.78125 48.890625 
Q 56.203125 41.796875 56.203125 29.59375 
z
M 47.21875 32.234375 
Q 47.125 39.59375 43.09375 43.984375 
Q 39.0625 48.390625 32.421875 48.390625 
Q 24.90625 48.390625 20.390625 44.140625 
Q 15.875 39.890625 15.1875 32.171875 
z
" id="DejaVuSans-101"/>
      <path d="M 4.203125 54.6875 
L 13.1875 54.6875 
L 24.421875 12.015625 
L 35.59375 54.6875 
L 46.1875 54.6875 
L 57.421875 12.015625 
L 68.609375 54.6875 
L 77.59375 54.6875 
L 63.28125 0 
L 52.6875 0 
L 40.921875 44.828125 
L 29.109375 0 
L 18.5 0 
z
" id="DejaVuSans-119"/>
      <path d="M 9.421875 54.6875 
L 18.40625 54.6875 
L 18.40625 0 
L 9.421875 0 
z
M 9.421875 75.984375 
L 18.40625 75.984375 
L 18.40625 64.59375 
L 9.421875 64.59375 
z
" id="DejaVuSans-105"/>
      <path d="M 45.40625 27.984375 
Q 45.40625 37.75 41.375 43.109375 
Q 37.359375 48.484375 30.078125 48.484375 
Q 22.859375 48.484375 18.828125 43.109375 
Q 14.796875 37.75 14.796875 27.984375 
Q 14.796875 18.265625 18.828125 12.890625 
Q 22.859375 7.515625 30.078125 7.515625 
Q 37.359375 7.515625 41.375 12.890625 
Q 45.40625 18.265625 45.40625 27.984375 
z
M 54.390625 6.78125 
Q 54.390625 -7.171875 48.1875 -13.984375 
Q 42 -20.796875 29.203125 -20.796875 
Q 24.46875 -20.796875 20.265625 -20.09375 
Q 16.0625 -19.390625 12.109375 -17.921875 
L 12.109375 -9.1875 
Q 16.0625 -11.328125 19.921875 -12.34375 
Q 23.78125 -13.375 27.78125 -13.375 
Q 36.625 -13.375 41.015625 -8.765625 
Q 45.40625 -4.15625 45.40625 5.171875 
L 45.40625 9.625 
Q 42.625 4.78125 38.28125 2.390625 
Q 33.9375 0 27.875 0 
Q 17.828125 0 11.671875 7.65625 
Q 5.515625 15.328125 5.515625 27.984375 
Q 5.515625 40.671875 11.671875 48.328125 
Q 17.828125 56 27.875 56 
Q 33.9375 56 38.28125 53.609375 
Q 42.625 51.21875 45.40625 46.390625 
L 45.40625 54.6875 
L 54.390625 54.6875 
z
" id="DejaVuSans-103"/>
      <path d="M 54.890625 33.015625 
L 54.890625 0 
L 45.90625 0 
L 45.90625 32.71875 
Q 45.90625 40.484375 42.875 44.328125 
Q 39.84375 48.1875 33.796875 48.1875 
Q 26.515625 48.1875 22.3125 43.546875 
Q 18.109375 38.921875 18.109375 30.90625 
L 18.109375 0 
L 9.078125 0 
L 9.078125 75.984375 
L 18.109375 75.984375 
L 18.109375 46.1875 
Q 21.34375 51.125 25.703125 53.5625 
Q 30.078125 56 35.796875 56 
Q 45.21875 56 50.046875 50.171875 
Q 54.890625 44.34375 54.890625 33.015625 
z
" id="DejaVuSans-104"/>
      <path d="M 18.3125 70.21875 
L 18.3125 54.6875 
L 36.8125 54.6875 
L 36.8125 47.703125 
L 18.3125 47.703125 
L 18.3125 18.015625 
Q 18.3125 11.328125 20.140625 9.421875 
Q 21.96875 7.515625 27.59375 7.515625 
L 36.8125 7.515625 
L 36.8125 0 
L 27.59375 0 
Q 17.1875 0 13.234375 3.875 
Q 9.28125 7.765625 9.28125 18.015625 
L 9.28125 47.703125 
L 2.6875 47.703125 
L 2.6875 54.6875 
L 9.28125 54.6875 
L 9.28125 70.21875 
z
" id="DejaVuSans-116"/>
      <path d="M 45.40625 46.390625 
L 45.40625 75.984375 
L 54.390625 75.984375 
L 54.390625 0 
L 45.40625 0 
L 45.40625 8.203125 
Q 42.578125 3.328125 38.25 0.953125 
Q 33.9375 -1.421875 27.875 -1.421875 
Q 17.96875 -1.421875 11.734375 6.484375 
Q 5.515625 14.40625 5.515625 27.296875 
Q 5.515625 40.1875 11.734375 48.09375 
Q 17.96875 56 27.875 56 
Q 33.9375 56 38.25 53.625 
Q 42.578125 51.265625 45.40625 46.390625 
z
M 14.796875 27.296875 
Q 14.796875 17.390625 18.875 11.75 
Q 22.953125 6.109375 30.078125 6.109375 
Q 37.203125 6.109375 41.296875 11.75 
Q 45.40625 17.390625 45.40625 27.296875 
Q 45.40625 37.203125 41.296875 42.84375 
Q 37.203125 48.484375 30.078125 48.484375 
Q 22.953125 48.484375 18.875 42.84375 
Q 14.796875 37.203125 14.796875 27.296875 
z
" id="DejaVuSans-100"/>
     </defs>
     <use xlink:href="#DejaVuSans-114"/>
     <use x="38.863281" xlink:href="#DejaVuSans-101"/>
     <use x="100.386719" xlink:href="#DejaVuSans-119"/>
     <use x="182.173828" xlink:href="#DejaVuSans-101"/>
     <use x="243.697266" xlink:href="#DejaVuSans-105"/>
     <use x="271.480469" xlink:href="#DejaVuSans-103"/>
     <use x="334.957031" xlink:href="#DejaVuSans-104"/>
     <use x="398.335938" xlink:href="#DejaVuSans-116"/>
     <use x="437.544922" xlink:href="#DejaVuSans-101"/>
     <use x="499.068359" xlink:href="#DejaVuSans-100"/>
    </g>
   </g>
   <g id="line2d_77">
    <path d="M 326.6 179.3875 
L 346.6 179.3875 
" style="fill:none;stroke:#87cefa;stroke-dasharray:7.4,3.2;stroke-dashoffset:0;stroke-width:2;"/>
   </g>
   <g id="line2d_78"/>
   <g id="text_24">
    <!-- lasso - best $\lambda$ -->
    <g transform="translate(354.6 182.8875)scale(0.1 -0.1)">
     <defs>
      <path id="DejaVuSans-32"/>
      <path d="M 4.890625 31.390625 
L 31.203125 31.390625 
L 31.203125 23.390625 
L 4.890625 23.390625 
z
" id="DejaVuSans-45"/>
      <path d="M 48.6875 27.296875 
Q 48.6875 37.203125 44.609375 42.84375 
Q 40.53125 48.484375 33.40625 48.484375 
Q 26.265625 48.484375 22.1875 42.84375 
Q 18.109375 37.203125 18.109375 27.296875 
Q 18.109375 17.390625 22.1875 11.75 
Q 26.265625 6.109375 33.40625 6.109375 
Q 40.53125 6.109375 44.609375 11.75 
Q 48.6875 17.390625 48.6875 27.296875 
z
M 18.109375 46.390625 
Q 20.953125 51.265625 25.265625 53.625 
Q 29.59375 56 35.59375 56 
Q 45.5625 56 51.78125 48.09375 
Q 58.015625 40.1875 58.015625 27.296875 
Q 58.015625 14.40625 51.78125 6.484375 
Q 45.5625 -1.421875 35.59375 -1.421875 
Q 29.59375 -1.421875 25.265625 0.953125 
Q 20.953125 3.328125 18.109375 8.203125 
L 18.109375 0 
L 9.078125 0 
L 9.078125 75.984375 
L 18.109375 75.984375 
z
" id="DejaVuSans-98"/>
     </defs>
     <use transform="translate(0 0.015625)" xlink:href="#DejaVuSans-108"/>
     <use transform="translate(27.783203 0.015625)" xlink:href="#DejaVuSans-97"/>
     <use transform="translate(89.0625 0.015625)" xlink:href="#DejaVuSans-115"/>
     <use transform="translate(141.162109 0.015625)" xlink:href="#DejaVuSans-115"/>
     <use transform="translate(193.261719 0.015625)" xlink:href="#DejaVuSans-111"/>
     <use transform="translate(254.443359 0.015625)" xlink:href="#DejaVuSans-32"/>
     <use transform="translate(286.230469 0.015625)" xlink:href="#DejaVuSans-45"/>
     <use transform="translate(322.314453 0.015625)" xlink:href="#DejaVuSans-32"/>
     <use transform="translate(354.101562 0.015625)" xlink:href="#DejaVuSans-98"/>
     <use transform="translate(417.578125 0.015625)" xlink:href="#DejaVuSans-101"/>
     <use transform="translate(479.101562 0.015625)" xlink:href="#DejaVuSans-115"/>
     <use transform="translate(531.201172 0.015625)" xlink:href="#DejaVuSans-116"/>
     <use transform="translate(570.410156 0.015625)" xlink:href="#DejaVuSans-32"/>
     <use transform="translate(602.197266 0.015625)" xlink:href="#DejaVuSans-Oblique-955"/>
    </g>
   </g>
   <g id="line2d_79">
    <path d="M 326.6 194.067187 
L 346.6 194.067187 
" style="fill:none;stroke:#6a5acd;stroke-dasharray:7.4,3.2;stroke-dashoffset:0;stroke-width:2;"/>
   </g>
   <g id="line2d_80"/>
   <g id="text_25">
    <!-- reweighted - best $\lambda$ -->
    <g transform="translate(354.6 197.567187)scale(0.1 -0.1)">
     <use transform="translate(0 0.015625)" xlink:href="#DejaVuSans-114"/>
     <use transform="translate(41.113281 0.015625)" xlink:href="#DejaVuSans-101"/>
     <use transform="translate(102.636719 0.015625)" xlink:href="#DejaVuSans-119"/>
     <use transform="translate(184.423828 0.015625)" xlink:href="#DejaVuSans-101"/>
     <use transform="translate(245.947266 0.015625)" xlink:href="#DejaVuSans-105"/>
     <use transform="translate(273.730469 0.015625)" xlink:href="#DejaVuSans-103"/>
     <use transform="translate(337.207031 0.015625)" xlink:href="#DejaVuSans-104"/>
     <use transform="translate(400.585938 0.015625)" xlink:href="#DejaVuSans-116"/>
     <use transform="translate(439.794922 0.015625)" xlink:href="#DejaVuSans-101"/>
     <use transform="translate(501.318359 0.015625)" xlink:href="#DejaVuSans-100"/>
     <use transform="translate(564.794922 0.015625)" xlink:href="#DejaVuSans-32"/>
     <use transform="translate(596.582031 0.015625)" xlink:href="#DejaVuSans-45"/>
     <use transform="translate(632.666016 0.015625)" xlink:href="#DejaVuSans-32"/>
     <use transform="translate(664.453125 0.015625)" xlink:href="#DejaVuSans-98"/>
     <use transform="translate(727.929688 0.015625)" xlink:href="#DejaVuSans-101"/>
     <use transform="translate(789.453125 0.015625)" xlink:href="#DejaVuSans-115"/>
     <use transform="translate(841.552734 0.015625)" xlink:href="#DejaVuSans-116"/>
     <use transform="translate(880.761719 0.015625)" xlink:href="#DejaVuSans-32"/>
     <use transform="translate(912.548828 0.015625)" xlink:href="#DejaVuSans-Oblique-955"/>
    </g>
   </g>
  </g>
 </g>
 <defs>
  <clipPath id="p28e101f23c">
   <rect height="78.268235" width="71.152941" x="57.6" y="41.472"/>
  </clipPath>
  <clipPath id="pda019343e4">
   <rect height="78.268235" width="71.152941" x="142.983529" y="41.472"/>
  </clipPath>
  <clipPath id="p706357cd98">
   <rect height="78.268235" width="71.152941" x="228.367059" y="41.472"/>
  </clipPath>
  <clipPath id="pf8d0eb9732">
   <rect height="78.268235" width="71.152941" x="57.6" y="135.393882"/>
  </clipPath>
  <clipPath id="p64b1f41681">
   <rect height="78.268235" width="71.152941" x="142.983529" y="135.393882"/>
  </clipPath>
  <clipPath id="p91d59c8987">
   <rect height="78.268235" width="71.152941" x="228.367059" y="135.393882"/>
  </clipPath>
  <clipPath id="p8e548abed8">
   <rect height="78.268235" width="71.152941" x="57.6" y="229.315765"/>
  </clipPath>
  <clipPath id="pa59cc9825f">
   <rect height="78.268235" width="71.152941" x="142.983529" y="229.315765"/>
  </clipPath>
  <clipPath id="p71b358c4ea">
   <rect height="78.268235" width="71.152941" x="228.367059" y="229.315765"/>
  </clipPath>
 </defs>
</svg>
